solid OpenSCAD_Model
  facet normal 0.970442 0.241336 0
    outer loop
      vertex 151.942 67.5853 12
      vertex 151.871 67.8708 0
      vertex 151.871 67.8708 12
    endloop
  endfacet
  facet normal 0.970442 0.241336 0
    outer loop
      vertex 151.871 67.8708 0
      vertex 151.942 67.5853 12
      vertex 151.942 67.5853 0
    endloop
  endfacet
  facet normal -0.970031 -0.24298 0
    outer loop
      vertex 0.129178 2.12915 0
      vertex 0.0576439 2.41473 12
      vertex 0.0576439 2.41473 0
    endloop
  endfacet
  facet normal -0.970031 -0.24298 0
    outer loop
      vertex 0.0576439 2.41473 12
      vertex 0.129178 2.12915 0
      vertex 0.129178 2.12915 12
    endloop
  endfacet
  facet normal 0.242644 -0.970115 0
    outer loop
      vertex 149.585 0.0576439 0
      vertex 149.871 0.129178 12
      vertex 149.585 0.0576439 12
    endloop
  endfacet
  facet normal 0.242644 -0.970115 0
    outer loop
      vertex 149.871 0.129178 12
      vertex 149.585 0.0576439 0
      vertex 149.871 0.129178 0
    endloop
  endfacet
  facet normal 1 -0 0
    outer loop
      vertex 152 3 12
      vertex 152 67 0
      vertex 152 67 12
    endloop
  endfacet
  facet normal 1 0 0
    outer loop
      vertex 152 67 0
      vertex 152 3 12
      vertex 152 3 0
    endloop
  endfacet
  facet normal -0.998796 -0.0490661 0
    outer loop
      vertex 0.0144453 2.70595 0
      vertex 0 3 12
      vertex 0 3 0
    endloop
  endfacet
  facet normal -0.998796 -0.0490661 0
    outer loop
      vertex 0 3 12
      vertex 0.0144453 2.70595 0
      vertex 0.0144453 2.70595 12
    endloop
  endfacet
  facet normal 0.803858 0.594821 0
    outer loop
      vertex 151.494 68.6667 12
      vertex 151.319 68.9032 0
      vertex 151.319 68.9032 12
    endloop
  endfacet
  facet normal 0.803858 0.594821 0
    outer loop
      vertex 151.319 68.9032 0
      vertex 151.494 68.6667 12
      vertex 151.494 68.6667 0
    endloop
  endfacet
  facet normal 0 1 -0
    outer loop
      vertex 149 70 0
      vertex 3 70 12
      vertex 149 70 12
    endloop
  endfacet
  facet normal 0 1 0
    outer loop
      vertex 3 70 12
      vertex 149 70 0
      vertex 3 70 0
    endloop
  endfacet
  facet normal 0 -1 0
    outer loop
      vertex 69 0 10
      vertex 3 0 12
      vertex 45 0 10
    endloop
  endfacet
  facet normal 0 -1 0
    outer loop
      vertex 3 0 12
      vertex 45 0 4
      vertex 45 0 10
    endloop
  endfacet
  facet normal 0 -1 -0
    outer loop
      vertex 45 0 4
      vertex 3 0 0
      vertex 69 0 4
    endloop
  endfacet
  facet normal 0 -1 0
    outer loop
      vertex 3 0 0
      vertex 45 0 4
      vertex 3 0 12
    endloop
  endfacet
  facet normal 0 -1 0
    outer loop
      vertex 3 0 12
      vertex 69 0 10
      vertex 149 0 12
    endloop
  endfacet
  facet normal 0 -1 0
    outer loop
      vertex 69 0 4
      vertex 149 0 12
      vertex 69 0 10
    endloop
  endfacet
  facet normal 0 -1 0
    outer loop
      vertex 69 0 4
      vertex 149 0 0
      vertex 149 0 12
    endloop
  endfacet
  facet normal 0 -1 0
    outer loop
      vertex 149 0 0
      vertex 69 0 4
      vertex 3 0 0
    endloop
  endfacet
  facet normal -0.514216 0.857661 0
    outer loop
      vertex 1.58581 69.6458 0
      vertex 1.33329 69.4944 12
      vertex 1.58581 69.6458 12
    endloop
  endfacet
  facet normal -0.514216 0.857661 0
    outer loop
      vertex 1.33329 69.4944 12
      vertex 1.58581 69.6458 0
      vertex 1.33329 69.4944 0
    endloop
  endfacet
  facet normal 0.941742 0.336336 0
    outer loop
      vertex 151.871 67.8708 12
      vertex 151.772 68.148 0
      vertex 151.772 68.148 12
    endloop
  endfacet
  facet normal 0.941742 0.336336 0
    outer loop
      vertex 151.772 68.148 0
      vertex 151.871 67.8708 12
      vertex 151.871 67.8708 0
    endloop
  endfacet
  facet normal 0.856744 0.515743 0
    outer loop
      vertex 151.646 68.4142 12
      vertex 151.494 68.6667 0
      vertex 151.494 68.6667 12
    endloop
  endfacet
  facet normal 0.856744 0.515743 0
    outer loop
      vertex 151.494 68.6667 0
      vertex 151.646 68.4142 12
      vertex 151.646 68.4142 0
    endloop
  endfacet
  facet normal -1 0 0
    outer loop
      vertex 0 3 0
      vertex 0 67 12
      vertex 0 67 0
    endloop
  endfacet
  facet normal -1 -0 0
    outer loop
      vertex 0 67 12
      vertex 0 3 0
      vertex 0 3 12
    endloop
  endfacet
  facet normal -0.595699 -0.803208 0
    outer loop
      vertex 1.09682 0.680968 0
      vertex 1.33329 0.50559 12
      vertex 1.09682 0.680968 12
    endloop
  endfacet
  facet normal -0.595699 -0.803208 -0
    outer loop
      vertex 1.33329 0.50559 12
      vertex 1.09682 0.680968 0
      vertex 1.33329 0.50559 0
    endloop
  endfacet
  facet normal 0.970458 -0.241272 0
    outer loop
      vertex 151.871 2.12915 12
      vertex 151.942 2.41473 0
      vertex 151.942 2.41473 12
    endloop
  endfacet
  facet normal 0.970458 -0.241272 0
    outer loop
      vertex 151.942 2.41473 0
      vertex 151.871 2.12915 12
      vertex 151.871 2.12915 0
    endloop
  endfacet
  facet normal 0.671776 0.740754 -0
    outer loop
      vertex 151.121 69.1213 0
      vertex 150.903 69.319 12
      vertex 151.121 69.1213 12
    endloop
  endfacet
  facet normal 0.671776 0.740754 0
    outer loop
      vertex 150.903 69.319 12
      vertex 151.121 69.1213 0
      vertex 150.903 69.319 0
    endloop
  endfacet
  facet normal -0.989176 -0.146731 0
    outer loop
      vertex 0.0576439 2.41473 0
      vertex 0.0144453 2.70595 12
      vertex 0.0144453 2.70595 0
    endloop
  endfacet
  facet normal -0.989176 -0.146731 0
    outer loop
      vertex 0.0144453 2.70595 12
      vertex 0.0576439 2.41473 0
      vertex 0.0576439 2.41473 12
    endloop
  endfacet
  facet normal 0.513498 0.858091 -0
    outer loop
      vertex 150.667 69.4944 0
      vertex 150.414 69.6458 12
      vertex 150.667 69.4944 12
    endloop
  endfacet
  facet normal 0.513498 0.858091 0
    outer loop
      vertex 150.414 69.6458 12
      vertex 150.667 69.4944 0
      vertex 150.414 69.6458 0
    endloop
  endfacet
  facet normal 0.596464 -0.80264 0
    outer loop
      vertex 150.667 0.50559 0
      vertex 150.903 0.680968 12
      vertex 150.667 0.50559 12
    endloop
  endfacet
  facet normal 0.596464 -0.80264 0
    outer loop
      vertex 150.903 0.680968 12
      vertex 150.667 0.50559 0
      vertex 150.903 0.680968 0
    endloop
  endfacet
  facet normal -0.0490661 -0.998796 0
    outer loop
      vertex 2.70595 0.0144453 0
      vertex 3 0 12
      vertex 2.70595 0.0144453 12
    endloop
  endfacet
  facet normal -0.0490661 -0.998796 -0
    outer loop
      vertex 3 0 12
      vertex 2.70595 0.0144453 0
      vertex 3 0 0
    endloop
  endfacet
  facet normal 0.998869 0.047549 0
    outer loop
      vertex 152 67 12
      vertex 151.986 67.2941 0
      vertex 151.986 67.2941 12
    endloop
  endfacet
  facet normal 0.998869 0.047549 0
    outer loop
      vertex 151.986 67.2941 0
      vertex 152 67 12
      vertex 152 67 0
    endloop
  endfacet
  facet normal 0.427739 -0.903902 0
    outer loop
      vertex 150.148 0.228361 0
      vertex 150.414 0.354236 12
      vertex 150.148 0.228361 12
    endloop
  endfacet
  facet normal 0.427739 -0.903902 0
    outer loop
      vertex 150.414 0.354236 12
      vertex 150.148 0.228361 0
      vertex 150.414 0.354236 0
    endloop
  endfacet
  facet normal -0.904026 0.427477 0
    outer loop
      vertex 0.228361 68.148 0
      vertex 0.354236 68.4142 12
      vertex 0.354236 68.4142 0
    endloop
  endfacet
  facet normal -0.904026 0.427477 0
    outer loop
      vertex 0.354236 68.4142 12
      vertex 0.228361 68.148 0
      vertex 0.228361 68.148 12
    endloop
  endfacet
  facet normal 0.0492599 0.998786 -0
    outer loop
      vertex 149.294 69.9855 0
      vertex 149 70 12
      vertex 149.294 69.9855 12
    endloop
  endfacet
  facet normal 0.0492599 0.998786 0
    outer loop
      vertex 149 70 12
      vertex 149.294 69.9855 0
      vertex 149 70 0
    endloop
  endfacet
  facet normal 0.242855 0.970063 -0
    outer loop
      vertex 149.871 69.8708 0
      vertex 149.585 69.9424 12
      vertex 149.871 69.8708 12
    endloop
  endfacet
  facet normal 0.242855 0.970063 0
    outer loop
      vertex 149.585 69.9424 12
      vertex 149.871 69.8708 0
      vertex 149.585 69.9424 0
    endloop
  endfacet
  facet normal 0.14684 -0.98916 0
    outer loop
      vertex 149.294 0.0144453 0
      vertex 149.585 0.0576439 12
      vertex 149.294 0.0144453 12
    endloop
  endfacet
  facet normal 0.14684 -0.98916 0
    outer loop
      vertex 149.585 0.0576439 12
      vertex 149.294 0.0144453 0
      vertex 149.585 0.0576439 0
    endloop
  endfacet
  facet normal 0.988776 0.149403 0
    outer loop
      vertex 151.986 67.2941 12
      vertex 151.942 67.5853 0
      vertex 151.942 67.5853 12
    endloop
  endfacet
  facet normal 0.988776 0.149403 0
    outer loop
      vertex 151.942 67.5853 0
      vertex 151.986 67.2941 12
      vertex 151.986 67.2941 0
    endloop
  endfacet
  facet normal -0.970015 0.243044 0
    outer loop
      vertex 0.0576439 67.5853 0
      vertex 0.129178 67.8708 12
      vertex 0.129178 67.8708 0
    endloop
  endfacet
  facet normal -0.970015 0.243044 0
    outer loop
      vertex 0.129178 67.8708 12
      vertex 0.0576439 67.5853 0
      vertex 0.0576439 67.5853 12
    endloop
  endfacet
  facet normal 0.427531 0.904001 -0
    outer loop
      vertex 150.414 69.6458 0
      vertex 150.148 69.7716 12
      vertex 150.414 69.6458 12
    endloop
  endfacet
  facet normal 0.427531 0.904001 0
    outer loop
      vertex 150.148 69.7716 12
      vertex 150.414 69.6458 0
      vertex 150.148 69.7716 0
    endloop
  endfacet
  facet normal -0.671538 0.740971 0
    outer loop
      vertex 1.09682 69.319 0
      vertex 0.878679 69.1213 12
      vertex 1.09682 69.319 12
    endloop
  endfacet
  facet normal -0.671538 0.740971 0
    outer loop
      vertex 0.878679 69.1213 12
      vertex 1.09682 69.319 0
      vertex 0.878679 69.1213 0
    endloop
  endfacet
  facet normal 0.513383 -0.85816 0
    outer loop
      vertex 150.414 0.354236 0
      vertex 150.667 0.50559 12
      vertex 150.414 0.354236 12
    endloop
  endfacet
  facet normal 0.513383 -0.85816 0
    outer loop
      vertex 150.667 0.50559 12
      vertex 150.414 0.354236 0
      vertex 150.667 0.50559 0
    endloop
  endfacet
  facet normal -0.146403 0.989225 0
    outer loop
      vertex 2.70595 69.9855 0
      vertex 2.41473 69.9424 12
      vertex 2.70595 69.9855 12
    endloop
  endfacet
  facet normal -0.146403 0.989225 0
    outer loop
      vertex 2.41473 69.9424 12
      vertex 2.70595 69.9855 0
      vertex 2.41473 69.9424 0
    endloop
  endfacet
  facet normal -0.336939 0.941527 0
    outer loop
      vertex 2.12915 69.8708 0
      vertex 1.85195 69.7716 12
      vertex 2.12915 69.8708 12
    endloop
  endfacet
  facet normal -0.336939 0.941527 0
    outer loop
      vertex 1.85195 69.7716 12
      vertex 2.12915 69.8708 0
      vertex 1.85195 69.7716 0
    endloop
  endfacet
  facet normal 0.941742 -0.336336 0
    outer loop
      vertex 151.772 1.85195 12
      vertex 151.871 2.12915 0
      vertex 151.871 2.12915 12
    endloop
  endfacet
  facet normal 0.941742 -0.336336 0
    outer loop
      vertex 151.871 2.12915 0
      vertex 151.772 1.85195 12
      vertex 151.772 1.85195 0
    endloop
  endfacet
  facet normal -0.740889 0.671627 0
    outer loop
      vertex 0.680968 68.9032 0
      vertex 0.878679 69.1213 12
      vertex 0.878679 69.1213 0
    endloop
  endfacet
  facet normal -0.740889 0.671627 0
    outer loop
      vertex 0.878679 69.1213 12
      vertex 0.680968 68.9032 0
      vertex 0.680968 68.9032 12
    endloop
  endfacet
  facet normal 0.988778 -0.149393 0
    outer loop
      vertex 151.942 2.41473 12
      vertex 151.986 2.70595 0
      vertex 151.986 2.70595 12
    endloop
  endfacet
  facet normal 0.988778 -0.149393 0
    outer loop
      vertex 151.986 2.70595 0
      vertex 151.942 2.41473 12
      vertex 151.942 2.41473 0
    endloop
  endfacet
  facet normal -0.514101 -0.85773 0
    outer loop
      vertex 1.33329 0.50559 0
      vertex 1.58581 0.354236 12
      vertex 1.33329 0.50559 12
    endloop
  endfacet
  facet normal -0.514101 -0.85773 -0
    outer loop
      vertex 1.58581 0.354236 12
      vertex 1.33329 0.50559 0
      vertex 1.58581 0.354236 0
    endloop
  endfacet
  facet normal 0.671796 -0.740736 0
    outer loop
      vertex 150.903 0.680968 0
      vertex 151.121 0.878679 12
      vertex 150.903 0.680968 12
    endloop
  endfacet
  facet normal 0.671796 -0.740736 0
    outer loop
      vertex 151.121 0.878679 12
      vertex 150.903 0.680968 0
      vertex 151.121 0.878679 0
    endloop
  endfacet
  facet normal -0.336888 -0.941545 0
    outer loop
      vertex 1.85195 0.228361 0
      vertex 2.12915 0.129178 12
      vertex 1.85195 0.228361 12
    endloop
  endfacet
  facet normal -0.336888 -0.941545 -0
    outer loop
      vertex 2.12915 0.129178 12
      vertex 1.85195 0.228361 0
      vertex 2.12915 0.129178 0
    endloop
  endfacet
  facet normal 0.146512 0.989209 -0
    outer loop
      vertex 149.585 69.9424 0
      vertex 149.294 69.9855 12
      vertex 149.585 69.9424 12
    endloop
  endfacet
  facet normal 0.146512 0.989209 0
    outer loop
      vertex 149.294 69.9855 12
      vertex 149.585 69.9424 0
      vertex 149.294 69.9855 0
    endloop
  endfacet
  facet normal 0.998869 -0.0475571 0
    outer loop
      vertex 151.986 2.70595 12
      vertex 152 3 0
      vertex 152 3 12
    endloop
  endfacet
  facet normal 0.998869 -0.0475571 0
    outer loop
      vertex 152 3 0
      vertex 151.986 2.70595 12
      vertex 151.986 2.70595 0
    endloop
  endfacet
  facet normal -0.941545 0.336888 0
    outer loop
      vertex 0.129178 67.8708 0
      vertex 0.228361 68.148 12
      vertex 0.228361 68.148 0
    endloop
  endfacet
  facet normal -0.941545 0.336888 0
    outer loop
      vertex 0.228361 68.148 12
      vertex 0.129178 67.8708 0
      vertex 0.129178 67.8708 12
    endloop
  endfacet
  facet normal -0.740952 -0.671558 0
    outer loop
      vertex 0.878679 0.878679 0
      vertex 0.680968 1.09682 12
      vertex 0.680968 1.09682 0
    endloop
  endfacet
  facet normal -0.740952 -0.671558 0
    outer loop
      vertex 0.680968 1.09682 12
      vertex 0.878679 0.878679 0
      vertex 0.878679 0.878679 12
    endloop
  endfacet
  facet normal 0.740401 0.672166 0
    outer loop
      vertex 151.319 68.9032 12
      vertex 151.121 69.1213 0
      vertex 151.121 69.1213 12
    endloop
  endfacet
  facet normal 0.740401 0.672166 0
    outer loop
      vertex 151.121 69.1213 0
      vertex 151.319 68.9032 12
      vertex 151.319 68.9032 0
    endloop
  endfacet
  facet normal -0.24298 -0.970031 0
    outer loop
      vertex 2.12915 0.129178 0
      vertex 2.41473 0.0576439 12
      vertex 2.12915 0.129178 12
    endloop
  endfacet
  facet normal -0.24298 -0.970031 -0
    outer loop
      vertex 2.41473 0.0576439 12
      vertex 2.12915 0.129178 0
      vertex 2.41473 0.0576439 0
    endloop
  endfacet
  facet normal -0.243191 0.969978 0
    outer loop
      vertex 2.41473 69.9424 0
      vertex 2.12915 69.8708 12
      vertex 2.41473 69.9424 12
    endloop
  endfacet
  facet normal -0.243191 0.969978 0
    outer loop
      vertex 2.12915 69.8708 12
      vertex 2.41473 69.9424 0
      vertex 2.12915 69.8708 0
    endloop
  endfacet
  facet normal -0.857712 0.514131 0
    outer loop
      vertex 0.354236 68.4142 0
      vertex 0.50559 68.6667 12
      vertex 0.50559 68.6667 0
    endloop
  endfacet
  facet normal -0.857712 0.514131 0
    outer loop
      vertex 0.50559 68.6667 12
      vertex 0.354236 68.4142 0
      vertex 0.354236 68.4142 12
    endloop
  endfacet
  facet normal 0.803822 -0.59487 0
    outer loop
      vertex 151.319 1.09682 12
      vertex 151.494 1.33329 0
      vertex 151.494 1.33329 12
    endloop
  endfacet
  facet normal 0.803822 -0.59487 0
    outer loop
      vertex 151.494 1.33329 0
      vertex 151.319 1.09682 12
      vertex 151.319 1.09682 0
    endloop
  endfacet
  facet normal -0.427347 0.904088 0
    outer loop
      vertex 1.85195 69.7716 0
      vertex 1.58581 69.6458 12
      vertex 1.85195 69.7716 12
    endloop
  endfacet
  facet normal -0.427347 0.904088 0
    outer loop
      vertex 1.58581 69.6458 12
      vertex 1.85195 69.7716 0
      vertex 1.58581 69.6458 0
    endloop
  endfacet
  facet normal -0.803244 0.59565 0
    outer loop
      vertex 0.50559 68.6667 0
      vertex 0.680968 68.9032 12
      vertex 0.680968 68.9032 0
    endloop
  endfacet
  facet normal -0.803244 0.59565 0
    outer loop
      vertex 0.680968 68.9032 12
      vertex 0.50559 68.6667 0
      vertex 0.50559 68.6667 12
    endloop
  endfacet
  facet normal -0.803208 -0.595699 0
    outer loop
      vertex 0.680968 1.09682 0
      vertex 0.50559 1.33329 12
      vertex 0.50559 1.33329 0
    endloop
  endfacet
  facet normal -0.803208 -0.595699 0
    outer loop
      vertex 0.50559 1.33329 12
      vertex 0.680968 1.09682 0
      vertex 0.680968 1.09682 12
    endloop
  endfacet
  facet normal -0.595747 0.803172 0
    outer loop
      vertex 1.33329 69.4944 0
      vertex 1.09682 69.319 12
      vertex 1.33329 69.4944 12
    endloop
  endfacet
  facet normal -0.595747 0.803172 0
    outer loop
      vertex 1.09682 69.319 12
      vertex 1.33329 69.4944 0
      vertex 1.09682 69.319 0
    endloop
  endfacet
  facet normal -0.998796 0.0490578 0
    outer loop
      vertex 0 67 0
      vertex 0.0144453 67.2941 12
      vertex 0.0144453 67.2941 0
    endloop
  endfacet
  facet normal -0.998796 0.0490578 0
    outer loop
      vertex 0.0144453 67.2941 12
      vertex 0 67 0
      vertex 0 67 12
    endloop
  endfacet
  facet normal -0.146731 -0.989176 0
    outer loop
      vertex 2.41473 0.0576439 0
      vertex 2.70595 0.0144453 12
      vertex 2.41473 0.0576439 12
    endloop
  endfacet
  facet normal -0.146731 -0.989176 -0
    outer loop
      vertex 2.70595 0.0144453 12
      vertex 2.41473 0.0576439 0
      vertex 2.70595 0.0144453 0
    endloop
  endfacet
  facet normal 0.740464 -0.672096 0
    outer loop
      vertex 151.121 0.878679 12
      vertex 151.319 1.09682 0
      vertex 151.319 1.09682 12
    endloop
  endfacet
  facet normal 0.740464 -0.672096 0
    outer loop
      vertex 151.319 1.09682 0
      vertex 151.121 0.878679 12
      vertex 151.121 0.878679 0
    endloop
  endfacet
  facet normal -0.0492515 0.998786 0
    outer loop
      vertex 3 70 0
      vertex 2.70595 69.9855 12
      vertex 3 70 12
    endloop
  endfacet
  facet normal -0.0492515 0.998786 0
    outer loop
      vertex 2.70595 69.9855 12
      vertex 3 70 0
      vertex 2.70595 69.9855 0
    endloop
  endfacet
  facet normal -0.941545 -0.336888 0
    outer loop
      vertex 0.228361 1.85195 0
      vertex 0.129178 2.12915 12
      vertex 0.129178 2.12915 0
    endloop
  endfacet
  facet normal -0.941545 -0.336888 0
    outer loop
      vertex 0.129178 2.12915 12
      vertex 0.228361 1.85195 0
      vertex 0.228361 1.85195 12
    endloop
  endfacet
  facet normal 0 0 -1
    outer loop
      vertex 149 0 0
      vertex 152 3 0
      vertex 151.986 2.70595 0
    endloop
  endfacet
  facet normal -0 0 -1
    outer loop
      vertex 152 3 0
      vertex 149 0 0
      vertex 152 67 0
    endloop
  endfacet
  facet normal 0 0 -1
    outer loop
      vertex 149 0 0
      vertex 151.986 2.70595 0
      vertex 151.942 2.41473 0
    endloop
  endfacet
  facet normal 0 0 -1
    outer loop
      vertex 149 70 0
      vertex 152 67 0
      vertex 149 0 0
    endloop
  endfacet
  facet normal 0 0 -1
    outer loop
      vertex 149 0 0
      vertex 151.942 2.41473 0
      vertex 151.871 2.12915 0
    endloop
  endfacet
  facet normal 0 0 -1
    outer loop
      vertex 152 67 0
      vertex 149 70 0
      vertex 151.986 67.2941 0
    endloop
  endfacet
  facet normal 0 0 -1
    outer loop
      vertex 149 0 0
      vertex 151.871 2.12915 0
      vertex 151.772 1.85195 0
    endloop
  endfacet
  facet normal 0 0 -1
    outer loop
      vertex 151.986 67.2941 0
      vertex 149 70 0
      vertex 151.942 67.5853 0
    endloop
  endfacet
  facet normal 0 0 -1
    outer loop
      vertex 149 0 0
      vertex 151.772 1.85195 0
      vertex 151.646 1.58581 0
    endloop
  endfacet
  facet normal 0 0 -1
    outer loop
      vertex 151.942 67.5853 0
      vertex 149 70 0
      vertex 151.871 67.8708 0
    endloop
  endfacet
  facet normal 0 0 -1
    outer loop
      vertex 149 0 0
      vertex 151.646 1.58581 0
      vertex 151.494 1.33329 0
    endloop
  endfacet
  facet normal 0 0 -1
    outer loop
      vertex 151.871 67.8708 0
      vertex 149 70 0
      vertex 151.772 68.148 0
    endloop
  endfacet
  facet normal 0 0 -1
    outer loop
      vertex 149 0 0
      vertex 151.494 1.33329 0
      vertex 151.319 1.09682 0
    endloop
  endfacet
  facet normal 0 0 -1
    outer loop
      vertex 151.772 68.148 0
      vertex 149 70 0
      vertex 151.646 68.4142 0
    endloop
  endfacet
  facet normal 0 0 -1
    outer loop
      vertex 149 0 0
      vertex 151.319 1.09682 0
      vertex 151.121 0.878679 0
    endloop
  endfacet
  facet normal 0 0 -1
    outer loop
      vertex 151.646 68.4142 0
      vertex 149 70 0
      vertex 151.494 68.6667 0
    endloop
  endfacet
  facet normal 0 0 -1
    outer loop
      vertex 149 0 0
      vertex 151.121 0.878679 0
      vertex 150.903 0.680968 0
    endloop
  endfacet
  facet normal 0 0 -1
    outer loop
      vertex 151.494 68.6667 0
      vertex 149 70 0
      vertex 151.319 68.9032 0
    endloop
  endfacet
  facet normal 0 0 -1
    outer loop
      vertex 149 0 0
      vertex 150.903 0.680968 0
      vertex 150.667 0.50559 0
    endloop
  endfacet
  facet normal 0 0 -1
    outer loop
      vertex 151.319 68.9032 0
      vertex 149 70 0
      vertex 151.121 69.1213 0
    endloop
  endfacet
  facet normal 0 0 -1
    outer loop
      vertex 149 0 0
      vertex 150.667 0.50559 0
      vertex 150.414 0.354236 0
    endloop
  endfacet
  facet normal 0 0 -1
    outer loop
      vertex 151.121 69.1213 0
      vertex 149 70 0
      vertex 150.903 69.319 0
    endloop
  endfacet
  facet normal 0 0 -1
    outer loop
      vertex 149 0 0
      vertex 150.414 0.354236 0
      vertex 150.148 0.228361 0
    endloop
  endfacet
  facet normal 0 0 -1
    outer loop
      vertex 150.903 69.319 0
      vertex 149 70 0
      vertex 150.667 69.4944 0
    endloop
  endfacet
  facet normal 0 0 -1
    outer loop
      vertex 149 0 0
      vertex 150.148 0.228361 0
      vertex 149.871 0.129178 0
    endloop
  endfacet
  facet normal 0 0 -1
    outer loop
      vertex 150.667 69.4944 0
      vertex 149 70 0
      vertex 150.414 69.6458 0
    endloop
  endfacet
  facet normal 0 0 -1
    outer loop
      vertex 149 0 0
      vertex 149.871 0.129178 0
      vertex 149.585 0.0576439 0
    endloop
  endfacet
  facet normal 0 0 -1
    outer loop
      vertex 150.414 69.6458 0
      vertex 149 70 0
      vertex 150.148 69.7716 0
    endloop
  endfacet
  facet normal 0 0 -1
    outer loop
      vertex 149 0 0
      vertex 149.585 0.0576439 0
      vertex 149.294 0.0144453 0
    endloop
  endfacet
  facet normal 0 0 -1
    outer loop
      vertex 150.148 69.7716 0
      vertex 149 70 0
      vertex 149.871 69.8708 0
    endloop
  endfacet
  facet normal 0 0 -1
    outer loop
      vertex 149.871 69.8708 0
      vertex 149 70 0
      vertex 149.585 69.9424 0
    endloop
  endfacet
  facet normal 0 0 -1
    outer loop
      vertex 149.585 69.9424 0
      vertex 149 70 0
      vertex 149.294 69.9855 0
    endloop
  endfacet
  facet normal 0 0 -1
    outer loop
      vertex 3 0 0
      vertex 149 70 0
      vertex 149 0 0
    endloop
  endfacet
  facet normal 0 0 -1
    outer loop
      vertex 3 0 0
      vertex 3 70 0
      vertex 149 70 0
    endloop
  endfacet
  facet normal 0 0 -1
    outer loop
      vertex 0 3 0
      vertex 3 0 0
      vertex 2.70595 0.0144453 0
    endloop
  endfacet
  facet normal 0 0 -1
    outer loop
      vertex 3 0 0
      vertex 0 3 0
      vertex 3 70 0
    endloop
  endfacet
  facet normal 0 0 -1
    outer loop
      vertex 0 3 0
      vertex 2.70595 0.0144453 0
      vertex 2.41473 0.0576439 0
    endloop
  endfacet
  facet normal 0 0 -1
    outer loop
      vertex 0 67 0
      vertex 3 70 0
      vertex 0 3 0
    endloop
  endfacet
  facet normal 0 0 -1
    outer loop
      vertex 0 3 0
      vertex 2.41473 0.0576439 0
      vertex 2.12915 0.129178 0
    endloop
  endfacet
  facet normal 0 0 -1
    outer loop
      vertex 3 70 0
      vertex 0 67 0
      vertex 2.70595 69.9855 0
    endloop
  endfacet
  facet normal 0 0 -1
    outer loop
      vertex 0 3 0
      vertex 2.12915 0.129178 0
      vertex 1.85195 0.228361 0
    endloop
  endfacet
  facet normal 0 0 -1
    outer loop
      vertex 2.70595 69.9855 0
      vertex 0 67 0
      vertex 2.41473 69.9424 0
    endloop
  endfacet
  facet normal 0 0 -1
    outer loop
      vertex 0 3 0
      vertex 1.85195 0.228361 0
      vertex 1.58581 0.354236 0
    endloop
  endfacet
  facet normal 0 0 -1
    outer loop
      vertex 2.41473 69.9424 0
      vertex 0 67 0
      vertex 2.12915 69.8708 0
    endloop
  endfacet
  facet normal 0 0 -1
    outer loop
      vertex 0 3 0
      vertex 1.58581 0.354236 0
      vertex 1.33329 0.50559 0
    endloop
  endfacet
  facet normal 0 0 -1
    outer loop
      vertex 2.12915 69.8708 0
      vertex 0 67 0
      vertex 1.85195 69.7716 0
    endloop
  endfacet
  facet normal 0 0 -1
    outer loop
      vertex 0 3 0
      vertex 1.33329 0.50559 0
      vertex 1.09682 0.680968 0
    endloop
  endfacet
  facet normal 0 0 -1
    outer loop
      vertex 1.85195 69.7716 0
      vertex 0 67 0
      vertex 1.58581 69.6458 0
    endloop
  endfacet
  facet normal 0 0 -1
    outer loop
      vertex 0 3 0
      vertex 1.09682 0.680968 0
      vertex 0.878679 0.878679 0
    endloop
  endfacet
  facet normal 0 0 -1
    outer loop
      vertex 1.58581 69.6458 0
      vertex 0 67 0
      vertex 1.33329 69.4944 0
    endloop
  endfacet
  facet normal 0 0 -1
    outer loop
      vertex 0 3 0
      vertex 0.878679 0.878679 0
      vertex 0.680968 1.09682 0
    endloop
  endfacet
  facet normal 0 0 -1
    outer loop
      vertex 1.33329 69.4944 0
      vertex 0 67 0
      vertex 1.09682 69.319 0
    endloop
  endfacet
  facet normal 0 0 -1
    outer loop
      vertex 0 3 0
      vertex 0.680968 1.09682 0
      vertex 0.50559 1.33329 0
    endloop
  endfacet
  facet normal 0 0 -1
    outer loop
      vertex 1.09682 69.319 0
      vertex 0 67 0
      vertex 0.878679 69.1213 0
    endloop
  endfacet
  facet normal 0 0 -1
    outer loop
      vertex 0 3 0
      vertex 0.50559 1.33329 0
      vertex 0.354236 1.58581 0
    endloop
  endfacet
  facet normal 0 0 -1
    outer loop
      vertex 0.878679 69.1213 0
      vertex 0 67 0
      vertex 0.680968 68.9032 0
    endloop
  endfacet
  facet normal 0 0 -1
    outer loop
      vertex 0 3 0
      vertex 0.354236 1.58581 0
      vertex 0.228361 1.85195 0
    endloop
  endfacet
  facet normal 0 0 -1
    outer loop
      vertex 0.680968 68.9032 0
      vertex 0 67 0
      vertex 0.50559 68.6667 0
    endloop
  endfacet
  facet normal 0 0 -1
    outer loop
      vertex 0 3 0
      vertex 0.228361 1.85195 0
      vertex 0.129178 2.12915 0
    endloop
  endfacet
  facet normal 0 0 -1
    outer loop
      vertex 0.50559 68.6667 0
      vertex 0 67 0
      vertex 0.354236 68.4142 0
    endloop
  endfacet
  facet normal 0 0 -1
    outer loop
      vertex 0 3 0
      vertex 0.129178 2.12915 0
      vertex 0.0576439 2.41473 0
    endloop
  endfacet
  facet normal 0 0 -1
    outer loop
      vertex 0.354236 68.4142 0
      vertex 0 67 0
      vertex 0.228361 68.148 0
    endloop
  endfacet
  facet normal 0 0 -1
    outer loop
      vertex 0 3 0
      vertex 0.0576439 2.41473 0
      vertex 0.0144453 2.70595 0
    endloop
  endfacet
  facet normal 0 0 -1
    outer loop
      vertex 0.228361 68.148 0
      vertex 0 67 0
      vertex 0.129178 67.8708 0
    endloop
  endfacet
  facet normal 0 0 -1
    outer loop
      vertex 0.129178 67.8708 0
      vertex 0 67 0
      vertex 0.0576439 67.5853 0
    endloop
  endfacet
  facet normal 0 0 -1
    outer loop
      vertex 0.0576439 67.5853 0
      vertex 0 67 0
      vertex 0.0144453 67.2941 0
    endloop
  endfacet
  facet normal -0.85773 -0.514101 0
    outer loop
      vertex 0.50559 1.33329 0
      vertex 0.354236 1.58581 12
      vertex 0.354236 1.58581 0
    endloop
  endfacet
  facet normal -0.85773 -0.514101 0
    outer loop
      vertex 0.354236 1.58581 12
      vertex 0.50559 1.33329 0
      vertex 0.50559 1.33329 12
    endloop
  endfacet
  facet normal -0.427556 -0.903989 0
    outer loop
      vertex 1.58581 0.354236 0
      vertex 1.85195 0.228361 12
      vertex 1.58581 0.354236 12
    endloop
  endfacet
  facet normal -0.427556 -0.903989 -0
    outer loop
      vertex 1.85195 0.228361 12
      vertex 1.58581 0.354236 0
      vertex 1.85195 0.228361 0
    endloop
  endfacet
  facet normal 0.0490745 -0.998795 0
    outer loop
      vertex 149 0 0
      vertex 149.294 0.0144453 12
      vertex 149 0 12
    endloop
  endfacet
  facet normal 0.0490745 -0.998795 0
    outer loop
      vertex 149.294 0.0144453 12
      vertex 149 0 0
      vertex 149.294 0.0144453 0
    endloop
  endfacet
  facet normal 0.856762 -0.515713 0
    outer loop
      vertex 151.494 1.33329 12
      vertex 151.646 1.58581 0
      vertex 151.646 1.58581 12
    endloop
  endfacet
  facet normal 0.856762 -0.515713 0
    outer loop
      vertex 151.646 1.58581 0
      vertex 151.494 1.33329 12
      vertex 151.494 1.33329 0
    endloop
  endfacet
  facet normal 0.596512 0.802604 -0
    outer loop
      vertex 150.903 69.319 0
      vertex 150.667 69.4944 12
      vertex 150.903 69.319 12
    endloop
  endfacet
  facet normal 0.596512 0.802604 0
    outer loop
      vertex 150.667 69.4944 12
      vertex 150.903 69.319 0
      vertex 150.667 69.4944 0
    endloop
  endfacet
  facet normal 0.337103 -0.941468 0
    outer loop
      vertex 149.871 0.129178 0
      vertex 150.148 0.228361 12
      vertex 149.871 0.129178 12
    endloop
  endfacet
  facet normal 0.337103 -0.941468 0
    outer loop
      vertex 150.148 0.228361 12
      vertex 149.871 0.129178 0
      vertex 150.148 0.228361 0
    endloop
  endfacet
  facet normal 0.903825 -0.427902 0
    outer loop
      vertex 151.646 1.58581 12
      vertex 151.772 1.85195 0
      vertex 151.772 1.85195 12
    endloop
  endfacet
  facet normal 0.903825 -0.427902 0
    outer loop
      vertex 151.772 1.85195 0
      vertex 151.646 1.58581 12
      vertex 151.646 1.58581 0
    endloop
  endfacet
  facet normal 0.903862 0.427824 0
    outer loop
      vertex 151.772 68.148 12
      vertex 151.646 68.4142 0
      vertex 151.646 68.4142 12
    endloop
  endfacet
  facet normal 0.903862 0.427824 0
    outer loop
      vertex 151.646 68.4142 0
      vertex 151.772 68.148 12
      vertex 151.772 68.148 0
    endloop
  endfacet
  facet normal 0.337154 0.941449 -0
    outer loop
      vertex 150.148 69.7716 0
      vertex 149.871 69.8708 12
      vertex 150.148 69.7716 12
    endloop
  endfacet
  facet normal 0.337154 0.941449 0
    outer loop
      vertex 149.871 69.8708 12
      vertex 150.148 69.7716 0
      vertex 149.871 69.8708 0
    endloop
  endfacet
  facet normal -0.989175 0.146741 0
    outer loop
      vertex 0.0144453 67.2941 0
      vertex 0.0576439 67.5853 12
      vertex 0.0576439 67.5853 0
    endloop
  endfacet
  facet normal -0.989175 0.146741 0
    outer loop
      vertex 0.0576439 67.5853 12
      vertex 0.0144453 67.2941 0
      vertex 0.0144453 67.2941 12
    endloop
  endfacet
  facet normal -0.903989 -0.427556 0
    outer loop
      vertex 0.354236 1.58581 0
      vertex 0.228361 1.85195 12
      vertex 0.228361 1.85195 0
    endloop
  endfacet
  facet normal -0.903989 -0.427556 0
    outer loop
      vertex 0.228361 1.85195 12
      vertex 0.354236 1.58581 0
      vertex 0.354236 1.58581 12
    endloop
  endfacet
  facet normal -0.671558 -0.740952 0
    outer loop
      vertex 0.878679 0.878679 0
      vertex 1.09682 0.680968 12
      vertex 0.878679 0.878679 12
    endloop
  endfacet
  facet normal -0.671558 -0.740952 -0
    outer loop
      vertex 1.09682 0.680968 12
      vertex 0.878679 0.878679 0
      vertex 1.09682 0.680968 0
    endloop
  endfacet
  facet normal 0 0 1
    outer loop
      vertex 150 67 12
      vertex 152 67 12
      vertex 151.986 67.2941 12
    endloop
  endfacet
  facet normal 0 0 1
    outer loop
      vertex 152 67 12
      vertex 150 67 12
      vertex 152 3 12
    endloop
  endfacet
  facet normal 0 0 1
    outer loop
      vertex 149.995 67.098 12
      vertex 151.986 67.2941 12
      vertex 151.942 67.5853 12
    endloop
  endfacet
  facet normal 0 0 1
    outer loop
      vertex 150 3 12
      vertex 152 3 12
      vertex 150 67 12
    endloop
  endfacet
  facet normal 0 0 1
    outer loop
      vertex 149.981 67.1951 12
      vertex 151.942 67.5853 12
      vertex 151.871 67.8708 12
    endloop
  endfacet
  facet normal 0 0 1
    outer loop
      vertex 152 3 12
      vertex 150 3 12
      vertex 151.986 2.70595 12
    endloop
  endfacet
  facet normal 0 0 1
    outer loop
      vertex 149.957 67.2903 12
      vertex 151.871 67.8708 12
      vertex 151.772 68.148 12
    endloop
  endfacet
  facet normal -0 0 1
    outer loop
      vertex 149.995 2.90198 12
      vertex 151.986 2.70595 12
      vertex 150 3 12
    endloop
  endfacet
  facet normal 0 0 1
    outer loop
      vertex 149.924 67.3827 12
      vertex 151.772 68.148 12
      vertex 151.646 68.4142 12
    endloop
  endfacet
  facet normal 0 0 1
    outer loop
      vertex 151.986 2.70595 12
      vertex 149.995 2.90198 12
      vertex 151.942 2.41473 12
    endloop
  endfacet
  facet normal 0 0 1
    outer loop
      vertex 149.882 67.4714 12
      vertex 151.646 68.4142 12
      vertex 151.494 68.6667 12
    endloop
  endfacet
  facet normal -0 0 1
    outer loop
      vertex 149.981 2.80491 12
      vertex 151.942 2.41473 12
      vertex 149.995 2.90198 12
    endloop
  endfacet
  facet normal 0 0 1
    outer loop
      vertex 149.831 67.5556 12
      vertex 151.494 68.6667 12
      vertex 151.319 68.9032 12
    endloop
  endfacet
  facet normal 0 0 1
    outer loop
      vertex 151.942 2.41473 12
      vertex 149.981 2.80491 12
      vertex 151.871 2.12915 12
    endloop
  endfacet
  facet normal 0 0 1
    outer loop
      vertex 149.773 67.6344 12
      vertex 151.319 68.9032 12
      vertex 151.121 69.1213 12
    endloop
  endfacet
  facet normal -0 0 1
    outer loop
      vertex 149.957 2.70971 12
      vertex 151.871 2.12915 12
      vertex 149.981 2.80491 12
    endloop
  endfacet
  facet normal 0 0 1
    outer loop
      vertex 149.707 67.7071 12
      vertex 151.121 69.1213 12
      vertex 150.903 69.319 12
    endloop
  endfacet
  facet normal 0 0 1
    outer loop
      vertex 151.871 2.12915 12
      vertex 149.957 2.70971 12
      vertex 151.772 1.85195 12
    endloop
  endfacet
  facet normal 0 0 1
    outer loop
      vertex 149.634 67.773 12
      vertex 150.903 69.319 12
      vertex 150.667 69.4944 12
    endloop
  endfacet
  facet normal -0 0 1
    outer loop
      vertex 149.924 2.61732 12
      vertex 151.772 1.85195 12
      vertex 149.957 2.70971 12
    endloop
  endfacet
  facet normal 0 0 1
    outer loop
      vertex 149.556 67.8315 12
      vertex 150.667 69.4944 12
      vertex 150.414 69.6458 12
    endloop
  endfacet
  facet normal 0 0 1
    outer loop
      vertex 151.772 1.85195 12
      vertex 149.924 2.61732 12
      vertex 151.646 1.58581 12
    endloop
  endfacet
  facet normal 0 0 1
    outer loop
      vertex 149.471 67.8819 12
      vertex 150.414 69.6458 12
      vertex 150.148 69.7716 12
    endloop
  endfacet
  facet normal -0 0 1
    outer loop
      vertex 149.882 2.5286 12
      vertex 151.646 1.58581 12
      vertex 149.924 2.61732 12
    endloop
  endfacet
  facet normal 0 0 1
    outer loop
      vertex 151.646 1.58581 12
      vertex 149.882 2.5286 12
      vertex 151.494 1.33329 12
    endloop
  endfacet
  facet normal 0 0 1
    outer loop
      vertex 151.986 67.2941 12
      vertex 149.995 67.098 12
      vertex 150 67 12
    endloop
  endfacet
  facet normal 0 0 1
    outer loop
      vertex 151.942 67.5853 12
      vertex 149.981 67.1951 12
      vertex 149.995 67.098 12
    endloop
  endfacet
  facet normal 0 0 1
    outer loop
      vertex 151.871 67.8708 12
      vertex 149.957 67.2903 12
      vertex 149.981 67.1951 12
    endloop
  endfacet
  facet normal 0 0 1
    outer loop
      vertex 151.772 68.148 12
      vertex 149.924 67.3827 12
      vertex 149.957 67.2903 12
    endloop
  endfacet
  facet normal 0 0 1
    outer loop
      vertex 151.646 68.4142 12
      vertex 149.882 67.4714 12
      vertex 149.924 67.3827 12
    endloop
  endfacet
  facet normal 0 0 1
    outer loop
      vertex 149.383 67.9239 12
      vertex 150.148 69.7716 12
      vertex 149.871 69.8708 12
    endloop
  endfacet
  facet normal 0 0 1
    outer loop
      vertex 151.494 68.6667 12
      vertex 149.831 67.5556 12
      vertex 149.882 67.4714 12
    endloop
  endfacet
  facet normal 0 0 1
    outer loop
      vertex 151.319 68.9032 12
      vertex 149.773 67.6344 12
      vertex 149.831 67.5556 12
    endloop
  endfacet
  facet normal 0 0 1
    outer loop
      vertex 151.121 69.1213 12
      vertex 149.707 67.7071 12
      vertex 149.773 67.6344 12
    endloop
  endfacet
  facet normal 0 0 1
    outer loop
      vertex 150.903 69.319 12
      vertex 149.634 67.773 12
      vertex 149.707 67.7071 12
    endloop
  endfacet
  facet normal 0 0 1
    outer loop
      vertex 149.29 67.9569 12
      vertex 149.871 69.8708 12
      vertex 149.585 69.9424 12
    endloop
  endfacet
  facet normal 0 0 1
    outer loop
      vertex 150.667 69.4944 12
      vertex 149.556 67.8315 12
      vertex 149.634 67.773 12
    endloop
  endfacet
  facet normal 0 0 1
    outer loop
      vertex 150.414 69.6458 12
      vertex 149.471 67.8819 12
      vertex 149.556 67.8315 12
    endloop
  endfacet
  facet normal 0 0 1
    outer loop
      vertex 150.148 69.7716 12
      vertex 149.383 67.9239 12
      vertex 149.471 67.8819 12
    endloop
  endfacet
  facet normal 0 0 1
    outer loop
      vertex 149.195 67.9808 12
      vertex 149.585 69.9424 12
      vertex 149.294 69.9855 12
    endloop
  endfacet
  facet normal 0 0 1
    outer loop
      vertex 149.871 69.8708 12
      vertex 149.29 67.9569 12
      vertex 149.383 67.9239 12
    endloop
  endfacet
  facet normal 0 0 1
    outer loop
      vertex 149.585 69.9424 12
      vertex 149.195 67.9808 12
      vertex 149.29 67.9569 12
    endloop
  endfacet
  facet normal 0 0 1
    outer loop
      vertex 149.294 69.9855 12
      vertex 149.098 67.9952 12
      vertex 149.195 67.9808 12
    endloop
  endfacet
  facet normal 0 0 1
    outer loop
      vertex 149 70 12
      vertex 149.098 67.9952 12
      vertex 149.294 69.9855 12
    endloop
  endfacet
  facet normal 0 0 1
    outer loop
      vertex 149 70 12
      vertex 149 68 12
      vertex 149.098 67.9952 12
    endloop
  endfacet
  facet normal -0 0 1
    outer loop
      vertex 3 70 12
      vertex 149 68 12
      vertex 149 70 12
    endloop
  endfacet
  facet normal 0 0 1
    outer loop
      vertex 3 70 12
      vertex 3 68 12
      vertex 149 68 12
    endloop
  endfacet
  facet normal 0 0 1
    outer loop
      vertex 3 70 12
      vertex 2.90198 67.9952 12
      vertex 3 68 12
    endloop
  endfacet
  facet normal -0 0 1
    outer loop
      vertex 2.70595 69.9855 12
      vertex 2.90198 67.9952 12
      vertex 3 70 12
    endloop
  endfacet
  facet normal 0 0 1
    outer loop
      vertex 2.90198 67.9952 12
      vertex 2.70595 69.9855 12
      vertex 2.80491 67.9808 12
    endloop
  endfacet
  facet normal -0 0 1
    outer loop
      vertex 2.41473 69.9424 12
      vertex 2.80491 67.9808 12
      vertex 2.70595 69.9855 12
    endloop
  endfacet
  facet normal 0 0 1
    outer loop
      vertex 2.80491 67.9808 12
      vertex 2.41473 69.9424 12
      vertex 2.70971 67.9569 12
    endloop
  endfacet
  facet normal -0 0 1
    outer loop
      vertex 2.12915 69.8708 12
      vertex 2.70971 67.9569 12
      vertex 2.41473 69.9424 12
    endloop
  endfacet
  facet normal 0 0 1
    outer loop
      vertex 2.70971 67.9569 12
      vertex 2.12915 69.8708 12
      vertex 2.61732 67.9239 12
    endloop
  endfacet
  facet normal -0 0 1
    outer loop
      vertex 1.85195 69.7716 12
      vertex 2.61732 67.9239 12
      vertex 2.12915 69.8708 12
    endloop
  endfacet
  facet normal 0 0 1
    outer loop
      vertex 2.61732 67.9239 12
      vertex 1.85195 69.7716 12
      vertex 2.5286 67.8819 12
    endloop
  endfacet
  facet normal -0 0 1
    outer loop
      vertex 1.58581 69.6458 12
      vertex 2.5286 67.8819 12
      vertex 1.85195 69.7716 12
    endloop
  endfacet
  facet normal 0 0 1
    outer loop
      vertex 2.5286 67.8819 12
      vertex 1.58581 69.6458 12
      vertex 2.44443 67.8315 12
    endloop
  endfacet
  facet normal -0 0 1
    outer loop
      vertex 1.33329 69.4944 12
      vertex 2.44443 67.8315 12
      vertex 1.58581 69.6458 12
    endloop
  endfacet
  facet normal 0 0 1
    outer loop
      vertex 2.44443 67.8315 12
      vertex 1.33329 69.4944 12
      vertex 2.36561 67.773 12
    endloop
  endfacet
  facet normal -0 0 1
    outer loop
      vertex 1.09682 69.319 12
      vertex 2.36561 67.773 12
      vertex 1.33329 69.4944 12
    endloop
  endfacet
  facet normal 0 0 1
    outer loop
      vertex 2.36561 67.773 12
      vertex 1.09682 69.319 12
      vertex 2.29289 67.7071 12
    endloop
  endfacet
  facet normal -0 0 1
    outer loop
      vertex 0.878679 69.1213 12
      vertex 2.29289 67.7071 12
      vertex 1.09682 69.319 12
    endloop
  endfacet
  facet normal 0 0 1
    outer loop
      vertex 2.29289 67.7071 12
      vertex 0.878679 69.1213 12
      vertex 2.22699 67.6344 12
    endloop
  endfacet
  facet normal -0 0 1
    outer loop
      vertex 0.680968 68.9032 12
      vertex 2.22699 67.6344 12
      vertex 0.878679 69.1213 12
    endloop
  endfacet
  facet normal 0 0 1
    outer loop
      vertex 2.22699 67.6344 12
      vertex 0.680968 68.9032 12
      vertex 2.16853 67.5556 12
    endloop
  endfacet
  facet normal 0 0 1
    outer loop
      vertex 2.16853 67.5556 12
      vertex 0.50559 68.6667 12
      vertex 2.11808 67.4714 12
    endloop
  endfacet
  facet normal -0 0 1
    outer loop
      vertex 0.50559 68.6667 12
      vertex 2.16853 67.5556 12
      vertex 0.680968 68.9032 12
    endloop
  endfacet
  facet normal -0 0 1
    outer loop
      vertex 149.831 2.44443 12
      vertex 151.494 1.33329 12
      vertex 149.882 2.5286 12
    endloop
  endfacet
  facet normal 0 0 1
    outer loop
      vertex 151.494 1.33329 12
      vertex 149.831 2.44443 12
      vertex 151.319 1.09682 12
    endloop
  endfacet
  facet normal -0 0 1
    outer loop
      vertex 149.773 2.36561 12
      vertex 151.319 1.09682 12
      vertex 149.831 2.44443 12
    endloop
  endfacet
  facet normal 0 0 1
    outer loop
      vertex 151.319 1.09682 12
      vertex 149.773 2.36561 12
      vertex 151.121 0.878679 12
    endloop
  endfacet
  facet normal -0 0 1
    outer loop
      vertex 149.707 2.29289 12
      vertex 151.121 0.878679 12
      vertex 149.773 2.36561 12
    endloop
  endfacet
  facet normal 0 0 1
    outer loop
      vertex 151.121 0.878679 12
      vertex 149.707 2.29289 12
      vertex 150.903 0.680968 12
    endloop
  endfacet
  facet normal -0 0 1
    outer loop
      vertex 149.634 2.22699 12
      vertex 150.903 0.680968 12
      vertex 149.707 2.29289 12
    endloop
  endfacet
  facet normal 0 0 1
    outer loop
      vertex 150.903 0.680968 12
      vertex 149.634 2.22699 12
      vertex 150.667 0.50559 12
    endloop
  endfacet
  facet normal -0 0 1
    outer loop
      vertex 149.556 2.16853 12
      vertex 150.667 0.50559 12
      vertex 149.634 2.22699 12
    endloop
  endfacet
  facet normal 0 0 1
    outer loop
      vertex 150.667 0.50559 12
      vertex 149.556 2.16853 12
      vertex 150.414 0.354236 12
    endloop
  endfacet
  facet normal -0 0 1
    outer loop
      vertex 149.471 2.11808 12
      vertex 150.414 0.354236 12
      vertex 149.556 2.16853 12
    endloop
  endfacet
  facet normal 0 0 1
    outer loop
      vertex 150.414 0.354236 12
      vertex 149.471 2.11808 12
      vertex 150.148 0.228361 12
    endloop
  endfacet
  facet normal -0 0 1
    outer loop
      vertex 149.383 2.07612 12
      vertex 150.148 0.228361 12
      vertex 149.471 2.11808 12
    endloop
  endfacet
  facet normal 0 0 1
    outer loop
      vertex 150.148 0.228361 12
      vertex 149.383 2.07612 12
      vertex 149.871 0.129178 12
    endloop
  endfacet
  facet normal -0 0 1
    outer loop
      vertex 149.29 2.04306 12
      vertex 149.871 0.129178 12
      vertex 149.383 2.07612 12
    endloop
  endfacet
  facet normal 0 0 1
    outer loop
      vertex 149.871 0.129178 12
      vertex 149.29 2.04306 12
      vertex 149.585 0.0576439 12
    endloop
  endfacet
  facet normal -0 0 1
    outer loop
      vertex 149.195 2.01921 12
      vertex 149.585 0.0576439 12
      vertex 149.29 2.04306 12
    endloop
  endfacet
  facet normal 0 0 1
    outer loop
      vertex 149.585 0.0576439 12
      vertex 149.195 2.01921 12
      vertex 149.294 0.0144453 12
    endloop
  endfacet
  facet normal -0 0 1
    outer loop
      vertex 149.098 2.00482 12
      vertex 149.294 0.0144453 12
      vertex 149.195 2.01921 12
    endloop
  endfacet
  facet normal -0 0 1
    outer loop
      vertex 149 2 12
      vertex 149.294 0.0144453 12
      vertex 149.098 2.00482 12
    endloop
  endfacet
  facet normal 0 0 1
    outer loop
      vertex 149 2 12
      vertex 149 0 12
      vertex 149.294 0.0144453 12
    endloop
  endfacet
  facet normal -0 0 1
    outer loop
      vertex 3 2 12
      vertex 149 0 12
      vertex 149 2 12
    endloop
  endfacet
  facet normal 0 0 1
    outer loop
      vertex 3 2 12
      vertex 3 0 12
      vertex 149 0 12
    endloop
  endfacet
  facet normal 0 0 1
    outer loop
      vertex 2.90198 2.00482 12
      vertex 3 0 12
      vertex 3 2 12
    endloop
  endfacet
  facet normal 0 0 1
    outer loop
      vertex 2.70595 0.0144453 12
      vertex 2.90198 2.00482 12
      vertex 2.80491 2.01921 12
    endloop
  endfacet
  facet normal 0 0 1
    outer loop
      vertex 2.41473 0.0576439 12
      vertex 2.80491 2.01921 12
      vertex 2.70971 2.04306 12
    endloop
  endfacet
  facet normal 0 0 1
    outer loop
      vertex 2.90198 2.00482 12
      vertex 2.70595 0.0144453 12
      vertex 3 0 12
    endloop
  endfacet
  facet normal 0 0 1
    outer loop
      vertex 2.12915 0.129178 12
      vertex 2.70971 2.04306 12
      vertex 2.61732 2.07612 12
    endloop
  endfacet
  facet normal 0 0 1
    outer loop
      vertex 1.85195 0.228361 12
      vertex 2.61732 2.07612 12
      vertex 2.5286 2.11808 12
    endloop
  endfacet
  facet normal 0 0 1
    outer loop
      vertex 1.58581 0.354236 12
      vertex 2.5286 2.11808 12
      vertex 2.44443 2.16853 12
    endloop
  endfacet
  facet normal 0 0 1
    outer loop
      vertex 2.80491 2.01921 12
      vertex 2.41473 0.0576439 12
      vertex 2.70595 0.0144453 12
    endloop
  endfacet
  facet normal 0 0 1
    outer loop
      vertex 1.33329 0.50559 12
      vertex 2.44443 2.16853 12
      vertex 2.36561 2.22699 12
    endloop
  endfacet
  facet normal 0 0 1
    outer loop
      vertex 1.09682 0.680968 12
      vertex 2.36561 2.22699 12
      vertex 2.29289 2.29289 12
    endloop
  endfacet
  facet normal 0 0 1
    outer loop
      vertex 0.878679 0.878679 12
      vertex 2.29289 2.29289 12
      vertex 2.22699 2.36561 12
    endloop
  endfacet
  facet normal 0 0 1
    outer loop
      vertex 0.680968 1.09682 12
      vertex 2.22699 2.36561 12
      vertex 2.16853 2.44443 12
    endloop
  endfacet
  facet normal 0 0 1
    outer loop
      vertex 2.70971 2.04306 12
      vertex 2.12915 0.129178 12
      vertex 2.41473 0.0576439 12
    endloop
  endfacet
  facet normal 0 0 1
    outer loop
      vertex 0.50559 1.33329 12
      vertex 2.16853 2.44443 12
      vertex 2.11808 2.5286 12
    endloop
  endfacet
  facet normal 0 0 1
    outer loop
      vertex 0.354236 1.58581 12
      vertex 2.11808 2.5286 12
      vertex 2.07612 2.61732 12
    endloop
  endfacet
  facet normal 0 0 1
    outer loop
      vertex 0.228361 1.85195 12
      vertex 2.07612 2.61732 12
      vertex 2.04306 2.70971 12
    endloop
  endfacet
  facet normal 0 0 1
    outer loop
      vertex 0.129178 2.12915 12
      vertex 2.04306 2.70971 12
      vertex 2.01921 2.80491 12
    endloop
  endfacet
  facet normal 0 0 1
    outer loop
      vertex 0.0576439 2.41473 12
      vertex 2.01921 2.80491 12
      vertex 2.00482 2.90198 12
    endloop
  endfacet
  facet normal 0 0 1
    outer loop
      vertex 0.0144453 2.70595 12
      vertex 2.00482 2.90198 12
      vertex 2 3 12
    endloop
  endfacet
  facet normal 0 0 1
    outer loop
      vertex 2.61732 2.07612 12
      vertex 1.85195 0.228361 12
      vertex 2.12915 0.129178 12
    endloop
  endfacet
  facet normal 0 0 1
    outer loop
      vertex 2 67 12
      vertex 0 67 12
      vertex 2 3 12
    endloop
  endfacet
  facet normal -0 0 1
    outer loop
      vertex 0.354236 68.4142 12
      vertex 2.11808 67.4714 12
      vertex 0.50559 68.6667 12
    endloop
  endfacet
  facet normal 0 0 1
    outer loop
      vertex 0 3 12
      vertex 2 3 12
      vertex 0 67 12
    endloop
  endfacet
  facet normal 0 0 1
    outer loop
      vertex 2.11808 67.4714 12
      vertex 0.354236 68.4142 12
      vertex 2.07612 67.3827 12
    endloop
  endfacet
  facet normal 0 -0 1
    outer loop
      vertex 0.0144453 2.70595 12
      vertex 2 3 12
      vertex 0 3 12
    endloop
  endfacet
  facet normal -0 0 1
    outer loop
      vertex 0.228361 68.148 12
      vertex 2.07612 67.3827 12
      vertex 0.354236 68.4142 12
    endloop
  endfacet
  facet normal 0 0 1
    outer loop
      vertex 2.5286 2.11808 12
      vertex 1.58581 0.354236 12
      vertex 1.85195 0.228361 12
    endloop
  endfacet
  facet normal 0 0 1
    outer loop
      vertex 2.07612 67.3827 12
      vertex 0.228361 68.148 12
      vertex 2.04306 67.2903 12
    endloop
  endfacet
  facet normal 0 0 1
    outer loop
      vertex 2.44443 2.16853 12
      vertex 1.33329 0.50559 12
      vertex 1.58581 0.354236 12
    endloop
  endfacet
  facet normal -0 0 1
    outer loop
      vertex 0.129178 67.8708 12
      vertex 2.04306 67.2903 12
      vertex 0.228361 68.148 12
    endloop
  endfacet
  facet normal 0 0 1
    outer loop
      vertex 2.36561 2.22699 12
      vertex 1.09682 0.680968 12
      vertex 1.33329 0.50559 12
    endloop
  endfacet
  facet normal 0 0 1
    outer loop
      vertex 2.04306 67.2903 12
      vertex 0.129178 67.8708 12
      vertex 2.01921 67.1951 12
    endloop
  endfacet
  facet normal 0 0 1
    outer loop
      vertex 2.29289 2.29289 12
      vertex 0.878679 0.878679 12
      vertex 1.09682 0.680968 12
    endloop
  endfacet
  facet normal -0 0 1
    outer loop
      vertex 0.0576439 67.5853 12
      vertex 2.01921 67.1951 12
      vertex 0.129178 67.8708 12
    endloop
  endfacet
  facet normal 0 0 1
    outer loop
      vertex 2.22699 2.36561 12
      vertex 0.680968 1.09682 12
      vertex 0.878679 0.878679 12
    endloop
  endfacet
  facet normal 0 0 1
    outer loop
      vertex 2.01921 67.1951 12
      vertex 0.0576439 67.5853 12
      vertex 2.00482 67.098 12
    endloop
  endfacet
  facet normal 0 0 1
    outer loop
      vertex 2.16853 2.44443 12
      vertex 0.50559 1.33329 12
      vertex 0.680968 1.09682 12
    endloop
  endfacet
  facet normal -0 0 1
    outer loop
      vertex 0.0144453 67.2941 12
      vertex 2.00482 67.098 12
      vertex 0.0576439 67.5853 12
    endloop
  endfacet
  facet normal 0 0 1
    outer loop
      vertex 2.11808 2.5286 12
      vertex 0.354236 1.58581 12
      vertex 0.50559 1.33329 12
    endloop
  endfacet
  facet normal 0 0 1
    outer loop
      vertex 2.00482 67.098 12
      vertex 0.0144453 67.2941 12
      vertex 2 67 12
    endloop
  endfacet
  facet normal 0 0 1
    outer loop
      vertex 2.07612 2.61732 12
      vertex 0.228361 1.85195 12
      vertex 0.354236 1.58581 12
    endloop
  endfacet
  facet normal 0 0 1
    outer loop
      vertex 2 67 12
      vertex 0.0144453 67.2941 12
      vertex 0 67 12
    endloop
  endfacet
  facet normal 0 0 1
    outer loop
      vertex 2.04306 2.70971 12
      vertex 0.129178 2.12915 12
      vertex 0.228361 1.85195 12
    endloop
  endfacet
  facet normal 0 0 1
    outer loop
      vertex 2.01921 2.80491 12
      vertex 0.0576439 2.41473 12
      vertex 0.129178 2.12915 12
    endloop
  endfacet
  facet normal 0 0 1
    outer loop
      vertex 2.00482 2.90198 12
      vertex 0.0144453 2.70595 12
      vertex 0.0576439 2.41473 12
    endloop
  endfacet
  facet normal 0.98919 0.146641 0
    outer loop
      vertex 2.01921 2.80491 12
      vertex 2.00482 2.90198 2
      vertex 2.00482 2.90198 12
    endloop
  endfacet
  facet normal 0.98919 0.146641 0
    outer loop
      vertex 2.00482 2.90198 2
      vertex 2.01921 2.80491 12
      vertex 2.01921 2.80491 2
    endloop
  endfacet
  facet normal 0.998793 0.0491143 0
    outer loop
      vertex 2.00482 2.90198 12
      vertex 2 3 2
      vertex 2 3 12
    endloop
  endfacet
  facet normal 0.998793 0.0491143 0
    outer loop
      vertex 2 3 2
      vertex 2.00482 2.90198 12
      vertex 2.00482 2.90198 2
    endloop
  endfacet
  facet normal 0.740908 -0.671607 0
    outer loop
      vertex 2.22699 67.6344 12
      vertex 2.29289 67.7071 2
      vertex 2.29289 67.7071 12
    endloop
  endfacet
  facet normal 0.740908 -0.671607 0
    outer loop
      vertex 2.29289 67.7071 2
      vertex 2.22699 67.6344 12
      vertex 2.22699 67.6344 2
    endloop
  endfacet
  facet normal -0.670088 -0.742282 0
    outer loop
      vertex 149.634 67.773 2
      vertex 149.707 67.7071 12
      vertex 149.634 67.773 12
    endloop
  endfacet
  facet normal -0.670088 -0.742282 -0
    outer loop
      vertex 149.707 67.7071 12
      vertex 149.634 67.773 2
      vertex 149.707 67.7071 2
    endloop
  endfacet
  facet normal -0.941742 -0.336336 0
    outer loop
      vertex 149.957 67.2903 2
      vertex 149.924 67.3827 12
      vertex 149.924 67.3827 2
    endloop
  endfacet
  facet normal -0.941742 -0.336336 0
    outer loop
      vertex 149.924 67.3827 12
      vertex 149.957 67.2903 2
      vertex 149.957 67.2903 12
    endloop
  endfacet
  facet normal -1 0 0
    outer loop
      vertex 150 3 2
      vertex 150 67 12
      vertex 150 67 2
    endloop
  endfacet
  facet normal -1 -0 0
    outer loop
      vertex 150 67 12
      vertex 150 3 2
      vertex 150 3 12
    endloop
  endfacet
  facet normal 0 -1 0
    outer loop
      vertex 3 68 2
      vertex 149 68 12
      vertex 3 68 12
    endloop
  endfacet
  facet normal 0 -1 -0
    outer loop
      vertex 149 68 12
      vertex 3 68 2
      vertex 149 68 2
    endloop
  endfacet
  facet normal -0.510398 0.859938 0
    outer loop
      vertex 149.556 2.16853 2
      vertex 149.471 2.11808 12
      vertex 149.556 2.16853 12
    endloop
  endfacet
  facet normal -0.510398 0.859938 0
    outer loop
      vertex 149.471 2.11808 12
      vertex 149.556 2.16853 2
      vertex 149.471 2.11808 2
    endloop
  endfacet
  facet normal 0.903958 -0.427622 0
    outer loop
      vertex 2.07612 67.3827 12
      vertex 2.11808 67.4714 2
      vertex 2.11808 67.4714 12
    endloop
  endfacet
  facet normal 0.903958 -0.427622 0
    outer loop
      vertex 2.11808 67.4714 2
      vertex 2.07612 67.3827 12
      vertex 2.07612 67.3827 2
    endloop
  endfacet
  facet normal 1 -0 0
    outer loop
      vertex 2 3 12
      vertex 2 67 2
      vertex 2 67 12
    endloop
  endfacet
  facet normal 1 0 0
    outer loop
      vertex 2 67 2
      vertex 2 3 12
      vertex 2 3 2
    endloop
  endfacet
  facet normal -0.855334 -0.518077 0
    outer loop
      vertex 149.882 67.4714 2
      vertex 149.831 67.5556 12
      vertex 149.831 67.5556 2
    endloop
  endfacet
  facet normal -0.855334 -0.518077 0
    outer loop
      vertex 149.831 67.5556 12
      vertex 149.882 67.4714 2
      vertex 149.882 67.4714 12
    endloop
  endfacet
  facet normal 0 1 0
    outer loop
      vertex 149 2 12
      vertex 69 2 10
      vertex 3 2 12
    endloop
  endfacet
  facet normal 0 1 0
    outer loop
      vertex 149 2 12
      vertex 69 2 4
      vertex 69 2 10
    endloop
  endfacet
  facet normal 0 1 0
    outer loop
      vertex 3 2 2
      vertex 69 2 4
      vertex 149 2 2
    endloop
  endfacet
  facet normal 0 1 -0
    outer loop
      vertex 149 2 2
      vertex 69 2 4
      vertex 149 2 12
    endloop
  endfacet
  facet normal 0 1 -0
    outer loop
      vertex 45 2 10
      vertex 3 2 12
      vertex 69 2 10
    endloop
  endfacet
  facet normal 0 1 -0
    outer loop
      vertex 45 2 4
      vertex 3 2 12
      vertex 45 2 10
    endloop
  endfacet
  facet normal 0 1 0
    outer loop
      vertex 45 2 4
      vertex 3 2 2
      vertex 3 2 12
    endloop
  endfacet
  facet normal 0 1 0
    outer loop
      vertex 69 2 4
      vertex 3 2 2
      vertex 45 2 4
    endloop
  endfacet
  facet normal -0.805436 0.592683 0
    outer loop
      vertex 149.773 2.36561 2
      vertex 149.831 2.44443 12
      vertex 149.831 2.44443 2
    endloop
  endfacet
  facet normal -0.805436 0.592683 0
    outer loop
      vertex 149.831 2.44443 12
      vertex 149.773 2.36561 2
      vertex 149.773 2.36561 12
    endloop
  endfacet
  facet normal -0.670088 0.742282 0
    outer loop
      vertex 149.707 2.29289 2
      vertex 149.634 2.22699 12
      vertex 149.707 2.29289 12
    endloop
  endfacet
  facet normal -0.670088 0.742282 0
    outer loop
      vertex 149.634 2.22699 12
      vertex 149.707 2.29289 2
      vertex 149.634 2.22699 2
    endloop
  endfacet
  facet normal -0.969661 -0.244452 0
    outer loop
      vertex 149.981 67.1951 2
      vertex 149.957 67.2903 12
      vertex 149.957 67.2903 2
    endloop
  endfacet
  facet normal -0.969661 -0.244452 0
    outer loop
      vertex 149.957 67.2903 12
      vertex 149.981 67.1951 2
      vertex 149.981 67.1951 12
    endloop
  endfacet
  facet normal -0.969661 0.244452 0
    outer loop
      vertex 149.957 2.70971 2
      vertex 149.981 2.80491 12
      vertex 149.981 2.80491 2
    endloop
  endfacet
  facet normal -0.969661 0.244452 0
    outer loop
      vertex 149.981 2.80491 12
      vertex 149.957 2.70971 2
      vertex 149.957 2.70971 12
    endloop
  endfacet
  facet normal 0.903995 0.427543 0
    outer loop
      vertex 2.11808 2.5286 12
      vertex 2.07612 2.61732 2
      vertex 2.07612 2.61732 12
    endloop
  endfacet
  facet normal 0.903995 0.427543 0
    outer loop
      vertex 2.07612 2.61732 2
      vertex 2.11808 2.5286 12
      vertex 2.11808 2.5286 2
    endloop
  endfacet
  facet normal 0.857807 -0.513971 0
    outer loop
      vertex 2.11808 67.4714 12
      vertex 2.16853 67.5556 2
      vertex 2.16853 67.5556 12
    endloop
  endfacet
  facet normal 0.857807 -0.513971 0
    outer loop
      vertex 2.16853 67.5556 2
      vertex 2.11808 67.4714 12
      vertex 2.11808 67.4714 2
    endloop
  endfacet
  facet normal 0.989196 -0.146597 0
    outer loop
      vertex 2.00482 67.098 12
      vertex 2.01921 67.1951 2
      vertex 2.01921 67.1951 12
    endloop
  endfacet
  facet normal 0.989196 -0.146597 0
    outer loop
      vertex 2.01921 67.1951 2
      vertex 2.00482 67.098 12
      vertex 2.00482 67.098 2
    endloop
  endfacet
  facet normal -0.0491243 0.998793 0
    outer loop
      vertex 149.098 2.00482 2
      vertex 149 2 12
      vertex 149.098 2.00482 12
    endloop
  endfacet
  facet normal -0.0491243 0.998793 0
    outer loop
      vertex 149 2 12
      vertex 149.098 2.00482 2
      vertex 149 2 2
    endloop
  endfacet
  facet normal 0.513731 -0.857951 0
    outer loop
      vertex 2.44443 67.8315 2
      vertex 2.5286 67.8819 12
      vertex 2.44443 67.8315 12
    endloop
  endfacet
  facet normal 0.513731 -0.857951 0
    outer loop
      vertex 2.5286 67.8819 12
      vertex 2.44443 67.8315 2
      vertex 2.5286 67.8819 2
    endloop
  endfacet
  facet normal 0.427876 -0.903837 0
    outer loop
      vertex 2.5286 67.8819 2
      vertex 2.61732 67.9239 12
      vertex 2.5286 67.8819 12
    endloop
  endfacet
  facet normal 0.427876 -0.903837 0
    outer loop
      vertex 2.61732 67.9239 12
      vertex 2.5286 67.8819 2
      vertex 2.61732 67.9239 2
    endloop
  endfacet
  facet normal -0.998701 -0.0509541 0
    outer loop
      vertex 150 67 2
      vertex 149.995 67.098 12
      vertex 149.995 67.098 2
    endloop
  endfacet
  facet normal -0.998701 -0.0509541 0
    outer loop
      vertex 149.995 67.098 12
      vertex 150 67 2
      vertex 150 67 12
    endloop
  endfacet
  facet normal 0.243494 -0.969902 0
    outer loop
      vertex 2.70971 67.9569 2
      vertex 2.80491 67.9808 12
      vertex 2.70971 67.9569 12
    endloop
  endfacet
  facet normal 0.243494 -0.969902 0
    outer loop
      vertex 2.80491 67.9808 12
      vertex 2.70971 67.9569 2
      vertex 2.80491 67.9808 2
    endloop
  endfacet
  facet normal -0.146745 0.989174 0
    outer loop
      vertex 149.195 2.01921 2
      vertex 149.098 2.00482 12
      vertex 149.195 2.01921 12
    endloop
  endfacet
  facet normal -0.146745 0.989174 0
    outer loop
      vertex 149.098 2.00482 12
      vertex 149.195 2.01921 2
      vertex 149.098 2.00482 2
    endloop
  endfacet
  facet normal -0.805364 -0.592781 0
    outer loop
      vertex 149.831 67.5556 2
      vertex 149.773 67.6344 12
      vertex 149.773 67.6344 2
    endloop
  endfacet
  facet normal -0.805364 -0.592781 0
    outer loop
      vertex 149.773 67.6344 12
      vertex 149.831 67.5556 2
      vertex 149.831 67.5556 12
    endloop
  endfacet
  facet normal 0.857727 0.514106 0
    outer loop
      vertex 2.16853 2.44443 12
      vertex 2.11808 2.5286 2
      vertex 2.11808 2.5286 12
    endloop
  endfacet
  facet normal 0.857727 0.514106 0
    outer loop
      vertex 2.11808 2.5286 2
      vertex 2.16853 2.44443 12
      vertex 2.16853 2.44443 2
    endloop
  endfacet
  facet normal 0.998793 -0.0491243 0
    outer loop
      vertex 2 67 12
      vertex 2.00482 67.098 2
      vertex 2.00482 67.098 12
    endloop
  endfacet
  facet normal 0.998793 -0.0491243 0
    outer loop
      vertex 2.00482 67.098 2
      vertex 2 67 12
      vertex 2 67 2
    endloop
  endfacet
  facet normal -0.243496 0.969902 0
    outer loop
      vertex 149.29 2.04306 2
      vertex 149.195 2.01921 12
      vertex 149.29 2.04306 12
    endloop
  endfacet
  facet normal -0.243496 0.969902 0
    outer loop
      vertex 149.195 2.01921 12
      vertex 149.29 2.04306 2
      vertex 149.195 2.01921 2
    endloop
  endfacet
  facet normal 0.671505 0.741 -0
    outer loop
      vertex 2.36561 2.22699 2
      vertex 2.29289 2.29289 12
      vertex 2.36561 2.22699 12
    endloop
  endfacet
  facet normal 0.671505 0.741 0
    outer loop
      vertex 2.29289 2.29289 12
      vertex 2.36561 2.22699 2
      vertex 2.29289 2.29289 2
    endloop
  endfacet
  facet normal 0.803192 0.59572 0
    outer loop
      vertex 2.22699 2.36561 12
      vertex 2.16853 2.44443 2
      vertex 2.16853 2.44443 12
    endloop
  endfacet
  facet normal 0.803192 0.59572 0
    outer loop
      vertex 2.16853 2.44443 2
      vertex 2.22699 2.36561 12
      vertex 2.22699 2.36561 2
    endloop
  endfacet
  facet normal -0.43073 -0.902481 0
    outer loop
      vertex 149.383 67.9239 2
      vertex 149.471 67.8819 12
      vertex 149.383 67.9239 12
    endloop
  endfacet
  facet normal -0.43073 -0.902481 -0
    outer loop
      vertex 149.471 67.8819 12
      vertex 149.383 67.9239 2
      vertex 149.471 67.8819 2
    endloop
  endfacet
  facet normal -0.989765 -0.142706 0
    outer loop
      vertex 149.995 67.098 2
      vertex 149.981 67.1951 12
      vertex 149.981 67.1951 2
    endloop
  endfacet
  facet normal -0.989765 -0.142706 0
    outer loop
      vertex 149.981 67.1951 12
      vertex 149.995 67.098 2
      vertex 149.995 67.098 12
    endloop
  endfacet
  facet normal 0.595983 -0.802997 0
    outer loop
      vertex 2.36561 67.773 2
      vertex 2.44443 67.8315 12
      vertex 2.36561 67.773 12
    endloop
  endfacet
  facet normal 0.595983 -0.802997 0
    outer loop
      vertex 2.44443 67.8315 12
      vertex 2.36561 67.773 2
      vertex 2.44443 67.8315 2
    endloop
  endfacet
  facet normal 0.671505 -0.741 0
    outer loop
      vertex 2.29289 67.7071 2
      vertex 2.36561 67.773 12
      vertex 2.29289 67.7071 12
    endloop
  endfacet
  facet normal 0.671505 -0.741 0
    outer loop
      vertex 2.36561 67.773 12
      vertex 2.29289 67.7071 2
      vertex 2.36561 67.773 2
    endloop
  endfacet
  facet normal -0.94173 0.336369 0
    outer loop
      vertex 149.924 2.61732 2
      vertex 149.957 2.70971 12
      vertex 149.957 2.70971 2
    endloop
  endfacet
  facet normal -0.94173 0.336369 0
    outer loop
      vertex 149.957 2.70971 12
      vertex 149.924 2.61732 2
      vertex 149.924 2.61732 12
    endloop
  endfacet
  facet normal -0.0489209 -0.998803 0
    outer loop
      vertex 149 68 2
      vertex 149.098 67.9952 12
      vertex 149 68 12
    endloop
  endfacet
  facet normal -0.0489209 -0.998803 -0
    outer loop
      vertex 149.098 67.9952 12
      vertex 149 68 2
      vertex 149.098 67.9952 2
    endloop
  endfacet
  facet normal 0.970023 0.243015 0
    outer loop
      vertex 2.04306 2.70971 12
      vertex 2.01921 2.80491 2
      vertex 2.01921 2.80491 12
    endloop
  endfacet
  facet normal 0.970023 0.243015 0
    outer loop
      vertex 2.01921 2.80491 2
      vertex 2.04306 2.70971 12
      vertex 2.04306 2.70971 2
    endloop
  endfacet
  facet normal -0.989759 0.142749 0
    outer loop
      vertex 149.981 2.80491 2
      vertex 149.995 2.90198 12
      vertex 149.995 2.90198 2
    endloop
  endfacet
  facet normal -0.989759 0.142749 0
    outer loop
      vertex 149.995 2.90198 12
      vertex 149.981 2.80491 2
      vertex 149.981 2.80491 12
    endloop
  endfacet
  facet normal 0.514106 0.857727 -0
    outer loop
      vertex 2.5286 2.11808 2
      vertex 2.44443 2.16853 12
      vertex 2.5286 2.11808 12
    endloop
  endfacet
  facet normal 0.514106 0.857727 0
    outer loop
      vertex 2.44443 2.16853 12
      vertex 2.5286 2.11808 2
      vertex 2.44443 2.16853 2
    endloop
  endfacet
  facet normal 0.970023 -0.243015 0
    outer loop
      vertex 2.01921 67.1951 12
      vertex 2.04306 67.2903 2
      vertex 2.04306 67.2903 12
    endloop
  endfacet
  facet normal 0.970023 -0.243015 0
    outer loop
      vertex 2.04306 67.2903 2
      vertex 2.01921 67.1951 12
      vertex 2.01921 67.1951 2
    endloop
  endfacet
  facet normal -0.243977 -0.969781 0
    outer loop
      vertex 149.195 67.9808 2
      vertex 149.29 67.9569 12
      vertex 149.195 67.9808 12
    endloop
  endfacet
  facet normal -0.243977 -0.969781 -0
    outer loop
      vertex 149.29 67.9569 12
      vertex 149.195 67.9808 2
      vertex 149.29 67.9569 2
    endloop
  endfacet
  facet normal -0.9038 -0.427955 0
    outer loop
      vertex 149.924 67.3827 2
      vertex 149.882 67.4714 12
      vertex 149.882 67.4714 2
    endloop
  endfacet
  facet normal -0.9038 -0.427955 0
    outer loop
      vertex 149.882 67.4714 12
      vertex 149.924 67.3827 2
      vertex 149.924 67.3827 12
    endloop
  endfacet
  facet normal 0.048911 -0.998803 0
    outer loop
      vertex 2.90198 67.9952 2
      vertex 3 68 12
      vertex 2.90198 67.9952 12
    endloop
  endfacet
  facet normal 0.048911 -0.998803 0
    outer loop
      vertex 3 68 12
      vertex 2.90198 67.9952 2
      vertex 3 68 2
    endloop
  endfacet
  facet normal -0.998702 0.0509438 0
    outer loop
      vertex 149.995 2.90198 2
      vertex 150 3 12
      vertex 150 3 2
    endloop
  endfacet
  facet normal -0.998702 0.0509438 0
    outer loop
      vertex 150 3 12
      vertex 149.995 2.90198 2
      vertex 149.995 2.90198 12
    endloop
  endfacet
  facet normal -0.6 -0.8 0
    outer loop
      vertex 149.556 67.8315 2
      vertex 149.634 67.773 12
      vertex 149.556 67.8315 12
    endloop
  endfacet
  facet normal -0.6 -0.8 -0
    outer loop
      vertex 149.634 67.773 12
      vertex 149.556 67.8315 2
      vertex 149.634 67.773 2
    endloop
  endfacet
  facet normal 0.427543 0.903995 -0
    outer loop
      vertex 2.61732 2.07612 2
      vertex 2.5286 2.11808 12
      vertex 2.61732 2.07612 12
    endloop
  endfacet
  facet normal 0.427543 0.903995 0
    outer loop
      vertex 2.5286 2.11808 12
      vertex 2.61732 2.07612 2
      vertex 2.5286 2.11808 2
    endloop
  endfacet
  facet normal 0.146641 0.98919 -0
    outer loop
      vertex 2.90198 2.00482 2
      vertex 2.80491 2.01921 12
      vertex 2.90198 2.00482 12
    endloop
  endfacet
  facet normal 0.146641 0.98919 0
    outer loop
      vertex 2.80491 2.01921 12
      vertex 2.90198 2.00482 2
      vertex 2.80491 2.01921 2
    endloop
  endfacet
  facet normal -0.33495 0.942236 0
    outer loop
      vertex 149.383 2.07612 2
      vertex 149.29 2.04306 12
      vertex 149.383 2.07612 12
    endloop
  endfacet
  facet normal -0.33495 0.942236 0
    outer loop
      vertex 149.29 2.04306 12
      vertex 149.383 2.07612 2
      vertex 149.29 2.04306 2
    endloop
  endfacet
  facet normal 0.146741 -0.989175 0
    outer loop
      vertex 2.80491 67.9808 2
      vertex 2.90198 67.9952 12
      vertex 2.80491 67.9808 12
    endloop
  endfacet
  facet normal 0.146741 -0.989175 0
    outer loop
      vertex 2.90198 67.9952 12
      vertex 2.80491 67.9808 2
      vertex 2.90198 67.9952 2
    endloop
  endfacet
  facet normal -0.430395 0.90264 0
    outer loop
      vertex 149.471 2.11808 2
      vertex 149.383 2.07612 12
      vertex 149.471 2.11808 12
    endloop
  endfacet
  facet normal -0.430395 0.90264 0
    outer loop
      vertex 149.383 2.07612 12
      vertex 149.471 2.11808 2
      vertex 149.383 2.07612 2
    endloop
  endfacet
  facet normal -0.510024 -0.86016 0
    outer loop
      vertex 149.471 67.8819 2
      vertex 149.556 67.8315 12
      vertex 149.471 67.8819 12
    endloop
  endfacet
  facet normal -0.510024 -0.86016 -0
    outer loop
      vertex 149.556 67.8315 12
      vertex 149.471 67.8819 2
      vertex 149.556 67.8315 2
    endloop
  endfacet
  facet normal -0.740401 -0.672166 0
    outer loop
      vertex 149.773 67.6344 2
      vertex 149.707 67.7071 12
      vertex 149.707 67.7071 2
    endloop
  endfacet
  facet normal -0.740401 -0.672166 0
    outer loop
      vertex 149.707 67.7071 12
      vertex 149.773 67.6344 2
      vertex 149.773 67.6344 12
    endloop
  endfacet
  facet normal 0.941548 -0.336879 0
    outer loop
      vertex 2.04306 67.2903 12
      vertex 2.07612 67.3827 2
      vertex 2.07612 67.3827 12
    endloop
  endfacet
  facet normal 0.941548 -0.336879 0
    outer loop
      vertex 2.07612 67.3827 2
      vertex 2.04306 67.2903 12
      vertex 2.04306 67.2903 2
    endloop
  endfacet
  facet normal 0.336369 -0.94173 0
    outer loop
      vertex 2.61732 67.9239 2
      vertex 2.70971 67.9569 12
      vertex 2.61732 67.9239 12
    endloop
  endfacet
  facet normal 0.336369 -0.94173 0
    outer loop
      vertex 2.70971 67.9569 12
      vertex 2.61732 67.9239 2
      vertex 2.70971 67.9569 2
    endloop
  endfacet
  facet normal -0.903837 0.427876 0
    outer loop
      vertex 149.882 2.5286 2
      vertex 149.924 2.61732 12
      vertex 149.924 2.61732 2
    endloop
  endfacet
  facet normal -0.903837 0.427876 0
    outer loop
      vertex 149.924 2.61732 12
      vertex 149.882 2.5286 2
      vertex 149.882 2.5286 12
    endloop
  endfacet
  facet normal -0.740493 0.672064 0
    outer loop
      vertex 149.707 2.29289 2
      vertex 149.773 2.36561 12
      vertex 149.773 2.36561 2
    endloop
  endfacet
  facet normal -0.740493 0.672064 0
    outer loop
      vertex 149.773 2.36561 12
      vertex 149.707 2.29289 2
      vertex 149.707 2.29289 12
    endloop
  endfacet
  facet normal 0.243015 0.970023 -0
    outer loop
      vertex 2.80491 2.01921 2
      vertex 2.70971 2.04306 12
      vertex 2.80491 2.01921 12
    endloop
  endfacet
  facet normal 0.243015 0.970023 0
    outer loop
      vertex 2.70971 2.04306 12
      vertex 2.80491 2.01921 2
      vertex 2.70971 2.04306 2
    endloop
  endfacet
  facet normal 0.80312 -0.595817 0
    outer loop
      vertex 2.16853 67.5556 12
      vertex 2.22699 67.6344 2
      vertex 2.22699 67.6344 12
    endloop
  endfacet
  facet normal 0.80312 -0.595817 0
    outer loop
      vertex 2.22699 67.6344 2
      vertex 2.16853 67.5556 12
      vertex 2.16853 67.5556 2
    endloop
  endfacet
  facet normal -0.146844 -0.98916 0
    outer loop
      vertex 149.098 67.9952 2
      vertex 149.195 67.9808 12
      vertex 149.098 67.9952 12
    endloop
  endfacet
  facet normal -0.146844 -0.98916 -0
    outer loop
      vertex 149.195 67.9808 12
      vertex 149.098 67.9952 2
      vertex 149.195 67.9808 2
    endloop
  endfacet
  facet normal -0.33441 -0.942428 0
    outer loop
      vertex 149.29 67.9569 2
      vertex 149.383 67.9239 12
      vertex 149.29 67.9569 12
    endloop
  endfacet
  facet normal -0.33441 -0.942428 -0
    outer loop
      vertex 149.383 67.9239 12
      vertex 149.29 67.9569 2
      vertex 149.383 67.9239 2
    endloop
  endfacet
  facet normal -0.599737 0.800197 0
    outer loop
      vertex 149.634 2.22699 2
      vertex 149.556 2.16853 12
      vertex 149.634 2.22699 12
    endloop
  endfacet
  facet normal -0.599737 0.800197 0
    outer loop
      vertex 149.556 2.16853 12
      vertex 149.634 2.22699 2
      vertex 149.556 2.16853 2
    endloop
  endfacet
  facet normal 0.336911 0.941537 -0
    outer loop
      vertex 2.70971 2.04306 2
      vertex 2.61732 2.07612 12
      vertex 2.70971 2.04306 12
    endloop
  endfacet
  facet normal 0.336911 0.941537 0
    outer loop
      vertex 2.61732 2.07612 12
      vertex 2.70971 2.04306 2
      vertex 2.61732 2.07612 2
    endloop
  endfacet
  facet normal 0.741 0.671505 0
    outer loop
      vertex 2.29289 2.29289 12
      vertex 2.22699 2.36561 2
      vertex 2.22699 2.36561 12
    endloop
  endfacet
  facet normal 0.741 0.671505 0
    outer loop
      vertex 2.22699 2.36561 2
      vertex 2.29289 2.29289 12
      vertex 2.29289 2.29289 2
    endloop
  endfacet
  facet normal 0.0491143 0.998793 -0
    outer loop
      vertex 3 2 2
      vertex 2.90198 2.00482 12
      vertex 3 2 12
    endloop
  endfacet
  facet normal 0.0491143 0.998793 0
    outer loop
      vertex 2.90198 2.00482 12
      vertex 3 2 2
      vertex 2.90198 2.00482 2
    endloop
  endfacet
  facet normal 0.59572 0.803192 -0
    outer loop
      vertex 2.44443 2.16853 2
      vertex 2.36561 2.22699 12
      vertex 2.44443 2.16853 12
    endloop
  endfacet
  facet normal 0.59572 0.803192 0
    outer loop
      vertex 2.36561 2.22699 12
      vertex 2.44443 2.16853 2
      vertex 2.36561 2.22699 2
    endloop
  endfacet
  facet normal -0.855252 0.518212 0
    outer loop
      vertex 149.831 2.44443 2
      vertex 149.882 2.5286 12
      vertex 149.882 2.5286 2
    endloop
  endfacet
  facet normal -0.855252 0.518212 0
    outer loop
      vertex 149.882 2.5286 12
      vertex 149.831 2.44443 2
      vertex 149.831 2.44443 12
    endloop
  endfacet
  facet normal 0 0 1
    outer loop
      vertex 149 68 2
      vertex 150 67 2
      vertex 149.995 67.098 2
    endloop
  endfacet
  facet normal 0 0 1
    outer loop
      vertex 150 67 2
      vertex 149 68 2
      vertex 150 3 2
    endloop
  endfacet
  facet normal 0 0 1
    outer loop
      vertex 149 68 2
      vertex 149.995 67.098 2
      vertex 149.981 67.1951 2
    endloop
  endfacet
  facet normal 0 0 1
    outer loop
      vertex 149 2 2
      vertex 150 3 2
      vertex 149 68 2
    endloop
  endfacet
  facet normal 0 0 1
    outer loop
      vertex 149 68 2
      vertex 149.981 67.1951 2
      vertex 149.957 67.2903 2
    endloop
  endfacet
  facet normal 0 0 1
    outer loop
      vertex 150 3 2
      vertex 149 2 2
      vertex 149.995 2.90198 2
    endloop
  endfacet
  facet normal 0 0 1
    outer loop
      vertex 149 68 2
      vertex 149.957 67.2903 2
      vertex 149.924 67.3827 2
    endloop
  endfacet
  facet normal 0 0 1
    outer loop
      vertex 149.995 2.90198 2
      vertex 149 2 2
      vertex 149.981 2.80491 2
    endloop
  endfacet
  facet normal 0 0 1
    outer loop
      vertex 149 68 2
      vertex 149.924 67.3827 2
      vertex 149.882 67.4714 2
    endloop
  endfacet
  facet normal 0 0 1
    outer loop
      vertex 149.981 2.80491 2
      vertex 149 2 2
      vertex 149.957 2.70971 2
    endloop
  endfacet
  facet normal 0 0 1
    outer loop
      vertex 149 68 2
      vertex 149.882 67.4714 2
      vertex 149.831 67.5556 2
    endloop
  endfacet
  facet normal 0 0 1
    outer loop
      vertex 149.957 2.70971 2
      vertex 149 2 2
      vertex 149.924 2.61732 2
    endloop
  endfacet
  facet normal 0 0 1
    outer loop
      vertex 149 68 2
      vertex 149.831 67.5556 2
      vertex 149.773 67.6344 2
    endloop
  endfacet
  facet normal 0 0 1
    outer loop
      vertex 149.924 2.61732 2
      vertex 149 2 2
      vertex 149.882 2.5286 2
    endloop
  endfacet
  facet normal 0 0 1
    outer loop
      vertex 149 68 2
      vertex 149.773 67.6344 2
      vertex 149.707 67.7071 2
    endloop
  endfacet
  facet normal 0 0 1
    outer loop
      vertex 149.882 2.5286 2
      vertex 149 2 2
      vertex 149.831 2.44443 2
    endloop
  endfacet
  facet normal 0 0 1
    outer loop
      vertex 149 68 2
      vertex 149.707 67.7071 2
      vertex 149.634 67.773 2
    endloop
  endfacet
  facet normal 0 0 1
    outer loop
      vertex 149.831 2.44443 2
      vertex 149 2 2
      vertex 149.773 2.36561 2
    endloop
  endfacet
  facet normal 0 0 1
    outer loop
      vertex 149 68 2
      vertex 149.634 67.773 2
      vertex 149.556 67.8315 2
    endloop
  endfacet
  facet normal 0 0 1
    outer loop
      vertex 149.773 2.36561 2
      vertex 149 2 2
      vertex 149.707 2.29289 2
    endloop
  endfacet
  facet normal 0 0 1
    outer loop
      vertex 149 68 2
      vertex 149.556 67.8315 2
      vertex 149.471 67.8819 2
    endloop
  endfacet
  facet normal 0 0 1
    outer loop
      vertex 149.707 2.29289 2
      vertex 149 2 2
      vertex 149.634 2.22699 2
    endloop
  endfacet
  facet normal 0 0 1
    outer loop
      vertex 149 68 2
      vertex 149.471 67.8819 2
      vertex 149.383 67.9239 2
    endloop
  endfacet
  facet normal 0 0 1
    outer loop
      vertex 149.634 2.22699 2
      vertex 149 2 2
      vertex 149.556 2.16853 2
    endloop
  endfacet
  facet normal 0 0 1
    outer loop
      vertex 149 68 2
      vertex 149.383 67.9239 2
      vertex 149.29 67.9569 2
    endloop
  endfacet
  facet normal 0 0 1
    outer loop
      vertex 149.556 2.16853 2
      vertex 149 2 2
      vertex 149.471 2.11808 2
    endloop
  endfacet
  facet normal 0 0 1
    outer loop
      vertex 149 68 2
      vertex 149.29 67.9569 2
      vertex 149.195 67.9808 2
    endloop
  endfacet
  facet normal 0 0 1
    outer loop
      vertex 149.471 2.11808 2
      vertex 149 2 2
      vertex 149.383 2.07612 2
    endloop
  endfacet
  facet normal 0 0 1
    outer loop
      vertex 149 68 2
      vertex 149.195 67.9808 2
      vertex 149.098 67.9952 2
    endloop
  endfacet
  facet normal 0 0 1
    outer loop
      vertex 149.383 2.07612 2
      vertex 149 2 2
      vertex 149.29 2.04306 2
    endloop
  endfacet
  facet normal 0 0 1
    outer loop
      vertex 149.29 2.04306 2
      vertex 149 2 2
      vertex 149.195 2.01921 2
    endloop
  endfacet
  facet normal 0 0 1
    outer loop
      vertex 149.195 2.01921 2
      vertex 149 2 2
      vertex 149.098 2.00482 2
    endloop
  endfacet
  facet normal -0 0 1
    outer loop
      vertex 3 68 2
      vertex 149 2 2
      vertex 149 68 2
    endloop
  endfacet
  facet normal 0 0 1
    outer loop
      vertex 3 68 2
      vertex 3 2 2
      vertex 149 2 2
    endloop
  endfacet
  facet normal 0 0 1
    outer loop
      vertex 2 67 2
      vertex 3 68 2
      vertex 2.90198 67.9952 2
    endloop
  endfacet
  facet normal 0 0 1
    outer loop
      vertex 3 68 2
      vertex 2 67 2
      vertex 3 2 2
    endloop
  endfacet
  facet normal 0 0 1
    outer loop
      vertex 2 67 2
      vertex 2.90198 67.9952 2
      vertex 2.80491 67.9808 2
    endloop
  endfacet
  facet normal -0 0 1
    outer loop
      vertex 2 3 2
      vertex 3 2 2
      vertex 2 67 2
    endloop
  endfacet
  facet normal 0 0 1
    outer loop
      vertex 2 67 2
      vertex 2.80491 67.9808 2
      vertex 2.70971 67.9569 2
    endloop
  endfacet
  facet normal 0 0 1
    outer loop
      vertex 3 2 2
      vertex 2 3 2
      vertex 2.90198 2.00482 2
    endloop
  endfacet
  facet normal 0 0 1
    outer loop
      vertex 2 67 2
      vertex 2.70971 67.9569 2
      vertex 2.61732 67.9239 2
    endloop
  endfacet
  facet normal 0 0 1
    outer loop
      vertex 2.90198 2.00482 2
      vertex 2 3 2
      vertex 2.80491 2.01921 2
    endloop
  endfacet
  facet normal 0 0 1
    outer loop
      vertex 2 67 2
      vertex 2.61732 67.9239 2
      vertex 2.5286 67.8819 2
    endloop
  endfacet
  facet normal 0 0 1
    outer loop
      vertex 2.80491 2.01921 2
      vertex 2 3 2
      vertex 2.70971 2.04306 2
    endloop
  endfacet
  facet normal 0 0 1
    outer loop
      vertex 2 67 2
      vertex 2.5286 67.8819 2
      vertex 2.44443 67.8315 2
    endloop
  endfacet
  facet normal 0 0 1
    outer loop
      vertex 2.70971 2.04306 2
      vertex 2 3 2
      vertex 2.61732 2.07612 2
    endloop
  endfacet
  facet normal 0 0 1
    outer loop
      vertex 2 67 2
      vertex 2.44443 67.8315 2
      vertex 2.36561 67.773 2
    endloop
  endfacet
  facet normal 0 0 1
    outer loop
      vertex 2.61732 2.07612 2
      vertex 2 3 2
      vertex 2.5286 2.11808 2
    endloop
  endfacet
  facet normal 0 0 1
    outer loop
      vertex 2 67 2
      vertex 2.36561 67.773 2
      vertex 2.29289 67.7071 2
    endloop
  endfacet
  facet normal 0 0 1
    outer loop
      vertex 2.5286 2.11808 2
      vertex 2 3 2
      vertex 2.44443 2.16853 2
    endloop
  endfacet
  facet normal 0 0 1
    outer loop
      vertex 2 67 2
      vertex 2.29289 67.7071 2
      vertex 2.22699 67.6344 2
    endloop
  endfacet
  facet normal 0 0 1
    outer loop
      vertex 2.44443 2.16853 2
      vertex 2 3 2
      vertex 2.36561 2.22699 2
    endloop
  endfacet
  facet normal 0 0 1
    outer loop
      vertex 2 67 2
      vertex 2.22699 67.6344 2
      vertex 2.16853 67.5556 2
    endloop
  endfacet
  facet normal 0 0 1
    outer loop
      vertex 2.36561 2.22699 2
      vertex 2 3 2
      vertex 2.29289 2.29289 2
    endloop
  endfacet
  facet normal 0 0 1
    outer loop
      vertex 2 67 2
      vertex 2.16853 67.5556 2
      vertex 2.11808 67.4714 2
    endloop
  endfacet
  facet normal 0 0 1
    outer loop
      vertex 2.29289 2.29289 2
      vertex 2 3 2
      vertex 2.22699 2.36561 2
    endloop
  endfacet
  facet normal 0 0 1
    outer loop
      vertex 2 67 2
      vertex 2.11808 67.4714 2
      vertex 2.07612 67.3827 2
    endloop
  endfacet
  facet normal 0 0 1
    outer loop
      vertex 2.22699 2.36561 2
      vertex 2 3 2
      vertex 2.16853 2.44443 2
    endloop
  endfacet
  facet normal 0 0 1
    outer loop
      vertex 2 67 2
      vertex 2.07612 67.3827 2
      vertex 2.04306 67.2903 2
    endloop
  endfacet
  facet normal 0 0 1
    outer loop
      vertex 2.16853 2.44443 2
      vertex 2 3 2
      vertex 2.11808 2.5286 2
    endloop
  endfacet
  facet normal 0 0 1
    outer loop
      vertex 2 67 2
      vertex 2.04306 67.2903 2
      vertex 2.01921 67.1951 2
    endloop
  endfacet
  facet normal 0 0 1
    outer loop
      vertex 2.11808 2.5286 2
      vertex 2 3 2
      vertex 2.07612 2.61732 2
    endloop
  endfacet
  facet normal 0 0 1
    outer loop
      vertex 2 67 2
      vertex 2.01921 67.1951 2
      vertex 2.00482 67.098 2
    endloop
  endfacet
  facet normal 0 0 1
    outer loop
      vertex 2.07612 2.61732 2
      vertex 2 3 2
      vertex 2.04306 2.70971 2
    endloop
  endfacet
  facet normal 0 0 1
    outer loop
      vertex 2.04306 2.70971 2
      vertex 2 3 2
      vertex 2.01921 2.80491 2
    endloop
  endfacet
  facet normal 0 0 1
    outer loop
      vertex 2.01921 2.80491 2
      vertex 2 3 2
      vertex 2.00482 2.90198 2
    endloop
  endfacet
  facet normal 0.941537 0.336911 0
    outer loop
      vertex 2.07612 2.61732 12
      vertex 2.04306 2.70971 2
      vertex 2.04306 2.70971 12
    endloop
  endfacet
  facet normal 0.941537 0.336911 0
    outer loop
      vertex 2.04306 2.70971 2
      vertex 2.07612 2.61732 12
      vertex 2.07612 2.61732 2
    endloop
  endfacet
  facet normal -1 0 0
    outer loop
      vertex 69 0 4
      vertex 69 2 10
      vertex 69 2 4
    endloop
  endfacet
  facet normal -1 -0 0
    outer loop
      vertex 69 2 10
      vertex 69 0 4
      vertex 69 0 10
    endloop
  endfacet
  facet normal 0 0 -1
    outer loop
      vertex 45 0 10
      vertex 69 2 10
      vertex 69 0 10
    endloop
  endfacet
  facet normal -0 0 -1
    outer loop
      vertex 69 2 10
      vertex 45 0 10
      vertex 45 2 10
    endloop
  endfacet
  facet normal -0 0 1
    outer loop
      vertex 45 2 4
      vertex 69 0 4
      vertex 69 2 4
    endloop
  endfacet
  facet normal 0 0 1
    outer loop
      vertex 69 0 4
      vertex 45 2 4
      vertex 45 0 4
    endloop
  endfacet
  facet normal 1 -0 0
    outer loop
      vertex 45 0 10
      vertex 45 2 4
      vertex 45 2 10
    endloop
  endfacet
  facet normal 1 0 0
    outer loop
      vertex 45 2 4
      vertex 45 0 10
      vertex 45 0 4
    endloop
  endfacet
endsolid OpenSCAD_Model
