%TF.GenerationSoftware,Altium Limited,Altium Designer,22.1.2 (22)*%
G04 Layer_Physical_Order=2*
G04 Layer_Color=15238730*
%FSLAX45Y45*%
%MOMM*%
%TF.SameCoordinates,561DFBA5-A42D-4BA1-BAD0-C4916DA7A156*%
%TF.FilePolarity,Positive*%
%TF.FileFunction,Copper,L2,Bot,Signal*%
%TF.Part,Single*%
G01*
G75*
%TA.AperFunction,Conductor*%
%ADD62C,0.25400*%
%ADD63C,0.35000*%
%ADD66C,0.15000*%
%TA.AperFunction,ComponentPad*%
%ADD70O,1.05000X2.15000*%
%ADD71O,1.05000X1.85000*%
%ADD72C,0.70000*%
%ADD73C,1.00000*%
%TA.AperFunction,ViaPad*%
%ADD74C,0.60000*%
%TA.AperFunction,SMDPad,CuDef*%
%ADD75R,0.75001X1.00000*%
G36*
X11850000Y-5050000D02*
X9975400D01*
Y-4924599D01*
X9849599D01*
Y-4924599D01*
X9837483Y-4929478D01*
X9830400Y-4923801D01*
Y-4913980D01*
X9821966Y-4893619D01*
X9806381Y-4878034D01*
X9786020Y-4869600D01*
X9763980D01*
X9743619Y-4878034D01*
X9728034Y-4893619D01*
X9719600Y-4913980D01*
Y-4936020D01*
X9728034Y-4956382D01*
X9743619Y-4971966D01*
X9763980Y-4980400D01*
X9775463D01*
X9822531Y-5027468D01*
X9835133Y-5035889D01*
X9842228Y-5037300D01*
X9840977Y-5050000D01*
X2675401D01*
Y-4924599D01*
X2549600D01*
Y-5050000D01*
X100000D01*
Y-50000D01*
X1338058D01*
X1346543Y-62700D01*
X1342105Y-73414D01*
X1339428Y-93750D01*
Y-121050D01*
X1418000D01*
X1496572D01*
Y-93750D01*
X1493895Y-73414D01*
X1489457Y-62700D01*
X1497943Y-50000D01*
X2202057D01*
X2210543Y-62700D01*
X2206105Y-73414D01*
X2203428Y-93750D01*
Y-121050D01*
X2282000D01*
X2360572D01*
Y-93750D01*
X2357895Y-73414D01*
X2353457Y-62700D01*
X2361943Y-50000D01*
X11850000D01*
Y-5050000D01*
D02*
G37*
%LPC*%
G36*
X1496572Y-146450D02*
X1430700D01*
Y-250650D01*
X1438336Y-249645D01*
X1457286Y-241795D01*
X1473559Y-229309D01*
X1486046Y-213036D01*
X1493895Y-194086D01*
X1496572Y-173750D01*
Y-146450D01*
D02*
G37*
G36*
X2360572D02*
X2294700D01*
Y-250650D01*
X2302336Y-249645D01*
X2321286Y-241795D01*
X2337559Y-229309D01*
X2350045Y-213036D01*
X2357895Y-194086D01*
X2360572Y-173750D01*
Y-146450D01*
D02*
G37*
G36*
X2269300D02*
X2203428D01*
Y-173750D01*
X2206105Y-194086D01*
X2213955Y-213036D01*
X2226441Y-229309D01*
X2242714Y-241795D01*
X2261664Y-249645D01*
X2269300Y-250650D01*
Y-146450D01*
D02*
G37*
G36*
X1405300D02*
X1339428D01*
Y-173750D01*
X1342105Y-194086D01*
X1349955Y-213036D01*
X1362441Y-229309D01*
X1378714Y-241795D01*
X1397664Y-249645D01*
X1405300Y-250650D01*
Y-146450D01*
D02*
G37*
G36*
X3049999Y-144674D02*
X3031942Y-147051D01*
X3015116Y-154021D01*
X3000667Y-165108D01*
X2989580Y-179557D01*
X2982610Y-196383D01*
X2980233Y-214440D01*
X2982610Y-232497D01*
X2989580Y-249323D01*
X3000667Y-263772D01*
X3015116Y-274859D01*
X3031942Y-281829D01*
X3049999Y-284206D01*
X3068056Y-281829D01*
X3084882Y-274859D01*
X3099331Y-263772D01*
X3110418Y-249323D01*
X3117388Y-232497D01*
X3119765Y-214440D01*
X3117388Y-196383D01*
X3110418Y-179557D01*
X3099331Y-165108D01*
X3084882Y-154021D01*
X3068056Y-147051D01*
X3049999Y-144674D01*
D02*
G37*
G36*
X2750000D02*
X2731943Y-147051D01*
X2715117Y-154021D01*
X2700668Y-165108D01*
X2689581Y-179557D01*
X2682611Y-196383D01*
X2680234Y-214440D01*
X2682611Y-232497D01*
X2689581Y-249323D01*
X2700668Y-263772D01*
X2715117Y-274859D01*
X2731943Y-281829D01*
X2750000Y-284206D01*
X2768057Y-281829D01*
X2784883Y-274859D01*
X2799332Y-263772D01*
X2810419Y-249323D01*
X2817389Y-232497D01*
X2819766Y-214440D01*
X2817389Y-196383D01*
X2810419Y-179557D01*
X2799332Y-165108D01*
X2784883Y-154021D01*
X2768057Y-147051D01*
X2750000Y-144674D01*
D02*
G37*
G36*
X2269300Y-416850D02*
X2261664Y-417855D01*
X2242714Y-425705D01*
X2226441Y-438191D01*
X2213955Y-454464D01*
X2206867Y-471575D01*
X2201039Y-472984D01*
X2193437Y-472340D01*
X2190205Y-464536D01*
X2173214Y-447545D01*
X2151014Y-438350D01*
X2126986D01*
X2104786Y-447545D01*
X2087795Y-464536D01*
X2078600Y-486736D01*
Y-510764D01*
X2087795Y-532964D01*
X2104786Y-549955D01*
X2126986Y-559150D01*
X2151014D01*
X2173214Y-549955D01*
X2190205Y-532964D01*
X2190728Y-531701D01*
X2203428Y-534227D01*
Y-536050D01*
X2269300D01*
Y-416850D01*
D02*
G37*
G36*
X4777933Y-384603D02*
X4758079D01*
X4738903Y-389741D01*
X4721709Y-399667D01*
X4707671Y-413706D01*
X4697744Y-430899D01*
X4692606Y-450076D01*
Y-469929D01*
X4697744Y-489106D01*
X4707671Y-506299D01*
X4721709Y-520338D01*
X4738903Y-530264D01*
X4758079Y-535403D01*
X4777933D01*
X4797109Y-530264D01*
X4814303Y-520338D01*
X4828341Y-506299D01*
X4838268Y-489106D01*
X4843406Y-469929D01*
Y-450076D01*
X4838268Y-430899D01*
X4828341Y-413706D01*
X4814303Y-399667D01*
X4797109Y-389741D01*
X4777933Y-384603D01*
D02*
G37*
G36*
X3979915D02*
X3960062D01*
X3940885Y-389741D01*
X3923692Y-399667D01*
X3909654Y-413706D01*
X3899727Y-430899D01*
X3894589Y-450076D01*
Y-469929D01*
X3899727Y-489106D01*
X3909654Y-506299D01*
X3923692Y-520338D01*
X3940885Y-530264D01*
X3960062Y-535403D01*
X3979915D01*
X3999092Y-530264D01*
X4016285Y-520338D01*
X4030324Y-506299D01*
X4040250Y-489106D01*
X4045389Y-469929D01*
Y-450076D01*
X4040250Y-430899D01*
X4030324Y-413706D01*
X4016285Y-399667D01*
X3999092Y-389741D01*
X3979915Y-384603D01*
D02*
G37*
G36*
X2294700Y-416850D02*
Y-536050D01*
X2360572D01*
Y-493750D01*
X2357895Y-473414D01*
X2350045Y-454464D01*
X2337559Y-438191D01*
X2321286Y-425705D01*
X2302336Y-417855D01*
X2294700Y-416850D01*
D02*
G37*
G36*
X1405300D02*
X1397664Y-417855D01*
X1378714Y-425705D01*
X1362441Y-438191D01*
X1349955Y-454464D01*
X1342105Y-473414D01*
X1339428Y-493750D01*
Y-536050D01*
X1405300D01*
Y-416850D01*
D02*
G37*
G36*
X1430700D02*
Y-536050D01*
X1496572D01*
Y-534227D01*
X1509272Y-531701D01*
X1509796Y-532964D01*
X1526786Y-549955D01*
X1548986Y-559150D01*
X1573014D01*
X1595214Y-549955D01*
X1612205Y-532964D01*
X1621400Y-510764D01*
Y-486736D01*
X1612205Y-464536D01*
X1595214Y-447545D01*
X1573014Y-438350D01*
X1548986D01*
X1526786Y-447545D01*
X1509796Y-464536D01*
X1506563Y-472340D01*
X1498961Y-472984D01*
X1493133Y-471575D01*
X1486046Y-454464D01*
X1473559Y-438191D01*
X1457286Y-425705D01*
X1438336Y-417855D01*
X1430700Y-416850D01*
D02*
G37*
G36*
X11519698Y-174103D02*
X11480301D01*
X11477800Y-174600D01*
X11475249D01*
X11436609Y-182286D01*
X11434253Y-183262D01*
X11431751Y-183760D01*
X11395354Y-198836D01*
X11393233Y-200253D01*
X11390876Y-201229D01*
X11358120Y-223117D01*
X11356316Y-224921D01*
X11354195Y-226338D01*
X11326337Y-254195D01*
X11324920Y-256316D01*
X11323117Y-258120D01*
X11301229Y-290877D01*
X11300253Y-293233D01*
X11298836Y-295354D01*
X11283759Y-331752D01*
X11283262Y-334254D01*
X11282286Y-336610D01*
X11274600Y-375249D01*
Y-377800D01*
X11274102Y-380302D01*
Y-419698D01*
X11274600Y-422200D01*
Y-424751D01*
X11282286Y-463390D01*
X11283262Y-465747D01*
X11283759Y-468248D01*
X11298836Y-504646D01*
X11300253Y-506767D01*
X11301229Y-509123D01*
X11323117Y-541880D01*
X11324920Y-543684D01*
X11326337Y-545805D01*
X11354195Y-573663D01*
X11356316Y-575079D01*
X11358119Y-576883D01*
X11390876Y-598771D01*
X11393233Y-599747D01*
X11395354Y-601164D01*
X11431751Y-616240D01*
X11434253Y-616738D01*
X11436610Y-617714D01*
X11475249Y-625400D01*
X11477800D01*
X11480301Y-625897D01*
X11519698D01*
X11522200Y-625400D01*
X11524750D01*
X11563390Y-617714D01*
X11565746Y-616738D01*
X11568248Y-616240D01*
X11604646Y-601164D01*
X11606767Y-599747D01*
X11609123Y-598771D01*
X11641880Y-576883D01*
X11643684Y-575080D01*
X11645804Y-573663D01*
X11673662Y-545805D01*
X11675079Y-543684D01*
X11676883Y-541881D01*
X11698770Y-509123D01*
X11699746Y-506767D01*
X11701164Y-504646D01*
X11716240Y-468248D01*
X11716738Y-465747D01*
X11717714Y-463390D01*
X11725400Y-424751D01*
Y-422200D01*
X11725897Y-419698D01*
Y-380302D01*
X11725400Y-377800D01*
Y-375249D01*
X11717714Y-336610D01*
X11716738Y-334253D01*
X11716240Y-331752D01*
X11701164Y-295354D01*
X11699746Y-293233D01*
X11698770Y-290877D01*
X11676883Y-258120D01*
X11675079Y-256316D01*
X11673662Y-254195D01*
X11645804Y-226338D01*
X11643684Y-224921D01*
X11641880Y-223117D01*
X11609123Y-201229D01*
X11606767Y-200253D01*
X11604646Y-198836D01*
X11568248Y-183760D01*
X11565746Y-183262D01*
X11563390Y-182286D01*
X11524751Y-174600D01*
X11522200D01*
X11519698Y-174103D01*
D02*
G37*
G36*
X469698D02*
X430301D01*
X427800Y-174600D01*
X425249D01*
X386609Y-182286D01*
X384253Y-183262D01*
X381751Y-183760D01*
X345354Y-198836D01*
X343233Y-200253D01*
X340876Y-201229D01*
X308120Y-223117D01*
X306316Y-224921D01*
X304195Y-226338D01*
X276337Y-254195D01*
X274920Y-256316D01*
X273117Y-258120D01*
X251229Y-290877D01*
X250253Y-293233D01*
X248836Y-295354D01*
X233760Y-331752D01*
X233262Y-334254D01*
X232286Y-336610D01*
X224600Y-375249D01*
Y-377800D01*
X224102Y-380302D01*
Y-419698D01*
X224600Y-422200D01*
Y-424751D01*
X232286Y-463390D01*
X233262Y-465747D01*
X233760Y-468248D01*
X248836Y-504646D01*
X250253Y-506767D01*
X251229Y-509123D01*
X273117Y-541880D01*
X274920Y-543684D01*
X276337Y-545805D01*
X304195Y-573663D01*
X306316Y-575079D01*
X308119Y-576883D01*
X340876Y-598771D01*
X343233Y-599747D01*
X345354Y-601164D01*
X381751Y-616240D01*
X384253Y-616738D01*
X386610Y-617714D01*
X425249Y-625400D01*
X427800D01*
X430301Y-625897D01*
X469698D01*
X472200Y-625400D01*
X474750D01*
X513390Y-617714D01*
X515746Y-616738D01*
X518248Y-616240D01*
X554646Y-601164D01*
X556767Y-599747D01*
X559123Y-598771D01*
X591880Y-576883D01*
X593684Y-575080D01*
X595804Y-573663D01*
X623662Y-545805D01*
X625079Y-543684D01*
X626883Y-541881D01*
X648770Y-509123D01*
X649746Y-506767D01*
X651164Y-504646D01*
X666240Y-468248D01*
X666738Y-465747D01*
X667714Y-463390D01*
X675400Y-424751D01*
Y-422200D01*
X675897Y-419698D01*
Y-380302D01*
X675400Y-377800D01*
Y-375249D01*
X667714Y-336610D01*
X666738Y-334253D01*
X666240Y-331752D01*
X651164Y-295354D01*
X649746Y-293233D01*
X648770Y-290877D01*
X626883Y-258120D01*
X625079Y-256316D01*
X623662Y-254195D01*
X595804Y-226338D01*
X593684Y-224921D01*
X591880Y-223117D01*
X559123Y-201229D01*
X556767Y-200253D01*
X554646Y-198836D01*
X518248Y-183760D01*
X515746Y-183262D01*
X513390Y-182286D01*
X474751Y-174600D01*
X472200D01*
X469698Y-174103D01*
D02*
G37*
G36*
X1405300Y-561450D02*
X1339428D01*
Y-603750D01*
X1342105Y-624086D01*
X1349955Y-643036D01*
X1362441Y-659309D01*
X1378714Y-671795D01*
X1397664Y-679645D01*
X1405300Y-680650D01*
Y-561450D01*
D02*
G37*
G36*
X2269300D02*
X2203428D01*
Y-603750D01*
X2206105Y-624086D01*
X2213955Y-643036D01*
X2226441Y-659309D01*
X2242714Y-671795D01*
X2261664Y-679645D01*
X2269300Y-680650D01*
Y-561450D01*
D02*
G37*
G36*
X2360572D02*
X2294700D01*
Y-680650D01*
X2302336Y-679645D01*
X2321286Y-671795D01*
X2337559Y-659309D01*
X2350045Y-643036D01*
X2357895Y-624086D01*
X2360572Y-603750D01*
Y-561450D01*
D02*
G37*
G36*
X1496572D02*
X1430700D01*
Y-680650D01*
X1438336Y-679645D01*
X1457286Y-671795D01*
X1473559Y-659309D01*
X1486046Y-643036D01*
X1493895Y-624086D01*
X1496572Y-603750D01*
Y-561450D01*
D02*
G37*
G36*
X6951020Y-1114600D02*
X6928980D01*
X6908619Y-1123034D01*
X6893034Y-1138618D01*
X6884600Y-1158980D01*
Y-1181020D01*
X6893034Y-1201381D01*
X6906456Y-1214803D01*
Y-1425197D01*
X6893034Y-1438619D01*
X6884600Y-1458980D01*
Y-1481020D01*
X6893034Y-1501382D01*
X6908619Y-1516966D01*
X6928980Y-1525400D01*
X6951020D01*
X6971382Y-1516966D01*
X6986966Y-1501382D01*
X6995400Y-1481020D01*
Y-1458980D01*
X6986966Y-1438619D01*
X6973545Y-1425197D01*
Y-1214803D01*
X6986966Y-1201381D01*
X6995400Y-1181020D01*
Y-1158980D01*
X6986966Y-1138618D01*
X6971382Y-1123034D01*
X6951020Y-1114600D01*
D02*
G37*
G36*
X10648519Y-1324600D02*
X10626480D01*
X10606118Y-1333034D01*
X10590534Y-1348619D01*
X10582099Y-1368980D01*
Y-1391020D01*
X10590534Y-1411381D01*
X10591053Y-1411901D01*
X10585792Y-1424601D01*
X10574599D01*
Y-1575400D01*
X10700400D01*
Y-1424601D01*
X10689207D01*
X10683946Y-1411901D01*
X10684465Y-1411381D01*
X10692899Y-1391020D01*
Y-1368980D01*
X10684465Y-1348619D01*
X10668881Y-1333034D01*
X10648519Y-1324600D01*
D02*
G37*
G36*
X2125401Y-1824601D02*
X1999600D01*
Y-1975400D01*
X2125401D01*
Y-1824601D01*
D02*
G37*
G36*
X10700400Y-2024599D02*
X10574599D01*
Y-2175399D01*
X10700400D01*
Y-2024599D01*
D02*
G37*
G36*
X6771020Y-2134600D02*
X6748980D01*
X6728618Y-2143034D01*
X6720499Y-2151153D01*
X6640000D01*
X6625134Y-2154110D01*
X6612531Y-2162531D01*
X6482531Y-2292532D01*
X6474110Y-2305134D01*
X6471153Y-2320000D01*
Y-2470499D01*
X6463034Y-2478619D01*
X6454600Y-2498980D01*
Y-2521020D01*
X6463034Y-2541382D01*
X6478618Y-2556966D01*
X6498980Y-2565400D01*
X6521020D01*
X6541381Y-2556966D01*
X6556966Y-2541382D01*
X6565400Y-2521020D01*
Y-2498980D01*
X6556966Y-2478619D01*
X6548846Y-2470499D01*
Y-2336091D01*
X6656091Y-2228846D01*
X6720499D01*
X6728618Y-2236966D01*
X6748980Y-2245400D01*
X6771020D01*
X6791381Y-2236966D01*
X6806966Y-2221381D01*
X6815400Y-2201020D01*
Y-2178980D01*
X6806966Y-2158618D01*
X6791381Y-2143034D01*
X6771020Y-2134600D01*
D02*
G37*
G36*
X11398519Y-2063171D02*
X11376480D01*
X11356118Y-2071605D01*
X11340534Y-2087189D01*
X11332100Y-2107551D01*
Y-2129591D01*
X11340534Y-2149952D01*
X11348653Y-2158072D01*
Y-2174601D01*
X11324599D01*
Y-2325400D01*
X11450400D01*
Y-2174601D01*
X11426346D01*
Y-2158072D01*
X11434465Y-2149952D01*
X11442899Y-2129591D01*
Y-2107551D01*
X11434465Y-2087189D01*
X11418881Y-2071605D01*
X11398519Y-2063171D01*
D02*
G37*
G36*
X9901020Y-2064600D02*
X9878980D01*
X9858618Y-2073034D01*
X9843034Y-2088619D01*
X9834600Y-2108980D01*
Y-2131020D01*
X9843034Y-2151382D01*
X9849903Y-2158251D01*
Y-2174601D01*
X9824599D01*
Y-2325400D01*
X9950400D01*
Y-2174601D01*
X9927596D01*
Y-2160751D01*
X9936966Y-2151382D01*
X9945400Y-2131020D01*
Y-2108980D01*
X9936966Y-2088619D01*
X9921381Y-2073034D01*
X9901020Y-2064600D01*
D02*
G37*
G36*
X1250401Y-2174601D02*
X1124599D01*
Y-2325400D01*
X1250401D01*
Y-2174601D01*
D02*
G37*
G36*
X7741657Y-2494600D02*
X7719618D01*
X7699256Y-2503034D01*
X7696030Y-2506260D01*
X6804607D01*
X6801381Y-2503034D01*
X6781020Y-2494600D01*
X6758980D01*
X6738618Y-2503034D01*
X6723034Y-2518619D01*
X6714600Y-2538980D01*
Y-2561020D01*
X6723034Y-2581381D01*
X6738618Y-2596966D01*
X6758980Y-2605400D01*
X6781020D01*
X6801381Y-2596966D01*
X6804607Y-2593740D01*
X7696030D01*
X7699256Y-2596966D01*
X7719618Y-2605400D01*
X7741657D01*
X7762019Y-2596966D01*
X7777603Y-2581381D01*
X7786037Y-2561020D01*
Y-2538980D01*
X7777603Y-2518619D01*
X7762019Y-2503034D01*
X7741657Y-2494600D01*
D02*
G37*
G36*
X2125401Y-2424599D02*
X1999600D01*
Y-2575399D01*
X2082963D01*
X2287712Y-2780148D01*
X2300314Y-2788569D01*
X2315181Y-2791526D01*
X2663179D01*
X2671298Y-2799646D01*
X2691660Y-2808080D01*
X2713699D01*
X2734061Y-2799646D01*
X2749646Y-2784061D01*
X2758080Y-2763700D01*
Y-2741660D01*
X2749646Y-2721298D01*
X2734061Y-2705714D01*
X2713699Y-2697280D01*
X2691660D01*
X2671298Y-2705714D01*
X2663179Y-2713833D01*
X2331271D01*
X2127269Y-2509831D01*
X2125401Y-2508582D01*
Y-2424599D01*
D02*
G37*
G36*
X11450400Y-2774599D02*
X11324599D01*
Y-2925399D01*
X11450400D01*
Y-2774599D01*
D02*
G37*
G36*
X9950400D02*
X9824599D01*
Y-2925399D01*
X9950400D01*
Y-2774599D01*
D02*
G37*
G36*
X1250401D02*
X1124599D01*
Y-2925399D01*
X1184962D01*
X1199711Y-2940148D01*
X1212314Y-2948569D01*
X1227180Y-2951526D01*
X2528181D01*
X2536300Y-2959646D01*
X2556662Y-2968080D01*
X2578702D01*
X2599063Y-2959646D01*
X2614648Y-2944061D01*
X2623082Y-2923700D01*
Y-2901660D01*
X2614648Y-2881298D01*
X2599063Y-2865714D01*
X2578702Y-2857280D01*
X2556662D01*
X2536300Y-2865714D01*
X2528181Y-2873833D01*
X1250955D01*
X1250401Y-2871047D01*
Y-2774599D01*
D02*
G37*
G36*
X10700400Y-2924601D02*
X10574599D01*
Y-3075401D01*
X10700400D01*
Y-2924601D01*
D02*
G37*
G36*
X2541020Y-3113900D02*
X2518980D01*
X2498619Y-3122334D01*
X2483034Y-3137919D01*
X2474600Y-3158280D01*
Y-3180320D01*
X2483034Y-3200681D01*
X2491154Y-3208801D01*
Y-3310499D01*
X2483034Y-3318618D01*
X2474600Y-3338980D01*
Y-3361020D01*
X2483034Y-3381381D01*
X2498619Y-3396966D01*
X2518980Y-3405400D01*
X2541020D01*
X2561381Y-3396966D01*
X2576966Y-3381381D01*
X2585400Y-3361020D01*
Y-3338980D01*
X2576966Y-3318618D01*
X2568847Y-3310499D01*
Y-3208801D01*
X2576966Y-3200681D01*
X2585400Y-3180320D01*
Y-3158280D01*
X2576966Y-3137919D01*
X2561381Y-3122334D01*
X2541020Y-3113900D01*
D02*
G37*
G36*
X10700400Y-3524600D02*
X10574599D01*
Y-3675399D01*
X10599903D01*
Y-3701749D01*
X10593034Y-3708618D01*
X10584600Y-3728980D01*
Y-3751020D01*
X10593034Y-3771381D01*
X10608618Y-3786966D01*
X10628980Y-3795400D01*
X10651020D01*
X10671381Y-3786966D01*
X10686966Y-3771381D01*
X10695400Y-3751020D01*
Y-3728980D01*
X10686966Y-3708618D01*
X10677596Y-3699249D01*
Y-3675399D01*
X10700400D01*
Y-3524600D01*
D02*
G37*
G36*
X4921020Y-3434600D02*
X4898980D01*
X4878618Y-3443034D01*
X4863034Y-3458618D01*
X4854600Y-3478980D01*
Y-3501020D01*
X4863034Y-3521381D01*
X4871153Y-3529501D01*
Y-3810499D01*
X4863034Y-3818618D01*
X4854600Y-3838980D01*
Y-3861020D01*
X4863034Y-3881381D01*
X4878618Y-3896966D01*
X4898980Y-3905400D01*
X4921020D01*
X4941381Y-3896966D01*
X4956966Y-3881381D01*
X4965400Y-3861020D01*
Y-3838980D01*
X4956966Y-3818618D01*
X4948846Y-3810499D01*
Y-3529501D01*
X4956966Y-3521381D01*
X4965400Y-3501020D01*
Y-3478980D01*
X4956966Y-3458618D01*
X4941381Y-3443034D01*
X4921020Y-3434600D01*
D02*
G37*
G36*
X2711020Y-3044600D02*
X2688980D01*
X2668618Y-3053034D01*
X2653034Y-3068618D01*
X2644600Y-3088980D01*
Y-3111020D01*
X2653034Y-3131381D01*
X2661153Y-3139501D01*
Y-3780000D01*
X2664110Y-3794866D01*
X2672531Y-3807468D01*
X2864600Y-3999537D01*
Y-4011020D01*
X2873034Y-4031381D01*
X2888619Y-4046966D01*
X2908980Y-4055400D01*
X2931020D01*
X2951381Y-4046966D01*
X2966966Y-4031381D01*
X2975400Y-4011020D01*
Y-3988980D01*
X2966966Y-3968618D01*
X2951381Y-3953034D01*
X2931020Y-3944600D01*
X2919537D01*
X2738846Y-3763909D01*
Y-3139501D01*
X2746966Y-3131381D01*
X2755400Y-3111020D01*
Y-3088980D01*
X2746966Y-3068618D01*
X2731381Y-3053034D01*
X2711020Y-3044600D01*
D02*
G37*
G36*
X4341020Y-4144600D02*
X4318980D01*
X4298619Y-4153034D01*
X4290499Y-4161153D01*
X2800002D01*
X2785136Y-4164111D01*
X2772533Y-4172531D01*
X2620464Y-4324601D01*
X2549600D01*
Y-4475400D01*
X2675401D01*
Y-4379538D01*
X2816092Y-4238846D01*
X4290499D01*
X4298619Y-4246966D01*
X4318980Y-4255400D01*
X4341020D01*
X4361381Y-4246966D01*
X4376966Y-4231381D01*
X4385400Y-4211020D01*
Y-4188980D01*
X4376966Y-4168619D01*
X4361381Y-4153034D01*
X4341020Y-4144600D01*
D02*
G37*
G36*
X7681020Y-4334600D02*
X7658980D01*
X7638618Y-4343034D01*
X7630499Y-4351154D01*
X7429501D01*
X7421381Y-4343034D01*
X7401020Y-4334600D01*
X7378980D01*
X7358619Y-4343034D01*
X7343034Y-4358619D01*
X7334600Y-4378980D01*
Y-4401020D01*
X7343034Y-4421382D01*
X7358619Y-4436966D01*
X7378980Y-4445400D01*
X7401020D01*
X7421381Y-4436966D01*
X7429501Y-4428847D01*
X7630499D01*
X7638618Y-4436966D01*
X7658980Y-4445400D01*
X7681020D01*
X7701381Y-4436966D01*
X7716966Y-4421382D01*
X7725400Y-4401020D01*
Y-4378980D01*
X7716966Y-4358619D01*
X7701381Y-4343034D01*
X7681020Y-4334600D01*
D02*
G37*
G36*
X5261020Y-4194600D02*
X5238980D01*
X5218618Y-4203034D01*
X5203034Y-4218618D01*
X5194600Y-4238980D01*
Y-4261020D01*
X5203034Y-4281381D01*
X5218618Y-4296966D01*
X5238980Y-4305400D01*
X5261020D01*
X5281381Y-4296966D01*
X5289501Y-4288846D01*
X5508909D01*
X5607100Y-4387037D01*
Y-4398520D01*
X5615534Y-4418881D01*
X5631119Y-4434466D01*
X5651480Y-4442900D01*
X5673520D01*
X5693881Y-4434466D01*
X5709466Y-4418881D01*
X5717900Y-4398520D01*
Y-4376480D01*
X5709466Y-4356119D01*
X5693881Y-4340534D01*
X5673520Y-4332100D01*
X5662037D01*
X5552468Y-4222531D01*
X5539866Y-4214110D01*
X5525000Y-4211153D01*
X5289501D01*
X5281381Y-4203034D01*
X5261020Y-4194600D01*
D02*
G37*
G36*
X9975400Y-4324601D02*
X9849599D01*
Y-4475400D01*
X9975400D01*
Y-4324601D01*
D02*
G37*
G36*
X9750000Y-524102D02*
X9700000D01*
X9690089Y-526074D01*
X9681688Y-531688D01*
X9676074Y-540089D01*
X9674102Y-550000D01*
Y-4550000D01*
X9676074Y-4559910D01*
X9681688Y-4568312D01*
X9690089Y-4573926D01*
X9700000Y-4575897D01*
X9750000D01*
X9759910Y-4573926D01*
X9768312Y-4568312D01*
X9773926Y-4559910D01*
X9775897Y-4550000D01*
Y-550000D01*
X9773926Y-540089D01*
X9768312Y-531688D01*
X9759910Y-526074D01*
X9750000Y-524102D01*
D02*
G37*
G36*
X11519698Y-4474103D02*
X11480301D01*
X11477800Y-4474600D01*
X11475249D01*
X11436609Y-4482286D01*
X11434253Y-4483262D01*
X11431751Y-4483760D01*
X11395354Y-4498836D01*
X11393233Y-4500253D01*
X11390876Y-4501230D01*
X11358120Y-4523117D01*
X11356316Y-4524921D01*
X11354195Y-4526338D01*
X11326337Y-4554195D01*
X11324920Y-4556316D01*
X11323117Y-4558120D01*
X11301229Y-4590877D01*
X11300253Y-4593233D01*
X11298836Y-4595354D01*
X11283759Y-4631752D01*
X11283262Y-4634254D01*
X11282286Y-4636610D01*
X11274600Y-4675249D01*
Y-4677800D01*
X11274102Y-4680302D01*
Y-4719698D01*
X11274600Y-4722200D01*
Y-4724751D01*
X11282286Y-4763390D01*
X11283262Y-4765747D01*
X11283759Y-4768249D01*
X11298836Y-4804646D01*
X11300253Y-4806767D01*
X11301229Y-4809123D01*
X11323117Y-4841880D01*
X11324920Y-4843684D01*
X11326337Y-4845805D01*
X11354195Y-4873663D01*
X11356316Y-4875079D01*
X11358119Y-4876883D01*
X11390876Y-4898771D01*
X11393233Y-4899747D01*
X11395354Y-4901164D01*
X11431751Y-4916240D01*
X11434253Y-4916738D01*
X11436610Y-4917714D01*
X11475249Y-4925400D01*
X11477800D01*
X11480301Y-4925897D01*
X11519698D01*
X11522200Y-4925400D01*
X11524750D01*
X11563390Y-4917714D01*
X11565746Y-4916738D01*
X11568248Y-4916240D01*
X11604646Y-4901164D01*
X11606767Y-4899747D01*
X11609123Y-4898771D01*
X11641880Y-4876883D01*
X11643684Y-4875080D01*
X11645804Y-4873663D01*
X11673662Y-4845805D01*
X11675079Y-4843684D01*
X11676883Y-4841881D01*
X11698770Y-4809123D01*
X11699746Y-4806767D01*
X11701164Y-4804646D01*
X11716240Y-4768249D01*
X11716738Y-4765747D01*
X11717714Y-4763390D01*
X11725400Y-4724751D01*
Y-4722200D01*
X11725897Y-4719698D01*
Y-4680302D01*
X11725400Y-4677800D01*
Y-4675249D01*
X11717714Y-4636610D01*
X11716738Y-4634253D01*
X11716240Y-4631752D01*
X11701164Y-4595354D01*
X11699746Y-4593233D01*
X11698770Y-4590877D01*
X11676883Y-4558120D01*
X11675079Y-4556316D01*
X11673662Y-4554195D01*
X11645804Y-4526338D01*
X11643684Y-4524921D01*
X11641880Y-4523117D01*
X11609123Y-4501230D01*
X11606767Y-4500253D01*
X11604646Y-4498836D01*
X11568248Y-4483760D01*
X11565746Y-4483262D01*
X11563390Y-4482286D01*
X11524751Y-4474600D01*
X11522200D01*
X11519698Y-4474103D01*
D02*
G37*
G36*
X469698D02*
X430301D01*
X427800Y-4474600D01*
X425249D01*
X386609Y-4482286D01*
X384253Y-4483262D01*
X381751Y-4483760D01*
X345354Y-4498836D01*
X343233Y-4500253D01*
X340876Y-4501230D01*
X308120Y-4523117D01*
X306316Y-4524921D01*
X304195Y-4526338D01*
X276337Y-4554195D01*
X274920Y-4556316D01*
X273117Y-4558120D01*
X251229Y-4590877D01*
X250253Y-4593233D01*
X248836Y-4595354D01*
X233760Y-4631752D01*
X233262Y-4634254D01*
X232286Y-4636610D01*
X224600Y-4675249D01*
Y-4677800D01*
X224102Y-4680302D01*
Y-4719698D01*
X224600Y-4722200D01*
Y-4724751D01*
X232286Y-4763390D01*
X233262Y-4765747D01*
X233760Y-4768249D01*
X248836Y-4804646D01*
X250253Y-4806767D01*
X251229Y-4809123D01*
X273117Y-4841880D01*
X274920Y-4843684D01*
X276337Y-4845805D01*
X304195Y-4873663D01*
X306316Y-4875079D01*
X308119Y-4876883D01*
X340876Y-4898771D01*
X343233Y-4899747D01*
X345354Y-4901164D01*
X381751Y-4916240D01*
X384253Y-4916738D01*
X386610Y-4917714D01*
X425249Y-4925400D01*
X427800D01*
X430301Y-4925897D01*
X469698D01*
X472200Y-4925400D01*
X474750D01*
X513390Y-4917714D01*
X515746Y-4916738D01*
X518248Y-4916240D01*
X554646Y-4901164D01*
X556767Y-4899747D01*
X559123Y-4898771D01*
X591880Y-4876883D01*
X593684Y-4875080D01*
X595804Y-4873663D01*
X623662Y-4845805D01*
X625079Y-4843684D01*
X626883Y-4841881D01*
X648770Y-4809123D01*
X649746Y-4806767D01*
X651164Y-4804646D01*
X666240Y-4768249D01*
X666738Y-4765747D01*
X667714Y-4763390D01*
X675400Y-4724751D01*
Y-4722200D01*
X675897Y-4719698D01*
Y-4680302D01*
X675400Y-4677800D01*
Y-4675249D01*
X667714Y-4636610D01*
X666738Y-4634253D01*
X666240Y-4631752D01*
X651164Y-4595354D01*
X649746Y-4593233D01*
X648770Y-4590877D01*
X626883Y-4558120D01*
X625079Y-4556316D01*
X623662Y-4554195D01*
X595804Y-4526338D01*
X593684Y-4524921D01*
X591880Y-4523117D01*
X559123Y-4501230D01*
X556767Y-4500253D01*
X554646Y-4498836D01*
X518248Y-4483760D01*
X515746Y-4483262D01*
X513390Y-4482286D01*
X474751Y-4474600D01*
X472200D01*
X469698Y-4474103D01*
D02*
G37*
%LPD*%
D62*
X2612500Y-4387501D02*
X2800002Y-4200000D01*
X4330000D01*
X6510000Y-2510000D02*
Y-2320000D01*
X6640000Y-2190000D01*
X6760000D01*
X7390000Y-4390000D02*
X7670000D01*
X2700000Y-3780000D02*
Y-3100000D01*
Y-3780000D02*
X2920000Y-4000000D01*
X2530000Y-3350000D02*
Y-3169300D01*
X1187500Y-2849999D02*
X1212301Y-2874800D01*
X1227180Y-2912680D02*
X2567682D01*
X1212301Y-2897801D02*
Y-2874800D01*
Y-2897801D02*
X1227180Y-2912680D01*
X10638750Y-3738750D02*
Y-3601250D01*
X10637499Y-3599999D02*
X10638750Y-3601250D01*
Y-3738750D02*
X10640000Y-3740000D01*
X9888750Y-2248750D02*
Y-2121250D01*
X9890000Y-2120000D01*
X9887499Y-2250001D02*
X9888750Y-2248750D01*
X10637499Y-1500001D02*
Y-1380000D01*
X11387499Y-2250001D02*
Y-2118571D01*
X9775000Y-4925000D02*
X9849999Y-4999999D01*
X9912500D01*
X5525000Y-4250000D02*
X5662500Y-4387500D01*
X5250000Y-4250000D02*
X5525000D01*
X2612500Y-4400001D02*
Y-4387501D01*
X2062500Y-2512499D02*
X2087301Y-2537299D01*
X2315181Y-2752680D02*
X2702680D01*
X2062500Y-2512499D02*
Y-2499999D01*
X2087301Y-2537299D02*
X2099800D01*
X2315181Y-2752680D01*
X4910000Y-3850000D02*
Y-3490000D01*
D63*
X6770000Y-2550000D02*
X7730637D01*
D66*
X6940000Y-1470000D02*
Y-1170000D01*
D70*
X1418000Y-548750D02*
D03*
X2282000D02*
D03*
D71*
X1418000Y-133750D02*
D03*
X2282000D02*
D03*
D72*
X1561000Y-498750D02*
D03*
X2139000D02*
D03*
D73*
X3969989Y-460003D02*
D03*
X4768006D02*
D03*
D74*
X4690000Y-1310000D02*
D03*
X7730000Y-2690000D02*
D03*
X7820000Y-2420000D02*
D03*
X7300000Y-4290000D02*
D03*
X7230000Y-4510000D02*
D03*
X7390000Y-4500000D02*
D03*
X7650000Y-4520000D02*
D03*
X7870000Y-4420000D02*
D03*
X7780000Y-4330000D02*
D03*
X4160000Y-4070000D02*
D03*
X4490000Y-4270000D02*
D03*
X4390000D02*
D03*
X4330000Y-4200000D02*
D03*
X4820000Y-3390000D02*
D03*
X5020000Y-3840000D02*
D03*
X5770000Y-4480000D02*
D03*
X5630000Y-4500000D02*
D03*
X5140000Y-4240000D02*
D03*
X5200000Y-4350000D02*
D03*
X2660000Y-4540000D02*
D03*
X2730000Y-4390000D02*
D03*
X2080000Y-2640000D02*
D03*
X1210000Y-2730000D02*
D03*
X1290170Y-2997008D02*
D03*
X2340000Y-1840000D02*
D03*
Y-1760000D02*
D03*
X2450000Y-1840000D02*
D03*
X2570000D02*
D03*
X2700000D02*
D03*
X2820000Y-1820000D02*
D03*
X2950000Y-1800000D02*
D03*
Y-1710000D02*
D03*
X2160000Y-1920000D02*
D03*
X2820000Y-2990000D02*
D03*
X2910000Y-4110000D02*
D03*
X3890000Y-2830000D02*
D03*
X3860000Y-3210000D02*
D03*
X5570000Y-2760000D02*
D03*
X4780000Y-2930000D02*
D03*
X5520000Y-3250000D02*
D03*
X5750000Y-2980000D02*
D03*
X4460000Y-3430000D02*
D03*
X4740000Y-2540000D02*
D03*
X4340000Y-2960000D02*
D03*
X5910000Y-2520000D02*
D03*
X5600000Y-2540000D02*
D03*
X5090000Y-2550000D02*
D03*
X6510000Y-2510000D02*
D03*
X6760000Y-2190000D02*
D03*
X7670000Y-4390000D02*
D03*
X8222000Y-3200000D02*
D03*
Y-2200000D02*
D03*
X7390000Y-4390000D02*
D03*
X6940000Y-1470000D02*
D03*
X7117781Y-1293411D02*
D03*
X6940000Y-1170000D02*
D03*
X5757301Y-1230000D02*
D03*
X7010000Y-1708000D02*
D03*
X6140000Y-1215000D02*
D03*
X2610000Y-3640000D02*
D03*
X7870000Y-2970000D02*
D03*
X7760000Y-2860000D02*
D03*
X10490000Y-1240000D02*
D03*
X10500000Y-1430000D02*
D03*
X10770000Y-1410000D02*
D03*
X11250000Y-1990000D02*
D03*
X11550000Y-2180000D02*
D03*
X11560000Y-2010000D02*
D03*
X10030000Y-1950000D02*
D03*
X10050000Y-2120000D02*
D03*
X10790000Y-3690000D02*
D03*
X10760000Y-3850000D02*
D03*
X10500000D02*
D03*
X9920000Y-4870000D02*
D03*
X9600000Y-4830000D02*
D03*
X9780000Y-4780000D02*
D03*
X7410000Y-4240000D02*
D03*
X1260000Y-2640000D02*
D03*
X1100000Y-2710000D02*
D03*
X1300000Y-2810000D02*
D03*
X2690000Y-2990000D02*
D03*
X2490000Y-3010000D02*
D03*
X2580000Y-2660000D02*
D03*
X2800000D02*
D03*
X2810000Y-4320000D02*
D03*
X2340000Y-4410000D02*
D03*
X2750000Y-4470000D02*
D03*
X4450000Y-1040000D02*
D03*
X5940000Y-2800000D02*
D03*
X5740000Y-3440000D02*
D03*
X6020000Y-3160000D02*
D03*
X6320000Y-2860000D02*
D03*
X6650000Y-3090000D02*
D03*
X6340000Y-3390000D02*
D03*
X6080000Y-3640000D02*
D03*
X4640000Y-3770000D02*
D03*
X5120000Y-3840000D02*
D03*
X5170000Y-3360000D02*
D03*
X4930000Y-3320000D02*
D03*
X4720000Y-3500000D02*
D03*
X6370000Y-2480000D02*
D03*
X7060000Y-2170000D02*
D03*
X6700000Y-2080000D02*
D03*
X6900000Y-2420000D02*
D03*
X6620000Y-2630000D02*
D03*
X6650000Y-2490000D02*
D03*
X6420000Y-2300000D02*
D03*
X980000Y-4730000D02*
D03*
X1430000Y-4720000D02*
D03*
X1900000Y-4770000D02*
D03*
X2060000Y-3950000D02*
D03*
X2340000Y-3600000D02*
D03*
X2830000Y-3330000D02*
D03*
X2530000Y-3169300D02*
D03*
X2700000Y-3100000D02*
D03*
X2920000Y-4000000D02*
D03*
X2420000Y-3310000D02*
D03*
X2530000Y-3350000D02*
D03*
X2950000Y-1610000D02*
D03*
X2820000Y-1720000D02*
D03*
X2700000Y-1760000D02*
D03*
X2570000D02*
D03*
X2620000Y-3940000D02*
D03*
X4760000Y-4200000D02*
D03*
X7220000Y-2920000D02*
D03*
X11510000Y-700000D02*
D03*
X11760000Y-1200000D02*
D03*
X11510000Y-1700000D02*
D03*
Y-2700000D02*
D03*
X11760000Y-3200000D02*
D03*
X11510000Y-3700000D02*
D03*
X11760000Y-4200000D02*
D03*
X11010000Y-700000D02*
D03*
X11260000Y-1200000D02*
D03*
X11010000Y-1700000D02*
D03*
X11260000Y-2200000D02*
D03*
X11010000Y-2700000D02*
D03*
X11260000Y-3200000D02*
D03*
X11010000Y-3700000D02*
D03*
X11260000Y-4200000D02*
D03*
X11010000Y-4700000D02*
D03*
X10760000Y-1200000D02*
D03*
X10510000Y-1700000D02*
D03*
X10760000Y-2200000D02*
D03*
X10510000Y-2700000D02*
D03*
X10760000Y-3200000D02*
D03*
X10510000Y-3700000D02*
D03*
X10760000Y-4200000D02*
D03*
X10510000Y-4700000D02*
D03*
X10010000Y-700000D02*
D03*
X10260000Y-1200000D02*
D03*
X10010000Y-1700000D02*
D03*
Y-2700000D02*
D03*
X10260000Y-3200000D02*
D03*
X10010000Y-3700000D02*
D03*
X10260000Y-4200000D02*
D03*
X9510000Y-700000D02*
D03*
Y-1700000D02*
D03*
Y-2700000D02*
D03*
Y-3700000D02*
D03*
Y-4700000D02*
D03*
X9010000Y-700000D02*
D03*
Y-1700000D02*
D03*
X9260000Y-2200000D02*
D03*
X9010000Y-2700000D02*
D03*
Y-3700000D02*
D03*
Y-4700000D02*
D03*
X8760000Y-3200000D02*
D03*
Y-4200000D02*
D03*
X8510000Y-4700000D02*
D03*
X8010000Y-2700000D02*
D03*
X8260000Y-4200000D02*
D03*
X7510000Y-700000D02*
D03*
X7760000Y-2200000D02*
D03*
X7510000Y-3700000D02*
D03*
X7010000Y-4700000D02*
D03*
X6510000Y-3700000D02*
D03*
X6760000Y-4200000D02*
D03*
X6510000Y-4700000D02*
D03*
X6260000Y-4200000D02*
D03*
X6010000Y-4700000D02*
D03*
X5510000D02*
D03*
X5010000Y-700000D02*
D03*
X5260000Y-3200000D02*
D03*
X4510000Y-700000D02*
D03*
Y-2700000D02*
D03*
X4760000Y-3200000D02*
D03*
X4010000Y-700000D02*
D03*
X3510000D02*
D03*
X3760000Y-1200000D02*
D03*
X3510000Y-2700000D02*
D03*
X3260000Y-2200000D02*
D03*
X2760000D02*
D03*
X2010000Y-2700000D02*
D03*
X2260000Y-4200000D02*
D03*
X1760000Y-2200000D02*
D03*
X1510000Y-2700000D02*
D03*
X1760000Y-4200000D02*
D03*
X1260000D02*
D03*
X510000Y-700000D02*
D03*
X760000Y-1200000D02*
D03*
X510000Y-2700000D02*
D03*
X2450000Y-1760000D02*
D03*
X1700000Y-2030000D02*
D03*
X1790000Y-1870000D02*
D03*
X2220000Y-1140000D02*
D03*
X2020000D02*
D03*
X2070000Y-2200000D02*
D03*
X1430000Y-900000D02*
D03*
X1700000Y-100000D02*
D03*
X2110000Y-990000D02*
D03*
X1750000Y-1060000D02*
D03*
X1620000Y-2670000D02*
D03*
X6180000Y-2520000D02*
D03*
X5650000Y-90000D02*
D03*
X5270000Y-540000D02*
D03*
X7680000Y-1030000D02*
D03*
X7000000Y-1040000D02*
D03*
X6840000Y-810000D02*
D03*
X1600000Y-1460000D02*
D03*
X4680000Y-4380000D02*
D03*
X4830000Y-4240000D02*
D03*
X6900000Y-2000000D02*
D03*
X270000Y-1220000D02*
D03*
X2770000Y-1510000D02*
D03*
X6170000Y-1980000D02*
D03*
X5570000Y-1720862D02*
D03*
X150000Y-1000000D02*
D03*
X1550000Y-5010000D02*
D03*
X1150000D02*
D03*
X2050000D02*
D03*
X1420343Y-3530000D02*
D03*
X1720000Y-3020000D02*
D03*
X2880000Y-3080000D02*
D03*
X3340000Y-4100000D02*
D03*
X3300000Y-4850000D02*
D03*
X1520000Y-4010000D02*
D03*
X5250000Y-4600000D02*
D03*
X150000Y-5000000D02*
D03*
Y-500000D02*
D03*
X7550000Y-5000000D02*
D03*
X8050000D02*
D03*
X9050000D02*
D03*
X9550000D02*
D03*
X10050000D02*
D03*
X10550000D02*
D03*
X11050000D02*
D03*
X11550000D02*
D03*
X11800000D02*
D03*
Y-4500000D02*
D03*
Y-4000000D02*
D03*
Y-3500000D02*
D03*
Y-3000000D02*
D03*
Y-1500000D02*
D03*
Y-1000000D02*
D03*
Y-500000D02*
D03*
X11550000Y-100000D02*
D03*
X11050000D02*
D03*
X8550000D02*
D03*
X7050000D02*
D03*
X6050000D02*
D03*
X4550000D02*
D03*
X4050000D02*
D03*
X3550000D02*
D03*
X550000D02*
D03*
X7410000Y-2040000D02*
D03*
X6060000Y-4090000D02*
D03*
X5450000Y-2970012D02*
D03*
X10640000Y-3740000D02*
D03*
X9890000Y-2120000D02*
D03*
X10637499Y-1380000D02*
D03*
X11387499Y-2118571D02*
D03*
X4950000Y-1650000D02*
D03*
X6140000Y-1040000D02*
D03*
X3900000Y-2550000D02*
D03*
X9775000Y-4925000D02*
D03*
X5662500Y-4387500D02*
D03*
X5250000Y-4250000D02*
D03*
X2567682Y-2912680D02*
D03*
X2702680Y-2752680D02*
D03*
X6770000Y-2550000D02*
D03*
X7730637D02*
D03*
X4910000Y-3490000D02*
D03*
Y-3850000D02*
D03*
X5750000Y-1050000D02*
D03*
X4150000Y-1350000D02*
D03*
D75*
X11762500Y-2849999D02*
D03*
Y-2250001D02*
D03*
X11387499Y-2849999D02*
D03*
Y-2250001D02*
D03*
X10637499Y-1500001D02*
D03*
Y-2099999D02*
D03*
X11012500Y-1500001D02*
D03*
Y-2099999D02*
D03*
X812500Y-2250001D02*
D03*
Y-2849999D02*
D03*
X1187500Y-2250001D02*
D03*
Y-2849999D02*
D03*
X1687500Y-1900001D02*
D03*
Y-2499999D02*
D03*
X2062500Y-1900001D02*
D03*
Y-2499999D02*
D03*
X10637499Y-3000001D02*
D03*
Y-3599999D02*
D03*
X11012500Y-3000001D02*
D03*
Y-3599999D02*
D03*
X9887499Y-2250001D02*
D03*
Y-2849999D02*
D03*
X10262500Y-2250001D02*
D03*
Y-2849999D02*
D03*
X9912500Y-4400001D02*
D03*
Y-4999999D02*
D03*
X10287500Y-4400001D02*
D03*
Y-4999999D02*
D03*
X2612500D02*
D03*
Y-4400001D02*
D03*
X2237500Y-4999999D02*
D03*
Y-4400001D02*
D03*
%TF.MD5,ebaa2f9e4daed3417779ca638f6c655f*%
M02*
