%TF.GenerationSoftware,Altium Limited,Altium Designer,22.1.2 (22)*%
G04 Layer_Color=32768*
%FSLAX45Y45*%
%MOMM*%
%TF.SameCoordinates,561DFBA5-A42D-4BA1-BAD0-C4916DA7A156*%
%TF.FilePolarity,Positive*%
%TF.FileFunction,Other,Top_Tenting*%
%TF.Part,Single*%
G01*
G75*
%TA.AperFunction,SMDPad,CuDef*%
%ADD130C,0.60000*%
D130*
X4150000Y-1350000D02*
D03*
X5750000Y-1050000D02*
D03*
X4910000Y-3850000D02*
D03*
Y-3490000D02*
D03*
X7730637Y-2550000D02*
D03*
X6770000D02*
D03*
X2702680Y-2752680D02*
D03*
X2567682Y-2912680D02*
D03*
X5250000Y-4250000D02*
D03*
X5662500Y-4387500D02*
D03*
X9775000Y-4925000D02*
D03*
X3900000Y-2550000D02*
D03*
X6140000Y-1040000D02*
D03*
X4950000Y-1650000D02*
D03*
X11387499Y-2118571D02*
D03*
X10637499Y-1380000D02*
D03*
X9890000Y-2120000D02*
D03*
X10640000Y-3740000D02*
D03*
X5450000Y-2970012D02*
D03*
X6060000Y-4090000D02*
D03*
X7410000Y-2040000D02*
D03*
X550000Y-100000D02*
D03*
X3550000D02*
D03*
X4050000D02*
D03*
X4550000D02*
D03*
X6050000D02*
D03*
X7050000D02*
D03*
X8550000D02*
D03*
X11050000D02*
D03*
X11550000D02*
D03*
X11800000Y-500000D02*
D03*
Y-1000000D02*
D03*
Y-1500000D02*
D03*
Y-3000000D02*
D03*
Y-3500000D02*
D03*
Y-4000000D02*
D03*
Y-4500000D02*
D03*
Y-5000000D02*
D03*
X11550000D02*
D03*
X11050000D02*
D03*
X10550000D02*
D03*
X10050000D02*
D03*
X9550000D02*
D03*
X9050000D02*
D03*
X8050000D02*
D03*
X7550000D02*
D03*
X150000Y-500000D02*
D03*
Y-5000000D02*
D03*
X5250000Y-4600000D02*
D03*
X1520000Y-4010000D02*
D03*
X3300000Y-4850000D02*
D03*
X3340000Y-4100000D02*
D03*
X2880000Y-3080000D02*
D03*
X1720000Y-3020000D02*
D03*
X1420343Y-3530000D02*
D03*
X2050000Y-5010000D02*
D03*
X1150000D02*
D03*
X1550000D02*
D03*
X150000Y-1000000D02*
D03*
X5570000Y-1720862D02*
D03*
X6170000Y-1980000D02*
D03*
X2770000Y-1510000D02*
D03*
X270000Y-1220000D02*
D03*
X6900000Y-2000000D02*
D03*
X4830000Y-4240000D02*
D03*
X4680000Y-4380000D02*
D03*
X1600000Y-1460000D02*
D03*
X6840000Y-810000D02*
D03*
X7000000Y-1040000D02*
D03*
X7680000Y-1030000D02*
D03*
X5270000Y-540000D02*
D03*
X5650000Y-90000D02*
D03*
X6180000Y-2520000D02*
D03*
X1620000Y-2670000D02*
D03*
X1750000Y-1060000D02*
D03*
X2110000Y-990000D02*
D03*
X1700000Y-100000D02*
D03*
X1430000Y-900000D02*
D03*
X2070000Y-2200000D02*
D03*
X2020000Y-1140000D02*
D03*
X2220000D02*
D03*
X1790000Y-1870000D02*
D03*
X1700000Y-2030000D02*
D03*
X2450000Y-1760000D02*
D03*
X510000Y-2700000D02*
D03*
X760000Y-1200000D02*
D03*
X510000Y-700000D02*
D03*
X1260000Y-4200000D02*
D03*
X1760000D02*
D03*
X1510000Y-2700000D02*
D03*
X1760000Y-2200000D02*
D03*
X2260000Y-4200000D02*
D03*
X2010000Y-2700000D02*
D03*
X2760000Y-2200000D02*
D03*
X3260000D02*
D03*
X3510000Y-2700000D02*
D03*
X3760000Y-1200000D02*
D03*
X3510000Y-700000D02*
D03*
X4010000D02*
D03*
X4760000Y-3200000D02*
D03*
X4510000Y-2700000D02*
D03*
Y-700000D02*
D03*
X5260000Y-3200000D02*
D03*
X5010000Y-700000D02*
D03*
X5510000Y-4700000D02*
D03*
X6010000D02*
D03*
X6260000Y-4200000D02*
D03*
X6510000Y-4700000D02*
D03*
X6760000Y-4200000D02*
D03*
X6510000Y-3700000D02*
D03*
X7010000Y-4700000D02*
D03*
X7510000Y-3700000D02*
D03*
X7760000Y-2200000D02*
D03*
X7510000Y-700000D02*
D03*
X8260000Y-4200000D02*
D03*
X8010000Y-2700000D02*
D03*
X8510000Y-4700000D02*
D03*
X8760000Y-4200000D02*
D03*
Y-3200000D02*
D03*
X9010000Y-4700000D02*
D03*
Y-3700000D02*
D03*
Y-2700000D02*
D03*
X9260000Y-2200000D02*
D03*
X9010000Y-1700000D02*
D03*
Y-700000D02*
D03*
X9510000Y-4700000D02*
D03*
Y-3700000D02*
D03*
Y-2700000D02*
D03*
Y-1700000D02*
D03*
Y-700000D02*
D03*
X10260000Y-4200000D02*
D03*
X10010000Y-3700000D02*
D03*
X10260000Y-3200000D02*
D03*
X10010000Y-2700000D02*
D03*
Y-1700000D02*
D03*
X10260000Y-1200000D02*
D03*
X10010000Y-700000D02*
D03*
X10510000Y-4700000D02*
D03*
X10760000Y-4200000D02*
D03*
X10510000Y-3700000D02*
D03*
X10760000Y-3200000D02*
D03*
X10510000Y-2700000D02*
D03*
X10760000Y-2200000D02*
D03*
X10510000Y-1700000D02*
D03*
X10760000Y-1200000D02*
D03*
X11010000Y-4700000D02*
D03*
X11260000Y-4200000D02*
D03*
X11010000Y-3700000D02*
D03*
X11260000Y-3200000D02*
D03*
X11010000Y-2700000D02*
D03*
X11260000Y-2200000D02*
D03*
X11010000Y-1700000D02*
D03*
X11260000Y-1200000D02*
D03*
X11010000Y-700000D02*
D03*
X11760000Y-4200000D02*
D03*
X11510000Y-3700000D02*
D03*
X11760000Y-3200000D02*
D03*
X11510000Y-2700000D02*
D03*
Y-1700000D02*
D03*
X11760000Y-1200000D02*
D03*
X11510000Y-700000D02*
D03*
X7220000Y-2920000D02*
D03*
X4760000Y-4200000D02*
D03*
X2620000Y-3940000D02*
D03*
X2570000Y-1760000D02*
D03*
X2700000D02*
D03*
X2820000Y-1720000D02*
D03*
X2950000Y-1610000D02*
D03*
X2530000Y-3350000D02*
D03*
X2420000Y-3310000D02*
D03*
X2920000Y-4000000D02*
D03*
X2700000Y-3100000D02*
D03*
X2530000Y-3169300D02*
D03*
X2830000Y-3330000D02*
D03*
X2340000Y-3600000D02*
D03*
X2060000Y-3950000D02*
D03*
X1900000Y-4770000D02*
D03*
X1430000Y-4720000D02*
D03*
X980000Y-4730000D02*
D03*
X6420000Y-2300000D02*
D03*
X6650000Y-2490000D02*
D03*
X6620000Y-2630000D02*
D03*
X6900000Y-2420000D02*
D03*
X6700000Y-2080000D02*
D03*
X7060000Y-2170000D02*
D03*
X6370000Y-2480000D02*
D03*
X4720000Y-3500000D02*
D03*
X4930000Y-3320000D02*
D03*
X5170000Y-3360000D02*
D03*
X5120000Y-3840000D02*
D03*
X4640000Y-3770000D02*
D03*
X6080000Y-3640000D02*
D03*
X6340000Y-3390000D02*
D03*
X6650000Y-3090000D02*
D03*
X6320000Y-2860000D02*
D03*
X6020000Y-3160000D02*
D03*
X5740000Y-3440000D02*
D03*
X5940000Y-2800000D02*
D03*
X4450000Y-1040000D02*
D03*
X2750000Y-4470000D02*
D03*
X2340000Y-4410000D02*
D03*
X2810000Y-4320000D02*
D03*
X2800000Y-2660000D02*
D03*
X2580000D02*
D03*
X2490000Y-3010000D02*
D03*
X2690000Y-2990000D02*
D03*
X1300000Y-2810000D02*
D03*
X1100000Y-2710000D02*
D03*
X1260000Y-2640000D02*
D03*
X7410000Y-4240000D02*
D03*
X9780000Y-4780000D02*
D03*
X9600000Y-4830000D02*
D03*
X9920000Y-4870000D02*
D03*
X10500000Y-3850000D02*
D03*
X10760000D02*
D03*
X10790000Y-3690000D02*
D03*
X10050000Y-2120000D02*
D03*
X10030000Y-1950000D02*
D03*
X11560000Y-2010000D02*
D03*
X11550000Y-2180000D02*
D03*
X11250000Y-1990000D02*
D03*
X10770000Y-1410000D02*
D03*
X10500000Y-1430000D02*
D03*
X10490000Y-1240000D02*
D03*
X7760000Y-2860000D02*
D03*
X7870000Y-2970000D02*
D03*
X2610000Y-3640000D02*
D03*
X6140000Y-1215000D02*
D03*
X7010000Y-1708000D02*
D03*
X5757301Y-1230000D02*
D03*
X6940000Y-1170000D02*
D03*
X7117781Y-1293411D02*
D03*
X6940000Y-1470000D02*
D03*
X7390000Y-4390000D02*
D03*
X8222000Y-2200000D02*
D03*
Y-3200000D02*
D03*
X7670000Y-4390000D02*
D03*
X6760000Y-2190000D02*
D03*
X6510000Y-2510000D02*
D03*
X5090000Y-2550000D02*
D03*
X5600000Y-2540000D02*
D03*
X5910000Y-2520000D02*
D03*
X4340000Y-2960000D02*
D03*
X4740000Y-2540000D02*
D03*
X4460000Y-3430000D02*
D03*
X5750000Y-2980000D02*
D03*
X5520000Y-3250000D02*
D03*
X4780000Y-2930000D02*
D03*
X5570000Y-2760000D02*
D03*
X3860000Y-3210000D02*
D03*
X3890000Y-2830000D02*
D03*
X2910000Y-4110000D02*
D03*
X2820000Y-2990000D02*
D03*
X2160000Y-1920000D02*
D03*
X2950000Y-1710000D02*
D03*
Y-1800000D02*
D03*
X2820000Y-1820000D02*
D03*
X2700000Y-1840000D02*
D03*
X2570000D02*
D03*
X2450000D02*
D03*
X2340000Y-1760000D02*
D03*
Y-1840000D02*
D03*
X1290170Y-2997008D02*
D03*
X1210000Y-2730000D02*
D03*
X2080000Y-2640000D02*
D03*
X2730000Y-4390000D02*
D03*
X2660000Y-4540000D02*
D03*
X5200000Y-4350000D02*
D03*
X5140000Y-4240000D02*
D03*
X5630000Y-4500000D02*
D03*
X5770000Y-4480000D02*
D03*
X5020000Y-3840000D02*
D03*
X4820000Y-3390000D02*
D03*
X4330000Y-4200000D02*
D03*
X4390000Y-4270000D02*
D03*
X4490000D02*
D03*
X4160000Y-4070000D02*
D03*
X7780000Y-4330000D02*
D03*
X7870000Y-4420000D02*
D03*
X7650000Y-4520000D02*
D03*
X7390000Y-4500000D02*
D03*
X7230000Y-4510000D02*
D03*
X7300000Y-4290000D02*
D03*
X7820000Y-2420000D02*
D03*
X7730000Y-2690000D02*
D03*
X4690000Y-1310000D02*
D03*
%TF.MD5,a6d32a6c18450cb20854364eb86f761a*%
M02*
