%TF.GenerationSoftware,Altium Limited,Altium Designer,22.1.2 (22)*%
G04 Layer_Physical_Order=1*
G04 Layer_Color=255*
%FSLAX45Y45*%
%MOMM*%
%TF.SameCoordinates,561DFBA5-A42D-4BA1-BAD0-C4916DA7A156*%
%TF.FilePolarity,Positive*%
%TF.FileFunction,Copper,L1,Top,Signal*%
%TF.Part,Single*%
G01*
G75*
%TA.AperFunction,SMDPad,CuDef*%
%ADD10R,0.55001X0.25001*%
%ADD11R,0.55001X0.20000*%
%ADD12R,0.30000X0.60000*%
%ADD13R,0.60000X0.60000*%
%TA.AperFunction,SMDPad,SMDef*%
%ADD14R,0.25000X0.60000*%
G04:AMPARAMS|DCode=15|XSize=0.6mm|YSize=0.25mm|CornerRadius=0.125mm|HoleSize=0mm|Usage=FLASHONLY|Rotation=90.000|XOffset=0mm|YOffset=0mm|HoleType=Round|Shape=RoundedRectangle|*
%AMROUNDEDRECTD15*
21,1,0.60000,0.00000,0,0,90.0*
21,1,0.35000,0.25000,0,0,90.0*
1,1,0.25000,0.00000,0.17500*
1,1,0.25000,0.00000,-0.17500*
1,1,0.25000,0.00000,-0.17500*
1,1,0.25000,0.00000,0.17500*
%
%ADD15ROUNDEDRECTD15*%
%ADD16R,0.44000X1.64000*%
%TA.AperFunction,ConnectorPad*%
%ADD17R,0.60000X1.15000*%
%ADD18R,0.30000X1.15000*%
%TA.AperFunction,SMDPad,CuDef*%
%ADD19R,0.70000X1.60000*%
%ADD20R,1.20000X1.40000*%
%ADD21R,1.60000X1.40000*%
%ADD22R,1.20000X2.20000*%
%ADD23R,1.35001X1.80000*%
%ADD24R,1.25001X0.70000*%
%ADD25O,0.55999X1.74501*%
%ADD26R,3.40000X0.98000*%
%ADD27R,1.35574X1.80822*%
%ADD28R,0.90000X0.80000*%
%ADD29R,1.00000X1.35000*%
%ADD30R,0.95413X3.25822*%
%ADD31R,0.80000X0.60000*%
%ADD32R,0.50000X0.45000*%
%ADD33R,0.80000X0.80000*%
%ADD34R,3.15000X1.78000*%
%TA.AperFunction,ConnectorPad*%
%ADD35R,0.90000X2.00000*%
%ADD36R,1.10000X0.93000*%
%TA.AperFunction,SMDPad,CuDef*%
%ADD37R,3.50000X1.00000*%
%ADD38R,3.40000X1.50000*%
%ADD39R,3.19999X2.50000*%
%ADD40R,1.80000X0.34000*%
%ADD41R,0.95001X2.10000*%
%ADD42R,2.10000X0.95001*%
%TA.AperFunction,BGAPad,CuDef*%
%ADD43R,0.90000X0.90000*%
%TA.AperFunction,SMDPad,CuDef*%
%ADD44R,1.05964X0.23583*%
G04:AMPARAMS|DCode=45|XSize=1.05964mm|YSize=0.23583mm|CornerRadius=0.11791mm|HoleSize=0mm|Usage=FLASHONLY|Rotation=180.000|XOffset=0mm|YOffset=0mm|HoleType=Round|Shape=RoundedRectangle|*
%AMROUNDEDRECTD45*
21,1,1.05964,0.00000,0,0,180.0*
21,1,0.82381,0.23583,0,0,180.0*
1,1,0.23583,-0.41190,0.00000*
1,1,0.23583,0.41190,0.00000*
1,1,0.23583,0.41190,0.00000*
1,1,0.23583,-0.41190,0.00000*
%
%ADD45ROUNDEDRECTD45*%
%ADD46R,0.20000X0.35001*%
%ADD47R,0.75814X0.81213*%
%ADD48R,1.00620X1.10506*%
%ADD49R,0.96602X0.23928*%
G04:AMPARAMS|DCode=50|XSize=0.96602mm|YSize=0.23928mm|CornerRadius=0.11964mm|HoleSize=0mm|Usage=FLASHONLY|Rotation=0.000|XOffset=0mm|YOffset=0mm|HoleType=Round|Shape=RoundedRectangle|*
%AMROUNDEDRECTD50*
21,1,0.96602,0.00000,0,0,0.0*
21,1,0.72673,0.23928,0,0,0.0*
1,1,0.23928,0.36337,0.00000*
1,1,0.23928,-0.36337,0.00000*
1,1,0.23928,-0.36337,0.00000*
1,1,0.23928,0.36337,0.00000*
%
%ADD50ROUNDEDRECTD50*%
G04:AMPARAMS|DCode=51|XSize=0.23928mm|YSize=0.96602mm|CornerRadius=0.11964mm|HoleSize=0mm|Usage=FLASHONLY|Rotation=0.000|XOffset=0mm|YOffset=0mm|HoleType=Round|Shape=RoundedRectangle|*
%AMROUNDEDRECTD51*
21,1,0.23928,0.72673,0,0,0.0*
21,1,0.00000,0.96602,0,0,0.0*
1,1,0.23928,0.00000,-0.36337*
1,1,0.23928,0.00000,-0.36337*
1,1,0.23928,0.00000,0.36337*
1,1,0.23928,0.00000,0.36337*
%
%ADD51ROUNDEDRECTD51*%
%ADD52R,1.68000X1.68000*%
%ADD53R,1.10606X0.95822*%
%ADD54R,1.10506X1.00620*%
%ADD55R,0.81213X0.75814*%
%ADD56R,1.50000X3.40000*%
%ADD57R,1.00000X3.50000*%
%ADD58R,0.45000X0.50000*%
%ADD59O,1.74501X0.55999*%
%ADD60R,0.80000X0.90000*%
%ADD61R,1.78000X3.15000*%
%TA.AperFunction,Conductor*%
%ADD62C,0.25400*%
%ADD63C,0.35000*%
%ADD64C,0.50000*%
%ADD65C,0.20000*%
%ADD66C,0.15000*%
%ADD67C,0.85000*%
%ADD68C,0.15600*%
%ADD69C,0.30000*%
%TA.AperFunction,ComponentPad*%
%ADD70O,1.05000X2.15000*%
%ADD71O,1.05000X1.85000*%
%ADD72C,0.70000*%
%ADD73C,1.00000*%
%TA.AperFunction,ViaPad*%
%ADD74C,0.60000*%
G36*
X6512100Y-52100D02*
X6512100Y-62700D01*
Y-147899D01*
X6528654D01*
Y-165521D01*
X6517199Y-182665D01*
X6513054Y-203500D01*
Y-322001D01*
X6517199Y-342837D01*
X6529001Y-360500D01*
X6541062Y-368560D01*
X6537210Y-381260D01*
X6343790D01*
X6339938Y-368560D01*
X6351999Y-360500D01*
X6363802Y-342837D01*
X6367946Y-322001D01*
Y-203500D01*
X6363802Y-182665D01*
X6351999Y-165001D01*
X6334336Y-153199D01*
X6313500Y-149054D01*
X6292665Y-153199D01*
X6275001Y-165001D01*
X6263199Y-182665D01*
X6259054Y-203500D01*
Y-322001D01*
X6263199Y-342837D01*
X6275001Y-360500D01*
X6287062Y-368560D01*
X6283210Y-381260D01*
X6239184D01*
X6228761Y-368559D01*
X6229650Y-364090D01*
Y-353540D01*
X6236802Y-342837D01*
X6240946Y-322001D01*
Y-203500D01*
X6236802Y-182665D01*
X6224999Y-165001D01*
X6207336Y-153199D01*
X6186500Y-149054D01*
X6165665Y-153199D01*
X6148001Y-165001D01*
X6136199Y-182665D01*
X6132054Y-203500D01*
Y-322001D01*
X6136199Y-342837D01*
X6139846Y-348295D01*
X6106882Y-381260D01*
X6089790D01*
X6085938Y-368560D01*
X6097999Y-360500D01*
X6109802Y-342837D01*
X6113946Y-322001D01*
Y-203500D01*
X6109802Y-182665D01*
X6097999Y-165001D01*
X6080336Y-153199D01*
X6059500Y-149054D01*
X6038665Y-153199D01*
X6021001Y-165001D01*
X6009199Y-182665D01*
X6005054Y-203500D01*
Y-322001D01*
X6009199Y-342837D01*
X6021001Y-360500D01*
X6033062Y-368560D01*
X6029210Y-381260D01*
X5835790D01*
X5831938Y-368560D01*
X5843999Y-360500D01*
X5855802Y-342837D01*
X5859946Y-322001D01*
Y-203500D01*
X5855802Y-182665D01*
X5843999Y-165001D01*
X5826336Y-153199D01*
X5805500Y-149054D01*
X5784665Y-153199D01*
X5767001Y-165001D01*
X5755199Y-182665D01*
X5751054Y-203500D01*
Y-322001D01*
X5755199Y-342837D01*
X5767001Y-360500D01*
X5783578Y-371577D01*
X5784073Y-376831D01*
X5782819Y-384885D01*
X5769071Y-394071D01*
X5625473Y-537668D01*
X5613740Y-532808D01*
Y-498706D01*
X5636006D01*
Y-372092D01*
X5503993D01*
Y-498706D01*
X5526259D01*
Y-636882D01*
X5096880Y-1066262D01*
X4624998D01*
X4608259Y-1069591D01*
X4594069Y-1079073D01*
X4349998Y-1323144D01*
X4245925Y-1219071D01*
X4231734Y-1209589D01*
X4214996Y-1206260D01*
X4000000D01*
X3983261Y-1209589D01*
X3969071Y-1219071D01*
X3844069Y-1344073D01*
X3834587Y-1358263D01*
X3831258Y-1375002D01*
Y-1504052D01*
X3711020Y-1624290D01*
X3639404D01*
Y-1775710D01*
X3775838D01*
X3780699Y-1787443D01*
X3049883Y-2518259D01*
X2520400D01*
Y-2487599D01*
X2129600D01*
Y-2518259D01*
X2095517D01*
X2018487Y-2441229D01*
X2015411Y-2425761D01*
X2013108Y-2422315D01*
X2010701Y-2410212D01*
X2002324Y-2397675D01*
X1989788Y-2389299D01*
X1975000Y-2386357D01*
X1960212Y-2389299D01*
X1960100Y-2389374D01*
X1947400Y-2382585D01*
Y-2200100D01*
X1947400D01*
X1947497Y-2187440D01*
X1966091Y-2168847D01*
X2143909D01*
X2213929Y-2238866D01*
X2209069Y-2250600D01*
X2129600D01*
Y-2399399D01*
X2520400D01*
Y-2250600D01*
X2321191D01*
X2318668Y-2237912D01*
X2310247Y-2225310D01*
X2191377Y-2106440D01*
X2196638Y-2093740D01*
X3190000D01*
X3206739Y-2090411D01*
X3220929Y-2080929D01*
X3330929Y-1970929D01*
X3340411Y-1956739D01*
X3343740Y-1940000D01*
Y-770000D01*
X3340411Y-753261D01*
X3330929Y-739071D01*
X3168746Y-576888D01*
Y-524472D01*
X3181898D01*
X3184780Y-527354D01*
X3197382Y-535775D01*
X3212248Y-538732D01*
X3274290D01*
Y-580539D01*
X3425710D01*
Y-419233D01*
X3274290D01*
Y-461039D01*
X3228339D01*
X3195405Y-428106D01*
Y-410791D01*
X3199597Y-399827D01*
X3208106Y-399827D01*
X3360396D01*
Y-256027D01*
X3199596D01*
Y-262709D01*
X3195405Y-273673D01*
X3186896Y-273673D01*
X3105650D01*
X3101479Y-260973D01*
X3110418Y-249323D01*
X3117388Y-232497D01*
X3119765Y-214440D01*
X3117388Y-196383D01*
X3110418Y-179557D01*
X3099331Y-165108D01*
X3084882Y-154021D01*
X3068056Y-147051D01*
X3049999Y-144674D01*
X3031942Y-147051D01*
X3015116Y-154021D01*
X3000667Y-165108D01*
X2989580Y-179557D01*
X2982610Y-196383D01*
X2980233Y-214440D01*
X2982610Y-232497D01*
X2989580Y-249323D01*
X3000667Y-263772D01*
X3015116Y-274859D01*
X3031942Y-281829D01*
X3049999Y-284206D01*
X3054606Y-288246D01*
Y-524472D01*
X3081265D01*
Y-595005D01*
X3084595Y-611744D01*
X3094076Y-625934D01*
X3256260Y-788118D01*
Y-1921882D01*
X3171882Y-2006260D01*
X3105271D01*
X3100411Y-1994526D01*
X3187469Y-1907468D01*
X3195889Y-1894866D01*
X3198847Y-1880000D01*
Y-1727900D01*
X3207900D01*
Y-1652900D01*
Y-1552100D01*
X3201240D01*
Y-1423118D01*
X3220929Y-1403429D01*
X3230411Y-1389239D01*
X3233740Y-1372500D01*
Y-870000D01*
X3230411Y-853261D01*
X3220929Y-839071D01*
X3010929Y-629071D01*
X2996739Y-619589D01*
X2980000Y-616260D01*
X2812192D01*
X2807332Y-604526D01*
X2849859Y-561999D01*
X2859341Y-547808D01*
X2862671Y-531070D01*
Y-524472D01*
X2895406D01*
Y-273673D01*
X2805650D01*
X2801480Y-260973D01*
X2810419Y-249323D01*
X2817389Y-232497D01*
X2819766Y-214440D01*
X2817389Y-196383D01*
X2810419Y-179557D01*
X2799332Y-165108D01*
X2784883Y-154021D01*
X2768057Y-147051D01*
X2750000Y-144674D01*
X2731943Y-147051D01*
X2715117Y-154021D01*
X2700668Y-165108D01*
X2689581Y-179557D01*
X2682611Y-196383D01*
X2680234Y-214440D01*
X2682611Y-232497D01*
X2689581Y-249323D01*
X2698520Y-260973D01*
X2694349Y-273673D01*
X2604619Y-273673D01*
X2600403Y-262719D01*
Y-256027D01*
X2439603D01*
Y-399827D01*
X2591919D01*
X2600402Y-399827D01*
X2604619Y-410781D01*
Y-524472D01*
X2745419D01*
Y-524473D01*
X2745709D01*
X2750969Y-537173D01*
X2659071Y-629071D01*
X2619071Y-669071D01*
X2619070Y-669071D01*
X2563852Y-724290D01*
X2459404D01*
Y-875710D01*
X2606259D01*
Y-914491D01*
X2606259Y-914492D01*
X2606259Y-914493D01*
Y-1242500D01*
Y-1311882D01*
X2509521Y-1408621D01*
X2477639D01*
X2473882Y-1409368D01*
X2462780Y-1398628D01*
X2462900Y-1397900D01*
X2462900D01*
Y-1302100D01*
X2362100D01*
Y-1397899D01*
X2362100Y-1397900D01*
X2362099D01*
X2353609Y-1406454D01*
X2323910Y-1436153D01*
X2244612D01*
X2244610Y-1436153D01*
X2240839Y-1436903D01*
X2210401D01*
Y-1422896D01*
X2212716Y-1419432D01*
X2216045Y-1402694D01*
Y-1375813D01*
X2332260Y-1259598D01*
X2343994Y-1264458D01*
Y-1266006D01*
X2470607D01*
Y-1133993D01*
X2343994D01*
Y-1156260D01*
X2330000D01*
X2313261Y-1159589D01*
X2299071Y-1169071D01*
X2265339Y-1202803D01*
X1615400D01*
Y-1188850D01*
X1805000D01*
X1817954Y-1186274D01*
X1828936Y-1178936D01*
X1948936Y-1058936D01*
X1956274Y-1047954D01*
X1958850Y-1035000D01*
Y-1005400D01*
X1980400D01*
Y-894600D01*
X1958851D01*
Y-737881D01*
X1970584Y-733021D01*
X2042100Y-804537D01*
Y-847900D01*
X2142900D01*
Y-752100D01*
X2099537D01*
X2048321Y-700883D01*
X2053181Y-689150D01*
X2145400D01*
Y-559150D01*
X2151014D01*
X2173214Y-549955D01*
X2190205Y-532964D01*
X2190728Y-531701D01*
X2203428Y-534227D01*
Y-536050D01*
X2269300D01*
Y-416850D01*
X2261664Y-417855D01*
X2242714Y-425705D01*
X2226441Y-438191D01*
X2213955Y-454464D01*
X2206867Y-471575D01*
X2201039Y-472984D01*
X2193437Y-472340D01*
X2190205Y-464536D01*
X2173214Y-447545D01*
X2151014Y-438350D01*
X2126986D01*
X2104786Y-447545D01*
X2087795Y-464536D01*
X2086062Y-468722D01*
X2073606Y-471199D01*
X1971477Y-369071D01*
X1957287Y-359589D01*
X1940548Y-356260D01*
X1759452D01*
X1742714Y-359589D01*
X1728523Y-369071D01*
X1690976Y-406618D01*
X1613429Y-329071D01*
X1599239Y-319589D01*
X1582500Y-316260D01*
X1418123D01*
X1343740Y-241877D01*
Y-239995D01*
X1342900Y-235770D01*
Y-224704D01*
X1355600Y-220393D01*
X1362441Y-229309D01*
X1378714Y-241795D01*
X1397664Y-249645D01*
X1405300Y-250650D01*
Y-133750D01*
X1418000D01*
Y-121050D01*
X1496572D01*
Y-93750D01*
X1493895Y-73414D01*
X1489457Y-62700D01*
X1497943Y-50000D01*
X2202057D01*
X2210543Y-62700D01*
X2206105Y-73414D01*
X2203428Y-93750D01*
Y-121050D01*
X2282000D01*
X2360572D01*
Y-93750D01*
X2357895Y-73414D01*
X2353457Y-62700D01*
X2361943Y-50000D01*
X2439603D01*
Y-172827D01*
X2600403D01*
Y-50000D01*
X3199596D01*
Y-172827D01*
X3360396D01*
Y-50000D01*
X6500270D01*
X6512100Y-52100D01*
D02*
G37*
G36*
X11850000Y-5050000D02*
X100000D01*
Y-50000D01*
X966096D01*
X977100Y-54096D01*
Y-282895D01*
X1263706D01*
X1269071Y-290924D01*
X1369076Y-390929D01*
X1383266Y-400411D01*
X1400005Y-403740D01*
X1407579D01*
X1408411Y-416440D01*
X1397664Y-417855D01*
X1378714Y-425705D01*
X1362441Y-438191D01*
X1349955Y-454464D01*
X1342105Y-473414D01*
X1339428Y-493750D01*
Y-536050D01*
X1418000D01*
X1496572D01*
Y-534227D01*
X1509272Y-531701D01*
X1509796Y-532964D01*
X1526786Y-549955D01*
X1548986Y-559150D01*
X1554600D01*
Y-689150D01*
X1636154D01*
Y-716409D01*
X1600463Y-752100D01*
X1557100D01*
Y-847900D01*
X1657900D01*
Y-804537D01*
X1702469Y-759968D01*
X1710890Y-747366D01*
X1713847Y-732500D01*
Y-689150D01*
X1741150D01*
Y-705000D01*
X1742065Y-709600D01*
Y-851100D01*
X1698564Y-894600D01*
X1644600D01*
Y-948564D01*
X1627015Y-966150D01*
X1500000D01*
X1487046Y-968726D01*
X1476064Y-976064D01*
X1396064Y-1056064D01*
X1388726Y-1067046D01*
X1386150Y-1080000D01*
Y-1084600D01*
X1354600D01*
Y-1084600D01*
X1343740Y-1080157D01*
Y-763005D01*
X1342900Y-758779D01*
Y-654704D01*
X1355600Y-650393D01*
X1362441Y-659309D01*
X1378714Y-671795D01*
X1397664Y-679645D01*
X1405300Y-680650D01*
Y-561450D01*
X1339428D01*
Y-577105D01*
X1052699D01*
X1051536Y-575364D01*
X989836Y-513664D01*
X973165Y-502524D01*
X953500Y-498613D01*
X900000D01*
X880335Y-502524D01*
X873488Y-507099D01*
X854580D01*
Y-527259D01*
X852524Y-530335D01*
X848613Y-550000D01*
X852524Y-569665D01*
X854580Y-572741D01*
Y-592901D01*
X873488D01*
X880335Y-597476D01*
X900000Y-601387D01*
X932215D01*
X942418Y-611590D01*
X937157Y-624290D01*
X789404D01*
Y-775710D01*
X950710D01*
Y-743740D01*
X977100D01*
Y-805904D01*
X1256260D01*
Y-1230167D01*
X1259589Y-1246906D01*
X1269071Y-1261096D01*
X1285448Y-1277473D01*
X1299638Y-1286955D01*
X1316377Y-1290284D01*
X1354600D01*
Y-1374600D01*
X1254600D01*
Y-1406150D01*
X570000D01*
X557046Y-1408726D01*
X546064Y-1416064D01*
X226064Y-1736064D01*
X218726Y-1747046D01*
X216150Y-1760000D01*
Y-4290000D01*
X218726Y-4302954D01*
X226064Y-4313935D01*
X346065Y-4433936D01*
X357046Y-4441274D01*
X370000Y-4443850D01*
X1965979D01*
X2176566Y-4654437D01*
X2187547Y-4661775D01*
X2200501Y-4664351D01*
X2406895D01*
X2410002Y-4669000D01*
X2427665Y-4680802D01*
X2448501Y-4684947D01*
X2567002D01*
X2587837Y-4680802D01*
X2605501Y-4669000D01*
X2617303Y-4651337D01*
X2621448Y-4630501D01*
X2617303Y-4609665D01*
X2605501Y-4592002D01*
X2587837Y-4580200D01*
X2567002Y-4576055D01*
X2448501D01*
X2427665Y-4580200D01*
X2410002Y-4592002D01*
X2406895Y-4596651D01*
X2214523D01*
X2166849Y-4548977D01*
X2173105Y-4537273D01*
X2173501Y-4537351D01*
X2406895D01*
X2410002Y-4542000D01*
X2427665Y-4553802D01*
X2448501Y-4557947D01*
X2567002D01*
X2587837Y-4553802D01*
X2605501Y-4542000D01*
X2617303Y-4524337D01*
X2621448Y-4503501D01*
X2617303Y-4482665D01*
X2605501Y-4465002D01*
X2587837Y-4453200D01*
X2567002Y-4449055D01*
X2448501D01*
X2427665Y-4453200D01*
X2410002Y-4465002D01*
X2406895Y-4469651D01*
X2187522D01*
X2023936Y-4306064D01*
X2012954Y-4298726D01*
X2000000Y-4296150D01*
X424022D01*
X405416Y-4277544D01*
X410276Y-4265811D01*
X577938D01*
Y-4112951D01*
X579201Y-4112700D01*
X593391Y-4103218D01*
X678956Y-4017653D01*
X683083Y-4020411D01*
X699822Y-4023740D01*
X950000D01*
X966739Y-4020411D01*
X980929Y-4010929D01*
X1093415Y-3898443D01*
X1102897Y-3884252D01*
X1106227Y-3867513D01*
Y-3862926D01*
X1115387D01*
Y-3810412D01*
X1115412D01*
Y-3765388D01*
X1144612D01*
Y-3810412D01*
X1180340D01*
X1181054Y-3810890D01*
X1195920Y-3813847D01*
X1264600D01*
Y-3835400D01*
X1395400D01*
Y-3724600D01*
X1264600D01*
Y-3736154D01*
X1250388D01*
Y-3687125D01*
X1236334D01*
Y-3573603D01*
X1273560Y-3536377D01*
X1286260Y-3541638D01*
Y-3594600D01*
X1264600D01*
Y-3705400D01*
X1395400D01*
Y-3594600D01*
X1373740D01*
Y-3385400D01*
X1442900D01*
Y-3333776D01*
X1653993D01*
Y-3346006D01*
X1724148D01*
X1750699Y-3372557D01*
X1745838Y-3384290D01*
X1619404D01*
Y-3535710D01*
X1780710D01*
Y-3488847D01*
X1827100D01*
Y-3500400D01*
X1828069D01*
X1832929Y-3512133D01*
X1751519Y-3593543D01*
X1737953D01*
X1734200Y-3594290D01*
X1619690D01*
Y-3745710D01*
X1608767Y-3750000D01*
X1530000D01*
X1100000Y-4180000D01*
Y-4190000D01*
X710000D01*
Y-4250000D01*
X720000Y-4260000D01*
X1130000D01*
Y-4260000D01*
X1570000Y-3820000D01*
X1890000D01*
X1905000Y-3805000D01*
X2137500Y-3572500D01*
Y-3412192D01*
X2268631D01*
Y-3400162D01*
X2280364Y-3395302D01*
X2332531Y-3447469D01*
X2345134Y-3455889D01*
X2360000Y-3458847D01*
X3203910D01*
X4242532Y-4497469D01*
X4255134Y-4505889D01*
X4270000Y-4508846D01*
X4810000D01*
X4824866Y-4505889D01*
X4837469Y-4497469D01*
X5058468Y-4276469D01*
X5066889Y-4263866D01*
X5069846Y-4249000D01*
Y-4150422D01*
X5246153D01*
Y-4194600D01*
X5238980D01*
X5218618Y-4203034D01*
X5203034Y-4218618D01*
X5194600Y-4238980D01*
Y-4261020D01*
X5203034Y-4281381D01*
X5218618Y-4296966D01*
X5238980Y-4305400D01*
X5261020D01*
X5281381Y-4296966D01*
X5296966Y-4281381D01*
X5305400Y-4261020D01*
Y-4249537D01*
X5312469Y-4242469D01*
X5320889Y-4229866D01*
X5323846Y-4215000D01*
Y-4150422D01*
X5373153D01*
Y-4241909D01*
X5053909Y-4561153D01*
X4236091D01*
X3197469Y-3522532D01*
X3184866Y-3514111D01*
X3170001Y-3511154D01*
X2820000D01*
X2805134Y-3514111D01*
X2792531Y-3522532D01*
X2697531Y-3617532D01*
X2689110Y-3630134D01*
X2686153Y-3645000D01*
Y-3948412D01*
X2566510Y-4068055D01*
X2448501D01*
X2427665Y-4072200D01*
X2411547Y-4082969D01*
X2398847Y-4079577D01*
Y-3946034D01*
X2454170Y-3890711D01*
X2555595D01*
Y-3739291D01*
X2394290D01*
Y-3840716D01*
X2332532Y-3902475D01*
X2324111Y-3915077D01*
X2321154Y-3929943D01*
Y-4288001D01*
X2324111Y-4302867D01*
X2332532Y-4315469D01*
X2394177Y-4377114D01*
X2398199Y-4397337D01*
X2410002Y-4415000D01*
X2427665Y-4426802D01*
X2448501Y-4430947D01*
X2567002D01*
X2587837Y-4426802D01*
X2605501Y-4415000D01*
X2617303Y-4397337D01*
X2621448Y-4376501D01*
X2617303Y-4355665D01*
X2605501Y-4338002D01*
X2587837Y-4326200D01*
X2567002Y-4322055D01*
X2453269D01*
X2449229Y-4316647D01*
X2455595Y-4303947D01*
X2567002D01*
X2587837Y-4299802D01*
X2605501Y-4288000D01*
X2608833Y-4283012D01*
X2619956Y-4280800D01*
X2632558Y-4272379D01*
X2852469Y-4052469D01*
X2860889Y-4039866D01*
X2861559Y-4036500D01*
X2865919Y-4034555D01*
X2875113Y-4033460D01*
X2888619Y-4046966D01*
X2908980Y-4055400D01*
X2931020D01*
X2951381Y-4046966D01*
X2959501Y-4038846D01*
X2991752D01*
X3002162Y-4045802D01*
X3022998Y-4049947D01*
X3141499D01*
X3162335Y-4045802D01*
X3179998Y-4034000D01*
X3191800Y-4016337D01*
X3195945Y-3995501D01*
X3191800Y-3974665D01*
X3179998Y-3957002D01*
X3162335Y-3945200D01*
X3141499Y-3941055D01*
X3022998D01*
X3002162Y-3945200D01*
X2984499Y-3957002D01*
X2981725Y-3961153D01*
X2959501D01*
X2958847Y-3960499D01*
Y-3895710D01*
X3000653D01*
Y-3744290D01*
X2878608D01*
X2873348Y-3731590D01*
X2886091Y-3718847D01*
X3093909D01*
X4112531Y-4737469D01*
X4125134Y-4745889D01*
X4140000Y-4748846D01*
X5320000D01*
X5334866Y-4745889D01*
X5347469Y-4737469D01*
X5566468Y-4518469D01*
X5574889Y-4505866D01*
X5577846Y-4491000D01*
Y-4150422D01*
X5627153D01*
Y-4180998D01*
X5627153Y-4181000D01*
X5630110Y-4195866D01*
X5638531Y-4208468D01*
X5727531Y-4297468D01*
X5740134Y-4305889D01*
X5755000Y-4308846D01*
X6505000D01*
X6519866Y-4305889D01*
X6532469Y-4297468D01*
X6792468Y-4037469D01*
X6800889Y-4024866D01*
X6803846Y-4010000D01*
Y-3386091D01*
X6878786Y-3311151D01*
X6892700D01*
X6896453Y-3310404D01*
X7002901D01*
Y-3189604D01*
X6977394D01*
X6965400Y-3187899D01*
Y-3092100D01*
X6870798D01*
X6865537Y-3079400D01*
X7435975Y-2508962D01*
X7441904Y-2500089D01*
X7454604Y-2503942D01*
Y-2581279D01*
X7414981D01*
X7398242Y-2584608D01*
X7384052Y-2594090D01*
X7357338Y-2620803D01*
X7350744Y-2622115D01*
X7334073Y-2633254D01*
X7322934Y-2649926D01*
X7319022Y-2669591D01*
Y-2759616D01*
Y-2840000D01*
Y-3151689D01*
X7186894D01*
Y-3284600D01*
X7027099D01*
Y-3405400D01*
X7186894D01*
Y-3528311D01*
X7443515D01*
Y-3151689D01*
X7421796D01*
Y-2850471D01*
X7441904Y-2830363D01*
X7454604Y-2835624D01*
Y-2917406D01*
Y-3017405D01*
X7562806D01*
X7574596Y-3019602D01*
Y-3320401D01*
X7928959D01*
Y-3353994D01*
X7909392D01*
Y-3486006D01*
X7930521D01*
X7931260Y-3489721D01*
Y-3512100D01*
X7849600D01*
Y-3607900D01*
X7863907D01*
Y-3679999D01*
X7866654Y-3693812D01*
X7874478Y-3705521D01*
X8023957Y-3855000D01*
X7765050Y-4113907D01*
X7590000D01*
X7576188Y-4116654D01*
X7564478Y-4124478D01*
X7464478Y-4224478D01*
X7456654Y-4236188D01*
X7453907Y-4250000D01*
Y-4366330D01*
X7441207Y-4368857D01*
X7436966Y-4358619D01*
X7421381Y-4343034D01*
X7401020Y-4334600D01*
X7378980D01*
X7358619Y-4343034D01*
X7351749Y-4349903D01*
X5703251D01*
X5693881Y-4340534D01*
X5673520Y-4332100D01*
X5651480D01*
X5631119Y-4340534D01*
X5615534Y-4356119D01*
X5607100Y-4376480D01*
Y-4398520D01*
X5615534Y-4418881D01*
X5631119Y-4434466D01*
X5651480Y-4442900D01*
X5673520D01*
X5693881Y-4434466D01*
X5700751Y-4427596D01*
X7349249D01*
X7358619Y-4436966D01*
X7378980Y-4445400D01*
X7401020D01*
X7421381Y-4436966D01*
X7436966Y-4421382D01*
X7441207Y-4411144D01*
X7453907Y-4413670D01*
Y-4535050D01*
X7185050Y-4803907D01*
X4067445D01*
X3807900Y-4544361D01*
Y-4474605D01*
X3632099D01*
Y-4595405D01*
X3756856D01*
X4026973Y-4865522D01*
X4038682Y-4873346D01*
X4052495Y-4876093D01*
X7200000D01*
X7213812Y-4873346D01*
X7225522Y-4865522D01*
X7515522Y-4575522D01*
X7523346Y-4563812D01*
X7526093Y-4550000D01*
Y-4264950D01*
X7604950Y-4186093D01*
X7619136D01*
X7622986Y-4198793D01*
X7614478Y-4204478D01*
X7554478Y-4264478D01*
X7546654Y-4276188D01*
X7543907Y-4290000D01*
Y-4660049D01*
X7277550Y-4926406D01*
X3844951D01*
X3807900Y-4889356D01*
Y-4819600D01*
X3632099D01*
Y-4940400D01*
X3756857D01*
X3804478Y-4988022D01*
X3816188Y-4995845D01*
X3830000Y-4998593D01*
X7292500D01*
X7306312Y-4995845D01*
X7318022Y-4988022D01*
X7605522Y-4700521D01*
X7613346Y-4688812D01*
X7616093Y-4675000D01*
Y-4432402D01*
X7628793Y-4427141D01*
X7638618Y-4436966D01*
X7658980Y-4445400D01*
X7670463D01*
X8177531Y-4952469D01*
X8190134Y-4960889D01*
X8205000Y-4963847D01*
X9735499D01*
X9743619Y-4971966D01*
X9763980Y-4980400D01*
X9786020D01*
X9806381Y-4971966D01*
X9821966Y-4956382D01*
X9830400Y-4936020D01*
Y-4913980D01*
X9821966Y-4893619D01*
X9806381Y-4878034D01*
X9786020Y-4869600D01*
X9763980D01*
X9743619Y-4878034D01*
X9735499Y-4886154D01*
X8221090D01*
X7725400Y-4390463D01*
Y-4378980D01*
X7716966Y-4358619D01*
X7701381Y-4343034D01*
X7681020Y-4334600D01*
X7658980D01*
X7638618Y-4343034D01*
X7628793Y-4352859D01*
X7616093Y-4347599D01*
Y-4304950D01*
X7654950Y-4266093D01*
X7880000D01*
X7893813Y-4263346D01*
X7905522Y-4255522D01*
X8305522Y-3855522D01*
X8313346Y-3843813D01*
X8316093Y-3830000D01*
Y-1890001D01*
X8316094Y-1890000D01*
X8313346Y-1876188D01*
X8305522Y-1864478D01*
X8077289Y-1636245D01*
X8082549Y-1623545D01*
X8196106D01*
X9196455Y-2623894D01*
Y-4210000D01*
X9199009Y-4222837D01*
X9206280Y-4233719D01*
X9646280Y-4673720D01*
X9657163Y-4680991D01*
X9670000Y-4683545D01*
X10320000D01*
X10332837Y-4680991D01*
X10343719Y-4673720D01*
X10663719Y-4353720D01*
X10670991Y-4342837D01*
X10673544Y-4330000D01*
Y-3784803D01*
X10686966Y-3771381D01*
X10695400Y-3751020D01*
Y-3728980D01*
X10686966Y-3708618D01*
X10671381Y-3693034D01*
X10651020Y-3684600D01*
X10628980D01*
X10608618Y-3693034D01*
X10593034Y-3708618D01*
X10584600Y-3728980D01*
Y-3751020D01*
X10593034Y-3771381D01*
X10606455Y-3784803D01*
Y-4316106D01*
X10306105Y-4616456D01*
X9683895D01*
X9263544Y-4196105D01*
Y-2610000D01*
X9260991Y-2597163D01*
X9253719Y-2586280D01*
X8252717Y-1585278D01*
X8257577Y-1573544D01*
X8450000D01*
X8462837Y-1570991D01*
X8473719Y-1563720D01*
X9573894Y-463544D01*
X9756105D01*
X9856455Y-563894D01*
Y-2075197D01*
X9843034Y-2088619D01*
X9834600Y-2108980D01*
Y-2131020D01*
X9843034Y-2151382D01*
X9858618Y-2166966D01*
X9878980Y-2175400D01*
X9901020D01*
X9921381Y-2166966D01*
X9936966Y-2151382D01*
X9945400Y-2131020D01*
Y-2108980D01*
X9936966Y-2088619D01*
X9923544Y-2075197D01*
Y-550000D01*
X9920991Y-537163D01*
X9913719Y-526280D01*
X9793720Y-406280D01*
X9782837Y-399009D01*
X9770000Y-396455D01*
X9560000D01*
X9547163Y-399009D01*
X9536280Y-406280D01*
X8436105Y-1506455D01*
X6998486D01*
X6990125Y-1493755D01*
X6995400Y-1481020D01*
Y-1458980D01*
X6990125Y-1446245D01*
X6998485Y-1433544D01*
X8100000D01*
X8112837Y-1430991D01*
X8123720Y-1423719D01*
X9183894Y-363545D01*
X10174324D01*
X10603955Y-793175D01*
Y-1335197D01*
X10590534Y-1348619D01*
X10582099Y-1368980D01*
Y-1391020D01*
X10590534Y-1411381D01*
X10606118Y-1426966D01*
X10626480Y-1435400D01*
X10648519D01*
X10668881Y-1426966D01*
X10684465Y-1411381D01*
X10692899Y-1391020D01*
Y-1368980D01*
X10684465Y-1348619D01*
X10671044Y-1335197D01*
Y-779281D01*
X10668490Y-766444D01*
X10661219Y-755561D01*
X10211938Y-306281D01*
X10201056Y-299009D01*
X10188219Y-296456D01*
X9170000D01*
X9157163Y-299009D01*
X9146280Y-306281D01*
X8086105Y-1366455D01*
X7867577D01*
X7862717Y-1354722D01*
X8973894Y-243545D01*
X10672115D01*
X11353955Y-925384D01*
Y-2073768D01*
X11340534Y-2087189D01*
X11332100Y-2107551D01*
Y-2129591D01*
X11340534Y-2149952D01*
X11356118Y-2165537D01*
X11376480Y-2173971D01*
X11398519D01*
X11418881Y-2165537D01*
X11434465Y-2149952D01*
X11442899Y-2129591D01*
Y-2107551D01*
X11434465Y-2087189D01*
X11421044Y-2073768D01*
Y-911490D01*
X11418490Y-898653D01*
X11411219Y-887770D01*
X10709729Y-186281D01*
X10698847Y-179009D01*
X10686010Y-176456D01*
X8960000D01*
X8947163Y-179009D01*
X8936280Y-186281D01*
X7806106Y-1316455D01*
X5430000D01*
X5417163Y-1319009D01*
X5406281Y-1326280D01*
X5231547Y-1501015D01*
X5218847Y-1495754D01*
Y-1390000D01*
X5215889Y-1375134D01*
X5207469Y-1362531D01*
X5057469Y-1212531D01*
X5044866Y-1204111D01*
X5030000Y-1201154D01*
X4630000D01*
X4615134Y-1204111D01*
X4602532Y-1212531D01*
X4462532Y-1352531D01*
X4454111Y-1365134D01*
X4451154Y-1380000D01*
Y-1404601D01*
X4415083D01*
X4412187Y-1390041D01*
X4410036Y-1386822D01*
X4643116Y-1153742D01*
X5181880D01*
X5200319Y-1172181D01*
X5214509Y-1181663D01*
X5231248Y-1184992D01*
X5969392D01*
Y-1296007D01*
X6096006D01*
Y-1163994D01*
X6068740D01*
Y-1116006D01*
X6088307D01*
Y-1048551D01*
X6186011Y-950847D01*
X6186500Y-950945D01*
X6207336Y-946800D01*
X6224999Y-934998D01*
X6236802Y-917334D01*
X6240946Y-896499D01*
Y-777997D01*
X6236802Y-757162D01*
X6231831Y-749723D01*
Y-730027D01*
X6237163Y-724695D01*
X6274297D01*
X6278149Y-737395D01*
X6275001Y-739498D01*
X6263199Y-757162D01*
X6259054Y-777997D01*
Y-896499D01*
X6263199Y-917334D01*
X6275001Y-934998D01*
X6292665Y-946800D01*
X6313500Y-950945D01*
X6334336Y-946800D01*
X6351999Y-934998D01*
X6363802Y-917334D01*
X6367946Y-896499D01*
Y-777997D01*
X6363802Y-757162D01*
X6351999Y-739498D01*
X6348851Y-737395D01*
X6352704Y-724695D01*
X6387837D01*
X6396760Y-733618D01*
Y-747342D01*
X6390199Y-757162D01*
X6386054Y-777997D01*
Y-896295D01*
X6379646Y-905885D01*
X6376317Y-922624D01*
Y-964290D01*
X6339404D01*
Y-1115710D01*
X6376317D01*
Y-1134290D01*
X6339404D01*
Y-1285710D01*
X6500710D01*
Y-1134290D01*
X6463797D01*
Y-1115710D01*
X6500710D01*
Y-964290D01*
X6463797D01*
Y-945155D01*
X6478999Y-934998D01*
X6490802Y-917334D01*
X6494946Y-896499D01*
Y-777997D01*
X6490802Y-757162D01*
X6484241Y-747342D01*
Y-715500D01*
X6480911Y-698761D01*
X6471429Y-684571D01*
X6442295Y-655437D01*
X6441262Y-653892D01*
X6446578Y-641192D01*
X6901689D01*
Y-648311D01*
X7198311D01*
Y-611387D01*
X7224600D01*
Y-635400D01*
X7625400D01*
Y-484600D01*
X7224600D01*
Y-508613D01*
X7198311D01*
Y-501689D01*
X6901689D01*
Y-558809D01*
X6761848D01*
X6758678Y-546109D01*
X6769127Y-539127D01*
X6889956Y-418298D01*
X6901689Y-423158D01*
Y-423311D01*
X7198311D01*
Y-401387D01*
X7224600D01*
Y-435400D01*
X7625400D01*
Y-284600D01*
X7224600D01*
Y-298613D01*
X7198311D01*
Y-276689D01*
X6901689D01*
Y-308809D01*
X6900000D01*
X6884237Y-311944D01*
X6870873Y-320873D01*
X6722938Y-468809D01*
X6659513D01*
X6655660Y-456109D01*
X6655929Y-455929D01*
X6720839Y-391019D01*
X6730321Y-376829D01*
X6733650Y-360090D01*
Y-359526D01*
X6744802Y-342837D01*
X6748946Y-322001D01*
Y-203500D01*
X6744802Y-182665D01*
X6732999Y-165001D01*
X6715336Y-153199D01*
X6694500Y-149054D01*
X6673665Y-153199D01*
X6656001Y-165001D01*
X6644199Y-182665D01*
X6640054Y-203500D01*
Y-322001D01*
X6644199Y-342837D01*
X6644642Y-343500D01*
X6609876Y-378266D01*
X6603661Y-377337D01*
X6600686Y-364051D01*
X6605999Y-360500D01*
X6617802Y-342837D01*
X6621946Y-322001D01*
Y-203500D01*
X6617802Y-182665D01*
X6606347Y-165521D01*
Y-147899D01*
X6612900D01*
Y-104758D01*
X6613846Y-100000D01*
X6612900Y-95241D01*
X6612900Y-52100D01*
X6624730Y-50000D01*
X7804600D01*
Y-225400D01*
X8195400D01*
Y-50000D01*
X11850000D01*
Y-5050000D01*
D02*
G37*
G36*
X6043651Y-479015D02*
X6043804Y-481440D01*
X5800747Y-724497D01*
X5784665Y-727696D01*
X5767001Y-739498D01*
X5755199Y-757162D01*
X5751054Y-777997D01*
Y-896499D01*
X5755199Y-917334D01*
X5767001Y-934998D01*
X5784665Y-946800D01*
X5805500Y-950945D01*
X5826336Y-946800D01*
X5843999Y-934998D01*
X5855802Y-917334D01*
X5859946Y-896499D01*
Y-781805D01*
X6090560Y-551191D01*
X6128152D01*
X6131322Y-563891D01*
X6120873Y-570873D01*
X6030374Y-661373D01*
X6021444Y-674737D01*
X6018309Y-690500D01*
Y-743528D01*
X6009199Y-757162D01*
X6005054Y-777997D01*
Y-896499D01*
X6009199Y-917334D01*
X6021001Y-934998D01*
X6038665Y-946800D01*
X6046769Y-948412D01*
X6050949Y-962193D01*
X6029148Y-983993D01*
X5961693D01*
Y-1097511D01*
X5249366D01*
X5230927Y-1079073D01*
X5225377Y-1075364D01*
X5224133Y-1062725D01*
X5600929Y-685929D01*
X5818118Y-468740D01*
X6039670D01*
X6043651Y-479015D01*
D02*
G37*
G36*
X1891150Y-753315D02*
Y-894600D01*
X1869600D01*
Y-1005400D01*
X1891150D01*
Y-1020979D01*
X1790979Y-1121150D01*
X1615400D01*
Y-1084600D01*
X1479865D01*
X1475005Y-1072867D01*
X1514021Y-1033850D01*
X1641036D01*
X1653990Y-1031274D01*
X1664972Y-1023936D01*
X1683507Y-1005400D01*
X1755400D01*
Y-933507D01*
X1799851Y-889057D01*
X1807189Y-878075D01*
X1809765Y-865121D01*
Y-763850D01*
X1850000D01*
X1862954Y-761274D01*
X1873936Y-753936D01*
X1879417Y-748455D01*
X1891150Y-753315D01*
D02*
G37*
G36*
X2742100Y-1396459D02*
Y-1445400D01*
X2851153D01*
Y-1503909D01*
X2703909Y-1651153D01*
X2580984D01*
X2570538Y-1645710D01*
Y-1494290D01*
X2564965D01*
X2561567Y-1488446D01*
X2560268Y-1481590D01*
X2680929Y-1360929D01*
X2684005Y-1356325D01*
X2700356Y-1354715D01*
X2742100Y-1396459D01*
D02*
G37*
G36*
X2944110Y-1454866D02*
X2952531Y-1467468D01*
X3031153Y-1546091D01*
Y-1813909D01*
X2973909Y-1871153D01*
X2296091D01*
X2161151Y-1736214D01*
Y-1697305D01*
X2160401Y-1693533D01*
Y-1660968D01*
X2157501Y-1646389D01*
X2149243Y-1634030D01*
X2136884Y-1625772D01*
X2122305Y-1622872D01*
X2107726Y-1625772D01*
X2097305Y-1632735D01*
X2086884Y-1625772D01*
X2072305Y-1622872D01*
X2057726Y-1625772D01*
X2047305Y-1632735D01*
X2036884Y-1625772D01*
X2024079Y-1623225D01*
X2021532Y-1610420D01*
X2014569Y-1599999D01*
X2021532Y-1589578D01*
X2024432Y-1574999D01*
X2021532Y-1560420D01*
X2014569Y-1549999D01*
X2021532Y-1539578D01*
X2024432Y-1524999D01*
X2022266Y-1514111D01*
X2023701Y-1512363D01*
X2023700D01*
Y-1476849D01*
X2036884Y-1474227D01*
X2047305Y-1467263D01*
X2057726Y-1474227D01*
X2072305Y-1477127D01*
X2086884Y-1474227D01*
X2097305Y-1467263D01*
X2107726Y-1474227D01*
X2122305Y-1477127D01*
X2136884Y-1474227D01*
X2147305Y-1467263D01*
X2157726Y-1474227D01*
X2170530Y-1476774D01*
X2173077Y-1489578D01*
X2180041Y-1499999D01*
X2173077Y-1510420D01*
X2170178Y-1524999D01*
X2173077Y-1539578D01*
X2176769Y-1545103D01*
X2176124Y-1549999D01*
X2176769Y-1554896D01*
X2173077Y-1560420D01*
X2170178Y-1574999D01*
X2173077Y-1589578D01*
X2180041Y-1599999D01*
X2173077Y-1610420D01*
X2170178Y-1624999D01*
X2173077Y-1639578D01*
X2181336Y-1651937D01*
X2193695Y-1660196D01*
X2208274Y-1663095D01*
X2240839D01*
X2244610Y-1663846D01*
X2263385D01*
X2317008Y-1717469D01*
X2329610Y-1725889D01*
X2344476Y-1728846D01*
X2720000D01*
X2734866Y-1725889D01*
X2747468Y-1717468D01*
X2917468Y-1547469D01*
X2925889Y-1534866D01*
X2928846Y-1520000D01*
Y-1443226D01*
X2941546Y-1441976D01*
X2944110Y-1454866D01*
D02*
G37*
G36*
X4296005Y-1392867D02*
X4291145Y-1404601D01*
X4209601D01*
Y-1615400D01*
X4231154D01*
Y-1743908D01*
X4122532Y-1852531D01*
X4122531Y-1852531D01*
X3717531Y-2257531D01*
X3709110Y-2270134D01*
X3706153Y-2285000D01*
Y-2570000D01*
X3709110Y-2584866D01*
X3717531Y-2597469D01*
X3823055Y-2702993D01*
X3835658Y-2711414D01*
X3850524Y-2714371D01*
X3989096D01*
Y-2748425D01*
Y-2875425D01*
Y-3002425D01*
Y-3129425D01*
Y-3256425D01*
Y-3383425D01*
Y-3467565D01*
X3977362Y-3472425D01*
X3227469Y-2722532D01*
X3214866Y-2714111D01*
X3200000Y-2711154D01*
X2739501D01*
X2734061Y-2705714D01*
X2713699Y-2697280D01*
X2691660D01*
X2671298Y-2705714D01*
X2655714Y-2721298D01*
X2647280Y-2741660D01*
Y-2763700D01*
X2655714Y-2784061D01*
X2671298Y-2799646D01*
X2691660Y-2808080D01*
X2713699D01*
X2734061Y-2799646D01*
X2744860Y-2788847D01*
X3183910D01*
X3963806Y-3568743D01*
X3976409Y-3577164D01*
X3989096Y-3579687D01*
Y-3652678D01*
X3907615D01*
X3137468Y-2882531D01*
X3124866Y-2874111D01*
X3110000Y-2871154D01*
X2604503D01*
X2599063Y-2865714D01*
X2578702Y-2857280D01*
X2556662D01*
X2536300Y-2865714D01*
X2520716Y-2881298D01*
X2512282Y-2901660D01*
Y-2923700D01*
X2520716Y-2944061D01*
X2536300Y-2959646D01*
X2556662Y-2968080D01*
X2578702D01*
X2599063Y-2959646D01*
X2609862Y-2948847D01*
X3093909D01*
X3864056Y-3718993D01*
X3876658Y-3727414D01*
X3891524Y-3730371D01*
X3989096D01*
Y-3764425D01*
X4249895D01*
Y-3637425D01*
Y-3510425D01*
Y-3383425D01*
Y-3256425D01*
Y-3129425D01*
Y-3002425D01*
Y-2875425D01*
Y-2748425D01*
Y-2602624D01*
X3989096D01*
Y-2636678D01*
X3866615D01*
X3783846Y-2553910D01*
Y-2301091D01*
X4177469Y-1907469D01*
X4177469Y-1907468D01*
X4297469Y-1787468D01*
X4305890Y-1774865D01*
X4308847Y-1759999D01*
Y-1615400D01*
X4330861D01*
Y-1787281D01*
X3999071Y-2119071D01*
X3989589Y-2133261D01*
X3986259Y-2150000D01*
Y-2400000D01*
X3989589Y-2416739D01*
X3999071Y-2430929D01*
X4029071Y-2460929D01*
X4043261Y-2470411D01*
X4060000Y-2473740D01*
X5755000D01*
X5771739Y-2470411D01*
X5785929Y-2460929D01*
X5808118Y-2438740D01*
X6676882D01*
X6726260Y-2488118D01*
Y-2515393D01*
X6723034Y-2518619D01*
X6714600Y-2538980D01*
Y-2561020D01*
X6723034Y-2581381D01*
X6738618Y-2596966D01*
X6758980Y-2605400D01*
X6781020D01*
X6801381Y-2596966D01*
X6816966Y-2581381D01*
X6825400Y-2561020D01*
Y-2538980D01*
X6816966Y-2518619D01*
X6813740Y-2515393D01*
Y-2470000D01*
X6810411Y-2453261D01*
X6800929Y-2439071D01*
X6725929Y-2364071D01*
X6711738Y-2354589D01*
X6695000Y-2351259D01*
X5878245D01*
X5865900Y-2350400D01*
Y-2089601D01*
X5850217D01*
X5844957Y-2076901D01*
X5866147Y-2055710D01*
X5965595D01*
Y-1904290D01*
X5928682D01*
Y-1825710D01*
X5965595D01*
Y-1686093D01*
X6380049D01*
X6448963Y-1755007D01*
Y-2075000D01*
X6451710Y-2088812D01*
X6459534Y-2100522D01*
X6493885Y-2134872D01*
X6493886Y-2134873D01*
X6664535Y-2305522D01*
X6676244Y-2313346D01*
X6690057Y-2316093D01*
X7100000D01*
X7113812Y-2313346D01*
X7121740Y-2323323D01*
X6753910Y-2691153D01*
X6399847D01*
X6395995Y-2678453D01*
X6397469Y-2677469D01*
X6509537Y-2565400D01*
X6521020D01*
X6541381Y-2556966D01*
X6556966Y-2541382D01*
X6565400Y-2521020D01*
Y-2498980D01*
X6556966Y-2478619D01*
X6541381Y-2463034D01*
X6521020Y-2454600D01*
X6498980D01*
X6478618Y-2463034D01*
X6463034Y-2478619D01*
X6454600Y-2498980D01*
Y-2510463D01*
X6353909Y-2611154D01*
X4890000D01*
X4875134Y-2614111D01*
X4862531Y-2622531D01*
X4276332Y-3208731D01*
X4267911Y-3221334D01*
X4264954Y-3236200D01*
Y-3889623D01*
X4196099D01*
Y-4133202D01*
X4183399Y-4138462D01*
X3247468Y-3202531D01*
X3234866Y-3194110D01*
X3220000Y-3191153D01*
X2592342D01*
X2585286Y-3180594D01*
X2585400Y-3180320D01*
Y-3158280D01*
X2581531Y-3148940D01*
X2590017Y-3136240D01*
X2657893D01*
X2668618Y-3146966D01*
X2688980Y-3155400D01*
X2711020D01*
X2731381Y-3146966D01*
X2746966Y-3131381D01*
X2755400Y-3111020D01*
Y-3088980D01*
X2746966Y-3068618D01*
X2731381Y-3053034D01*
X2711020Y-3044600D01*
X2688980D01*
X2678938Y-3048759D01*
X2480400D01*
Y-3042100D01*
X2446458D01*
X2435240Y-3030882D01*
Y-2636399D01*
X2520400D01*
Y-2605740D01*
X3068001D01*
X3084740Y-2602410D01*
X3098930Y-2592928D01*
X3905927Y-1785931D01*
X3915409Y-1771741D01*
X3918738Y-1755002D01*
Y-1738213D01*
X3931438Y-1733238D01*
X3942173Y-1740411D01*
X3958912Y-1743740D01*
X3973994D01*
Y-1766006D01*
X4100607D01*
Y-1633993D01*
X3973994D01*
Y-1636630D01*
X3962260Y-1641490D01*
X3918738Y-1597968D01*
Y-1522170D01*
Y-1393120D01*
X4018118Y-1293740D01*
X4196878D01*
X4296005Y-1392867D01*
D02*
G37*
G36*
X1984209Y-1693533D02*
X1983459Y-1697305D01*
Y-1711604D01*
X1882531Y-1812531D01*
X1874111Y-1825134D01*
X1871153Y-1840000D01*
Y-1900000D01*
X1874111Y-1914866D01*
X1882531Y-1927469D01*
X1949589Y-1994526D01*
X1944729Y-2006260D01*
X1900000D01*
X1883261Y-2009589D01*
X1869071Y-2019071D01*
X1814437Y-2073705D01*
X1804955Y-2087895D01*
X1801626Y-2104634D01*
Y-2200100D01*
X1792600D01*
Y-2268560D01*
X1691006D01*
Y-2248993D01*
X1558993D01*
Y-2375607D01*
X1691006D01*
Y-2356040D01*
X1776972D01*
X1783996Y-2368741D01*
X1781259Y-2382500D01*
Y-2442500D01*
X1784589Y-2459238D01*
X1787100Y-2462996D01*
Y-2497899D01*
X1862899D01*
Y-2497900D01*
X1864532Y-2496560D01*
X1875000Y-2498642D01*
X1889788Y-2495700D01*
X1895749Y-2491717D01*
X1908461Y-2500211D01*
X1923929Y-2503287D01*
X1936771Y-2516129D01*
X1950961Y-2525611D01*
X1962360Y-2527878D01*
X1967194Y-2541004D01*
X1908909Y-2599289D01*
X1814404D01*
Y-2750710D01*
X1975710D01*
Y-2657587D01*
X1978021Y-2654128D01*
X1978079Y-2653835D01*
X2042728Y-2589186D01*
X2046470Y-2592928D01*
X2060660Y-2602410D01*
X2077399Y-2605740D01*
X2129600D01*
Y-2636399D01*
X2337541D01*
X2347760Y-2646618D01*
Y-3012882D01*
X2318542Y-3042100D01*
X2282100D01*
Y-3142900D01*
Y-3193654D01*
X2271499Y-3202899D01*
X2260000Y-3198895D01*
Y-2880000D01*
X2040000D01*
Y-2840000D01*
X1870000D01*
Y-3040000D01*
X1940000D01*
Y-3200000D01*
X2070989D01*
X2079939Y-3209010D01*
X2079800Y-3229805D01*
X2069955Y-3237829D01*
X2066190Y-3237080D01*
X2029658D01*
X2025000Y-3236154D01*
X1923333D01*
Y-3223079D01*
X1827534D01*
Y-3307715D01*
X1814834Y-3312976D01*
X1786006Y-3284148D01*
Y-3219392D01*
X1653993D01*
Y-3246295D01*
X1439139D01*
Y-1722719D01*
X1461589Y-1700269D01*
X1474289Y-1705529D01*
Y-1860595D01*
X1625709D01*
Y-1761147D01*
X1718117Y-1668740D01*
X1783361D01*
X1788622Y-1681440D01*
X1767962Y-1702099D01*
X1724600D01*
Y-1797899D01*
X1825399D01*
Y-1754536D01*
X1916090Y-1663846D01*
X1949999D01*
X1953771Y-1663095D01*
X1984209D01*
Y-1693533D01*
D02*
G37*
G36*
X7574596Y-2080398D02*
X7945395D01*
Y-1803032D01*
X7957129Y-1798172D01*
X8103907Y-1944950D01*
Y-3780049D01*
X8077500Y-3806456D01*
X7936093Y-3665049D01*
Y-3607900D01*
X8025400D01*
Y-3512100D01*
X8018740D01*
Y-3486006D01*
X8036006D01*
Y-3353994D01*
X8016440D01*
Y-2782699D01*
X8013110Y-2765961D01*
X8003628Y-2751770D01*
X7782642Y-2530784D01*
X7777603Y-2518619D01*
X7762019Y-2503034D01*
X7741657Y-2494600D01*
X7737096D01*
X7736585Y-2494090D01*
X7722395Y-2484608D01*
X7705656Y-2481279D01*
X7570004D01*
X7563265Y-2482619D01*
X7459540D01*
X7454238Y-2482130D01*
X7447353Y-2472922D01*
Y-2427584D01*
X7456784Y-2418153D01*
X7565704D01*
X7569457Y-2417407D01*
X7685403D01*
Y-2317407D01*
Y-2217407D01*
Y-2132607D01*
X7454604D01*
Y-2138914D01*
X7204993D01*
X7191180Y-2141661D01*
X7179471Y-2149485D01*
X7085049Y-2243907D01*
X6811171D01*
X6804804Y-2231207D01*
X6808621Y-2226093D01*
X6870000D01*
X6883812Y-2223346D01*
X6895522Y-2215522D01*
X7202651Y-1908393D01*
X7247107D01*
Y-1910400D01*
X7432908D01*
Y-1786093D01*
X7574596D01*
Y-2080398D01*
D02*
G37*
G36*
X7247107Y-1836206D02*
X7187700D01*
X7173888Y-1838954D01*
X7162178Y-1846778D01*
X6855050Y-2153907D01*
X6802254D01*
X6791381Y-2143034D01*
X6771020Y-2134600D01*
X6748980D01*
X6728618Y-2143034D01*
X6713034Y-2158618D01*
X6704600Y-2178980D01*
Y-2201020D01*
X6713034Y-2221381D01*
X6722859Y-2231207D01*
X6717599Y-2243907D01*
X6705007D01*
X6544929Y-2083828D01*
X6544928Y-2083828D01*
X6521150Y-2060049D01*
Y-1844186D01*
X6532513Y-1837287D01*
X6542106Y-1841797D01*
Y-1910400D01*
X6727907D01*
Y-1730644D01*
X6772457Y-1686093D01*
X7247107D01*
Y-1836206D01*
D02*
G37*
G36*
X2120068Y-1805005D02*
X2244959Y-1929897D01*
X2239699Y-1942597D01*
X2017089D01*
X2015755Y-1940600D01*
X2022544Y-1927900D01*
X2055400D01*
Y-1873953D01*
X2056146Y-1870200D01*
Y-1858791D01*
X2099038Y-1815900D01*
X2104631Y-1807529D01*
X2117295Y-1804629D01*
X2120068Y-1805005D01*
D02*
G37*
G36*
X5762712Y-1636245D02*
X5640478Y-1758478D01*
X5632654Y-1770188D01*
X5629906Y-1784000D01*
Y-1830000D01*
Y-1982269D01*
X5618173Y-1987129D01*
X5606006Y-1974963D01*
Y-1899392D01*
X5473993D01*
Y-2026006D01*
X5554962D01*
X5606824Y-2077868D01*
X5601963Y-2089601D01*
X5164432D01*
X5159571Y-2077868D01*
X5613894Y-1623545D01*
X5757451D01*
X5762712Y-1636245D01*
D02*
G37*
G36*
X5141154Y-1406091D02*
Y-1493909D01*
X4852646Y-1782417D01*
X4668737D01*
X4653871Y-1785374D01*
X4641268Y-1793794D01*
X4370751Y-2064311D01*
X4362331Y-2076914D01*
X4359807Y-2089601D01*
X4319408D01*
X4318036Y-2076901D01*
X4737469Y-1657469D01*
X4745889Y-1644866D01*
X4748846Y-1630000D01*
Y-1615400D01*
X4990399D01*
Y-1404601D01*
X4649600D01*
Y-1615400D01*
X4653069D01*
X4657929Y-1627134D01*
X4250751Y-2034311D01*
X4242331Y-2046914D01*
X4239374Y-2061780D01*
Y-2089601D01*
X4196099D01*
Y-2350400D01*
X5746260D01*
Y-2376882D01*
X5736882Y-2386260D01*
X4078118D01*
X4073740Y-2381882D01*
Y-2168118D01*
X4405530Y-1836328D01*
X4415012Y-1822138D01*
X4418341Y-1805399D01*
Y-1615400D01*
X4550400D01*
Y-1404601D01*
X4538297D01*
X4533037Y-1391901D01*
X4646091Y-1278847D01*
X5013909D01*
X5141154Y-1406091D01*
D02*
G37*
G36*
X1699599Y-1302100D02*
X1699599D01*
Y-1397898D01*
X1699599Y-1397899D01*
Y-1402100D01*
X1699599D01*
X1699599Y-1410599D01*
Y-1497899D01*
X1694600Y-1502100D01*
X1694600D01*
Y-1581259D01*
X1475001D01*
X1458262Y-1584588D01*
X1444072Y-1594070D01*
X1364470Y-1673672D01*
X1354988Y-1687862D01*
X1351659Y-1704601D01*
Y-3264600D01*
X1272034D01*
X1242900Y-3235467D01*
Y-3169604D01*
X1228308D01*
X1225905Y-3157900D01*
X1225905Y-3156904D01*
Y-2792100D01*
X997105D01*
Y-2806260D01*
X893118D01*
X796240Y-2709382D01*
Y-2570000D01*
X795400Y-2565775D01*
Y-2337100D01*
X644600D01*
Y-2737900D01*
X710828D01*
X712089Y-2744239D01*
X721571Y-2758429D01*
X844071Y-2880929D01*
X858261Y-2890411D01*
X875000Y-2893740D01*
X997105D01*
Y-3157900D01*
X1064696D01*
X1067099Y-3169604D01*
X1067099Y-3170600D01*
Y-3282907D01*
X1054399Y-3289695D01*
X1054246Y-3289593D01*
X1037507Y-3286264D01*
X942900D01*
Y-3269604D01*
X772033D01*
X742900Y-3240471D01*
Y-3174608D01*
X567099D01*
Y-3295408D01*
X687963D01*
X716153Y-3323598D01*
Y-3364600D01*
X567099D01*
X567099Y-3364600D01*
Y-3364600D01*
X558324Y-3356466D01*
X553740Y-3351882D01*
Y-3157900D01*
X702895D01*
Y-2792100D01*
X474096D01*
X463740Y-2786439D01*
Y-2498118D01*
X643118Y-2318740D01*
X831883D01*
X839509Y-2326366D01*
X844600Y-2337100D01*
X844600D01*
X844600Y-2337101D01*
Y-2737900D01*
X995400D01*
Y-2337100D01*
X957586D01*
X954690Y-2322540D01*
X945208Y-2308350D01*
X880929Y-2244071D01*
X866739Y-2234589D01*
X850000Y-2231260D01*
X625000D01*
X608261Y-2234589D01*
X594071Y-2244071D01*
X389071Y-2449071D01*
X379589Y-2463261D01*
X376550Y-2478539D01*
X363850Y-2477288D01*
Y-1814021D01*
X372867Y-1805005D01*
X384600Y-1809865D01*
Y-2157900D01*
X585400D01*
Y-1767100D01*
X427365D01*
X422505Y-1755367D01*
X574021Y-1603850D01*
X1330000D01*
X1342954Y-1601274D01*
X1353936Y-1593936D01*
X1442472Y-1505400D01*
X1565400D01*
Y-1395400D01*
X1615400D01*
Y-1290284D01*
X1697463D01*
X1699599Y-1302100D01*
D02*
G37*
G36*
X7699256Y-2596966D02*
X7719618Y-2605400D01*
X7733542D01*
X7928959Y-2800817D01*
Y-3019602D01*
X7697194D01*
X7685403Y-3017405D01*
Y-2917406D01*
Y-2817406D01*
Y-2717406D01*
Y-2599707D01*
X7697137Y-2594847D01*
X7699256Y-2596966D01*
D02*
G37*
G36*
X7361111Y-2471787D02*
X7361470Y-2473593D01*
X6023909Y-3811153D01*
X5842679D01*
X5827814Y-3814110D01*
X5815211Y-3822531D01*
X5800332Y-3837410D01*
X5791911Y-3850013D01*
X5788954Y-3864879D01*
Y-3889623D01*
X4966252D01*
X4964539Y-3888102D01*
X4958813Y-3876922D01*
X4965400Y-3861020D01*
Y-3838980D01*
X4956966Y-3818618D01*
X4941381Y-3803034D01*
X4925719Y-3796546D01*
X4928245Y-3783846D01*
X5805000D01*
X5819866Y-3780889D01*
X5832469Y-3772468D01*
X6636091Y-2968846D01*
X6830000D01*
X6844866Y-2965889D01*
X6857469Y-2957469D01*
X7347331Y-2467606D01*
X7361111Y-2471787D01*
D02*
G37*
G36*
X6836562Y-2868501D02*
X6813909Y-2891153D01*
X6620000D01*
X6605134Y-2894111D01*
X6592531Y-2902531D01*
X5788909Y-3706153D01*
X4865000D01*
X4850134Y-3709110D01*
X4837531Y-3717531D01*
X4749531Y-3805531D01*
X4741110Y-3818134D01*
X4738153Y-3833000D01*
Y-3889623D01*
X4469647D01*
Y-3810290D01*
X4616090Y-3663847D01*
X5705000D01*
X5719866Y-3660890D01*
X5732468Y-3652469D01*
X6526091Y-2858846D01*
X6820000D01*
X6830306Y-2856796D01*
X6836562Y-2868501D01*
D02*
G37*
G36*
X6274005Y-2701547D02*
X6272532Y-2702531D01*
X5520550Y-3454513D01*
X4952861D01*
X4941381Y-3443034D01*
X4921020Y-3434600D01*
X4898980D01*
X4878618Y-3443034D01*
X4863034Y-3458618D01*
X4854600Y-3478980D01*
Y-3501020D01*
X4863034Y-3521381D01*
X4878618Y-3536966D01*
X4898980Y-3545400D01*
X4921020D01*
X4941381Y-3536966D01*
X4946141Y-3532206D01*
X5536640D01*
X5551506Y-3529249D01*
X5564109Y-3520828D01*
X6316091Y-2768846D01*
X6506774D01*
X6508024Y-2781546D01*
X6495134Y-2784111D01*
X6482531Y-2792531D01*
X5688909Y-3586154D01*
X4600000D01*
X4585134Y-3589111D01*
X4572531Y-3597532D01*
X4403332Y-3766731D01*
X4394911Y-3779334D01*
X4391954Y-3794199D01*
Y-3889623D01*
X4342647D01*
Y-3252290D01*
X4906091Y-2688847D01*
X6270153D01*
X6274005Y-2701547D01*
D02*
G37*
G36*
X8243907Y-1904950D02*
Y-3815050D01*
X7865050Y-4193907D01*
X7800864D01*
X7797015Y-4181207D01*
X7805522Y-4175522D01*
X8092422Y-3888622D01*
X8093812Y-3888346D01*
X8105522Y-3880522D01*
X8165522Y-3820521D01*
X8173346Y-3808812D01*
X8176093Y-3795000D01*
Y-1930000D01*
X8173346Y-1916187D01*
X8165522Y-1904478D01*
X7985522Y-1724478D01*
X7973813Y-1716654D01*
X7960000Y-1713907D01*
X7432908D01*
Y-1686093D01*
X8025050D01*
X8243907Y-1904950D01*
D02*
G37*
G36*
X6864600Y-3098298D02*
Y-3187899D01*
X6852606Y-3189604D01*
X6827100D01*
Y-3252963D01*
X6737531Y-3342531D01*
X6729110Y-3355134D01*
X6726153Y-3370000D01*
Y-3993910D01*
X6488910Y-4231153D01*
X5771090D01*
X5704846Y-4164909D01*
Y-4150422D01*
X5865900D01*
Y-3988975D01*
X5866647Y-3985222D01*
Y-3888846D01*
X6040000D01*
X6054866Y-3885889D01*
X6067469Y-3877468D01*
X6851900Y-3093037D01*
X6864600Y-3098298D01*
D02*
G37*
G36*
X4611153Y-4233909D02*
X4533909Y-4311153D01*
X4356091D01*
X4310621Y-4265684D01*
X4317815Y-4254917D01*
X4318980Y-4255400D01*
X4341020D01*
X4361381Y-4246966D01*
X4369501Y-4238846D01*
X4500637D01*
X4515503Y-4235889D01*
X4528106Y-4227469D01*
X4550468Y-4205106D01*
X4558889Y-4192503D01*
X4561846Y-4177637D01*
Y-4150422D01*
X4611153D01*
Y-4233909D01*
D02*
G37*
G36*
X4312531Y-4377469D02*
X4325134Y-4385889D01*
X4340000Y-4388846D01*
X4550000D01*
X4564866Y-4385889D01*
X4577469Y-4377469D01*
X4677468Y-4277469D01*
X4685889Y-4264866D01*
X4688846Y-4250000D01*
Y-4150422D01*
X4992153D01*
Y-4232909D01*
X4793909Y-4431153D01*
X4286091D01*
X3247469Y-3392531D01*
X3234866Y-3384111D01*
X3220000Y-3381154D01*
X2588490D01*
X2581434Y-3370594D01*
X2585400Y-3361020D01*
Y-3338980D01*
X2576966Y-3318618D01*
X2561381Y-3303034D01*
X2541020Y-3294600D01*
X2518980D01*
X2498619Y-3303034D01*
X2483034Y-3318618D01*
X2474600Y-3338980D01*
Y-3350462D01*
X2443909Y-3381154D01*
X2376090D01*
X2293198Y-3298261D01*
X2322613Y-3268846D01*
X3203909D01*
X4312531Y-4377469D01*
D02*
G37*
G36*
X4192532Y-4627469D02*
X4205134Y-4635889D01*
X4220000Y-4638846D01*
X5070000D01*
X5084866Y-4635889D01*
X5097468Y-4627469D01*
X5439468Y-4285468D01*
X5447889Y-4272866D01*
X5450846Y-4258000D01*
Y-4150422D01*
X5500153D01*
Y-4474910D01*
X5303909Y-4671153D01*
X4156091D01*
X3137469Y-3652532D01*
X3124866Y-3644111D01*
X3110000Y-3641154D01*
X2870000D01*
X2855134Y-3644111D01*
X2842532Y-3652531D01*
X2797531Y-3697532D01*
X2789110Y-3710135D01*
X2786153Y-3725000D01*
Y-4008910D01*
X2592649Y-4202415D01*
X2587837Y-4199200D01*
X2567002Y-4195055D01*
X2448501D01*
X2427665Y-4199200D01*
X2411547Y-4209969D01*
X2398847Y-4206577D01*
Y-4165425D01*
X2411547Y-4162033D01*
X2427665Y-4172802D01*
X2448501Y-4176947D01*
X2567002D01*
X2587837Y-4172802D01*
X2605501Y-4161000D01*
X2617303Y-4143337D01*
X2621326Y-4123114D01*
X2752468Y-3991971D01*
X2760889Y-3979369D01*
X2763846Y-3964503D01*
Y-3661091D01*
X2836091Y-3588847D01*
X3153910D01*
X4192532Y-4627469D01*
D02*
G37*
%LPC*%
G36*
X1496572Y-146450D02*
X1430700D01*
Y-250650D01*
X1438336Y-249645D01*
X1457286Y-241795D01*
X1473559Y-229309D01*
X1486046Y-213036D01*
X1493895Y-194086D01*
X1496572Y-173750D01*
Y-146450D01*
D02*
G37*
G36*
X2360572D02*
X2294700D01*
Y-250650D01*
X2302336Y-249645D01*
X2321286Y-241795D01*
X2337559Y-229309D01*
X2350045Y-213036D01*
X2357895Y-194086D01*
X2360572Y-173750D01*
Y-146450D01*
D02*
G37*
G36*
X2269300D02*
X2203428D01*
Y-173750D01*
X2206105Y-194086D01*
X2213955Y-213036D01*
X2226441Y-229309D01*
X2242714Y-241795D01*
X2261664Y-249645D01*
X2269300Y-250650D01*
Y-146450D01*
D02*
G37*
G36*
X4777933Y-384603D02*
X4758079D01*
X4738903Y-389741D01*
X4721709Y-399667D01*
X4707671Y-413706D01*
X4697744Y-430899D01*
X4692606Y-450076D01*
Y-469929D01*
X4697744Y-489106D01*
X4707671Y-506299D01*
X4721709Y-520338D01*
X4738903Y-530264D01*
X4758079Y-535403D01*
X4777933D01*
X4797109Y-530264D01*
X4814303Y-520338D01*
X4828341Y-506299D01*
X4838268Y-489106D01*
X4843406Y-469929D01*
Y-450076D01*
X4838268Y-430899D01*
X4828341Y-413706D01*
X4814303Y-399667D01*
X4797109Y-389741D01*
X4777933Y-384603D01*
D02*
G37*
G36*
X3979915D02*
X3960062D01*
X3940885Y-389741D01*
X3923692Y-399667D01*
X3909654Y-413706D01*
X3899727Y-430899D01*
X3894589Y-450076D01*
Y-469929D01*
X3899727Y-489106D01*
X3909654Y-506299D01*
X3923692Y-520338D01*
X3940885Y-530264D01*
X3960062Y-535403D01*
X3979915D01*
X3999092Y-530264D01*
X4016285Y-520338D01*
X4030324Y-506299D01*
X4040250Y-489106D01*
X4045389Y-469929D01*
Y-450076D01*
X4040250Y-430899D01*
X4030324Y-413706D01*
X4016285Y-399667D01*
X3999092Y-389741D01*
X3979915Y-384603D01*
D02*
G37*
G36*
X2294700Y-416850D02*
Y-536050D01*
X2360572D01*
Y-493750D01*
X2357895Y-473414D01*
X2350045Y-454464D01*
X2337559Y-438191D01*
X2321286Y-425705D01*
X2302336Y-417855D01*
X2294700Y-416850D01*
D02*
G37*
G36*
X2269300Y-561450D02*
X2203428D01*
Y-603750D01*
X2206105Y-624086D01*
X2213955Y-643036D01*
X2226441Y-659309D01*
X2242714Y-671795D01*
X2261664Y-679645D01*
X2269300Y-680650D01*
Y-561450D01*
D02*
G37*
G36*
X2360572D02*
X2294700D01*
Y-680650D01*
X2302336Y-679645D01*
X2321286Y-671795D01*
X2337559Y-659309D01*
X2350045Y-643036D01*
X2357895Y-624086D01*
X2360572Y-603750D01*
Y-561450D01*
D02*
G37*
G36*
X11519698Y-174103D02*
X11480301D01*
X11477800Y-174600D01*
X11475249D01*
X11436609Y-182286D01*
X11434253Y-183262D01*
X11431751Y-183760D01*
X11395354Y-198836D01*
X11393233Y-200253D01*
X11390876Y-201229D01*
X11358120Y-223117D01*
X11356316Y-224921D01*
X11354195Y-226338D01*
X11326337Y-254195D01*
X11324920Y-256316D01*
X11323117Y-258120D01*
X11301229Y-290877D01*
X11300253Y-293233D01*
X11298836Y-295354D01*
X11283759Y-331752D01*
X11283262Y-334254D01*
X11282286Y-336610D01*
X11274600Y-375249D01*
Y-377800D01*
X11274102Y-380302D01*
Y-419698D01*
X11274600Y-422200D01*
Y-424751D01*
X11282286Y-463390D01*
X11283262Y-465747D01*
X11283759Y-468248D01*
X11298836Y-504646D01*
X11300253Y-506767D01*
X11301229Y-509123D01*
X11323117Y-541880D01*
X11324920Y-543684D01*
X11326337Y-545805D01*
X11354195Y-573663D01*
X11356316Y-575079D01*
X11358119Y-576883D01*
X11390876Y-598771D01*
X11393233Y-599747D01*
X11395354Y-601164D01*
X11431751Y-616240D01*
X11434253Y-616738D01*
X11436610Y-617714D01*
X11475249Y-625400D01*
X11477800D01*
X11480301Y-625897D01*
X11519698D01*
X11522200Y-625400D01*
X11524750D01*
X11563390Y-617714D01*
X11565746Y-616738D01*
X11568248Y-616240D01*
X11604646Y-601164D01*
X11606767Y-599747D01*
X11609123Y-598771D01*
X11641880Y-576883D01*
X11643684Y-575080D01*
X11645804Y-573663D01*
X11673662Y-545805D01*
X11675079Y-543684D01*
X11676883Y-541881D01*
X11698770Y-509123D01*
X11699746Y-506767D01*
X11701164Y-504646D01*
X11716240Y-468248D01*
X11716738Y-465747D01*
X11717714Y-463390D01*
X11725400Y-424751D01*
Y-422200D01*
X11725897Y-419698D01*
Y-380302D01*
X11725400Y-377800D01*
Y-375249D01*
X11717714Y-336610D01*
X11716738Y-334253D01*
X11716240Y-331752D01*
X11701164Y-295354D01*
X11699746Y-293233D01*
X11698770Y-290877D01*
X11676883Y-258120D01*
X11675079Y-256316D01*
X11673662Y-254195D01*
X11645804Y-226338D01*
X11643684Y-224921D01*
X11641880Y-223117D01*
X11609123Y-201229D01*
X11606767Y-200253D01*
X11604646Y-198836D01*
X11568248Y-183760D01*
X11565746Y-183262D01*
X11563390Y-182286D01*
X11524751Y-174600D01*
X11522200D01*
X11519698Y-174103D01*
D02*
G37*
G36*
X469698D02*
X430301D01*
X427800Y-174600D01*
X425249D01*
X386609Y-182286D01*
X384253Y-183262D01*
X381751Y-183760D01*
X345354Y-198836D01*
X343233Y-200253D01*
X340876Y-201229D01*
X308120Y-223117D01*
X306316Y-224921D01*
X304195Y-226338D01*
X276337Y-254195D01*
X274920Y-256316D01*
X273117Y-258120D01*
X251229Y-290877D01*
X250253Y-293233D01*
X248836Y-295354D01*
X233760Y-331752D01*
X233262Y-334254D01*
X232286Y-336610D01*
X224600Y-375249D01*
Y-377800D01*
X224102Y-380302D01*
Y-419698D01*
X224600Y-422200D01*
Y-424751D01*
X232286Y-463390D01*
X233262Y-465747D01*
X233760Y-468248D01*
X248836Y-504646D01*
X250253Y-506767D01*
X251229Y-509123D01*
X273117Y-541880D01*
X274920Y-543684D01*
X276337Y-545805D01*
X304195Y-573663D01*
X306316Y-575079D01*
X308119Y-576883D01*
X340876Y-598771D01*
X343233Y-599747D01*
X345354Y-601164D01*
X381751Y-616240D01*
X384253Y-616738D01*
X386610Y-617714D01*
X425249Y-625400D01*
X427800D01*
X430301Y-625897D01*
X469698D01*
X472200Y-625400D01*
X474750D01*
X513390Y-617714D01*
X515746Y-616738D01*
X518248Y-616240D01*
X554646Y-601164D01*
X556767Y-599747D01*
X559123Y-598771D01*
X591880Y-576883D01*
X593684Y-575080D01*
X595804Y-573663D01*
X623662Y-545805D01*
X625079Y-543684D01*
X626883Y-541881D01*
X648770Y-509123D01*
X649746Y-506767D01*
X651164Y-504646D01*
X666240Y-468248D01*
X666738Y-465747D01*
X667714Y-463390D01*
X675400Y-424751D01*
Y-422200D01*
X675897Y-419698D01*
Y-380302D01*
X675400Y-377800D01*
Y-375249D01*
X667714Y-336610D01*
X666738Y-334253D01*
X666240Y-331752D01*
X651164Y-295354D01*
X649746Y-293233D01*
X648770Y-290877D01*
X626883Y-258120D01*
X625079Y-256316D01*
X623662Y-254195D01*
X595804Y-226338D01*
X593684Y-224921D01*
X591880Y-223117D01*
X559123Y-201229D01*
X556767Y-200253D01*
X554646Y-198836D01*
X518248Y-183760D01*
X515746Y-183262D01*
X513390Y-182286D01*
X474751Y-174600D01*
X472200D01*
X469698Y-174103D01*
D02*
G37*
G36*
X1496572Y-561450D02*
X1430700D01*
Y-680650D01*
X1438336Y-679645D01*
X1457286Y-671795D01*
X1473559Y-659309D01*
X1486046Y-643036D01*
X1493895Y-624086D01*
X1496572Y-603750D01*
Y-561450D01*
D02*
G37*
G36*
X8195400Y-694600D02*
X7804600D01*
Y-895400D01*
X8195400D01*
Y-694600D01*
D02*
G37*
G36*
X6694500Y-723552D02*
X6673665Y-727696D01*
X6656001Y-739498D01*
X6644199Y-757162D01*
X6640054Y-777997D01*
Y-896499D01*
X6644199Y-917334D01*
X6656001Y-934998D01*
X6661508Y-938678D01*
Y-963993D01*
X6648994D01*
Y-1093364D01*
X6648993Y-1096006D01*
X6653993Y-1106635D01*
X6653994Y-1108706D01*
Y-1122489D01*
X6641294Y-1127749D01*
X6622900Y-1109356D01*
Y-987100D01*
X6606597D01*
Y-934103D01*
X6617802Y-917334D01*
X6621946Y-896499D01*
Y-777997D01*
X6617802Y-757162D01*
X6605999Y-739498D01*
X6588336Y-727696D01*
X6567500Y-723552D01*
X6546665Y-727696D01*
X6529001Y-739498D01*
X6517199Y-757162D01*
X6513054Y-777997D01*
Y-896499D01*
X6517199Y-917334D01*
X6529001Y-934998D01*
X6534410Y-938612D01*
Y-987100D01*
X6527100D01*
Y-1087900D01*
Y-1162900D01*
X6574356D01*
X6599790Y-1188334D01*
X6599791Y-1188334D01*
X6606979Y-1195522D01*
X6618688Y-1203346D01*
X6632501Y-1206093D01*
X6653994D01*
Y-1236006D01*
X6906006D01*
Y-1229630D01*
X6918707Y-1221144D01*
X6928980Y-1225400D01*
X6951020D01*
X6971382Y-1216966D01*
X6986966Y-1201381D01*
X6995400Y-1181020D01*
Y-1158980D01*
X6986966Y-1138618D01*
X6971382Y-1123034D01*
X6951020Y-1114600D01*
X6928980D01*
X6918707Y-1118856D01*
X6906006Y-1110370D01*
Y-1103993D01*
X6784999D01*
X6775608Y-1096006D01*
X6775607Y-1091293D01*
Y-963993D01*
X6739201D01*
Y-925715D01*
X6744802Y-917334D01*
X6748946Y-896499D01*
Y-777997D01*
X6744802Y-757162D01*
X6732999Y-739498D01*
X6715336Y-727696D01*
X6694500Y-723552D01*
D02*
G37*
G36*
X3141499Y-4068055D02*
X3022998D01*
X3002162Y-4072200D01*
X2984499Y-4084002D01*
X2972696Y-4101665D01*
X2968552Y-4122501D01*
X2972696Y-4143337D01*
X2984499Y-4161000D01*
X3002162Y-4172802D01*
X3022998Y-4176947D01*
X3141499D01*
X3162335Y-4172802D01*
X3179998Y-4161000D01*
X3191800Y-4143337D01*
X3195945Y-4122501D01*
X3191800Y-4101665D01*
X3179998Y-4084002D01*
X3162335Y-4072200D01*
X3141499Y-4068055D01*
D02*
G37*
G36*
Y-4322055D02*
X3022998D01*
X3002162Y-4326200D01*
X2984499Y-4338002D01*
X2972696Y-4355665D01*
X2968552Y-4376501D01*
X2972696Y-4397337D01*
X2984499Y-4415000D01*
X3002162Y-4426802D01*
X3022998Y-4430947D01*
X3141499D01*
X3162335Y-4426802D01*
X3170716Y-4421202D01*
X3194669D01*
Y-4464100D01*
X3181969Y-4467952D01*
X3179998Y-4465002D01*
X3162335Y-4453200D01*
X3141499Y-4449055D01*
X3022998D01*
X3002162Y-4453200D01*
X2984499Y-4465002D01*
X2972696Y-4482665D01*
X2968552Y-4503501D01*
X2972696Y-4524337D01*
X2984499Y-4542000D01*
X3002162Y-4553802D01*
X3022998Y-4557947D01*
X3141499D01*
X3162335Y-4553802D01*
X3179998Y-4542000D01*
X3183775Y-4536347D01*
X3197258Y-4539029D01*
X3197626Y-4540882D01*
X3206047Y-4553484D01*
X3292100Y-4639537D01*
Y-4757900D01*
X3332963D01*
X3387535Y-4812473D01*
X3400138Y-4820893D01*
X3415004Y-4823850D01*
X3432100D01*
Y-4845404D01*
X3607901D01*
Y-4724604D01*
X3432100D01*
Y-4729202D01*
X3419400Y-4734462D01*
X3387900Y-4702963D01*
Y-4668847D01*
X3432099D01*
Y-4690401D01*
X3607900D01*
Y-4569601D01*
X3432099D01*
Y-4591154D01*
X3387900D01*
Y-4582100D01*
X3344537D01*
X3272362Y-4509925D01*
Y-4397235D01*
X3269405Y-4382369D01*
X3260984Y-4369766D01*
X3246105Y-4354887D01*
X3233503Y-4346466D01*
X3218637Y-4343509D01*
X3183678D01*
X3179998Y-4338002D01*
X3162335Y-4326200D01*
X3141499Y-4322055D01*
D02*
G37*
G36*
Y-4195055D02*
X3022998D01*
X3002162Y-4199200D01*
X2985019Y-4210655D01*
X2950499D01*
X2935633Y-4213612D01*
X2923031Y-4222032D01*
X2872531Y-4272532D01*
X2864111Y-4285134D01*
X2861154Y-4300000D01*
Y-4920000D01*
X2864111Y-4934866D01*
X2872531Y-4947469D01*
X2927527Y-5002464D01*
X2940130Y-5010885D01*
X2954996Y-5013842D01*
X3432100D01*
Y-5035396D01*
X3607901D01*
Y-4914596D01*
X3432100D01*
Y-4936149D01*
X3183178D01*
X3179326Y-4923449D01*
X3179998Y-4923000D01*
X3191800Y-4905337D01*
X3195945Y-4884501D01*
X3191800Y-4863665D01*
X3179998Y-4846002D01*
X3162335Y-4834200D01*
X3141499Y-4830055D01*
X3022998D01*
X3002162Y-4834200D01*
X2984499Y-4846002D01*
X2972696Y-4863665D01*
X2968552Y-4884501D01*
X2972696Y-4905337D01*
X2982981Y-4920728D01*
X2979859Y-4929702D01*
X2977318Y-4933373D01*
X2969358Y-4934421D01*
X2938847Y-4903909D01*
Y-4316091D01*
X2966590Y-4288348D01*
X2985019D01*
X3002162Y-4299802D01*
X3022998Y-4303947D01*
X3141499D01*
X3162335Y-4299802D01*
X3179478Y-4288348D01*
X3213410D01*
X3292100Y-4367037D01*
Y-4487900D01*
X3387900D01*
Y-4477601D01*
X3432099D01*
Y-4500409D01*
X3607900D01*
Y-4379609D01*
X3432099D01*
Y-4399908D01*
X3387900D01*
Y-4312100D01*
X3347037D01*
X3256969Y-4222032D01*
X3244367Y-4213612D01*
X3229501Y-4210655D01*
X3179478D01*
X3162335Y-4199200D01*
X3141499Y-4195055D01*
D02*
G37*
G36*
X9750000Y-524102D02*
X9700000D01*
X9690089Y-526074D01*
X9681688Y-531688D01*
X9676074Y-540089D01*
X9674102Y-550000D01*
Y-4550000D01*
X9676074Y-4559910D01*
X9681688Y-4568312D01*
X9690089Y-4573926D01*
X9700000Y-4575897D01*
X9750000D01*
X9759910Y-4573926D01*
X9768312Y-4568312D01*
X9773926Y-4559910D01*
X9775897Y-4550000D01*
Y-550000D01*
X9773926Y-540089D01*
X9768312Y-531688D01*
X9759910Y-526074D01*
X9750000Y-524102D01*
D02*
G37*
G36*
X3141499Y-4576055D02*
X3022998D01*
X3002162Y-4580200D01*
X2984499Y-4592002D01*
X2972696Y-4609665D01*
X2968552Y-4630501D01*
X2972696Y-4651337D01*
X2984499Y-4669000D01*
X3002162Y-4680802D01*
X3022998Y-4684947D01*
X3141499D01*
X3162335Y-4680802D01*
X3179998Y-4669000D01*
X3191800Y-4651337D01*
X3195945Y-4630501D01*
X3191800Y-4609665D01*
X3179998Y-4592002D01*
X3162335Y-4580200D01*
X3141499Y-4576055D01*
D02*
G37*
G36*
Y-4703055D02*
X3022998D01*
X3002162Y-4707200D01*
X2984499Y-4719002D01*
X2972696Y-4736665D01*
X2968552Y-4757501D01*
X2972696Y-4778337D01*
X2984499Y-4796000D01*
X3002162Y-4807802D01*
X3022998Y-4811947D01*
X3141499D01*
X3162335Y-4807802D01*
X3179998Y-4796000D01*
X3191800Y-4778337D01*
X3195945Y-4757501D01*
X3191800Y-4736665D01*
X3179998Y-4719002D01*
X3162335Y-4707200D01*
X3141499Y-4703055D01*
D02*
G37*
G36*
X2567002D02*
X2448501D01*
X2427665Y-4707200D01*
X2410002Y-4719002D01*
X2398199Y-4736665D01*
X2394055Y-4757501D01*
X2398199Y-4778337D01*
X2410002Y-4796000D01*
X2427665Y-4807802D01*
X2448501Y-4811947D01*
X2567002D01*
X2587837Y-4807802D01*
X2605501Y-4796000D01*
X2617303Y-4778337D01*
X2621448Y-4757501D01*
X2617303Y-4736665D01*
X2605501Y-4719002D01*
X2587837Y-4707200D01*
X2567002Y-4703055D01*
D02*
G37*
G36*
X11519698Y-4474103D02*
X11480301D01*
X11477800Y-4474600D01*
X11475249D01*
X11436609Y-4482286D01*
X11434253Y-4483262D01*
X11431751Y-4483760D01*
X11395354Y-4498836D01*
X11393233Y-4500253D01*
X11390876Y-4501230D01*
X11358120Y-4523117D01*
X11356316Y-4524921D01*
X11354195Y-4526338D01*
X11326337Y-4554195D01*
X11324920Y-4556316D01*
X11323117Y-4558120D01*
X11301229Y-4590877D01*
X11300253Y-4593233D01*
X11298836Y-4595354D01*
X11283759Y-4631752D01*
X11283262Y-4634254D01*
X11282286Y-4636610D01*
X11274600Y-4675249D01*
Y-4677800D01*
X11274102Y-4680302D01*
Y-4719698D01*
X11274600Y-4722200D01*
Y-4724751D01*
X11282286Y-4763390D01*
X11283262Y-4765747D01*
X11283759Y-4768249D01*
X11298836Y-4804646D01*
X11300253Y-4806767D01*
X11301229Y-4809123D01*
X11323117Y-4841880D01*
X11324920Y-4843684D01*
X11326337Y-4845805D01*
X11354195Y-4873663D01*
X11356316Y-4875079D01*
X11358119Y-4876883D01*
X11390876Y-4898771D01*
X11393233Y-4899747D01*
X11395354Y-4901164D01*
X11431751Y-4916240D01*
X11434253Y-4916738D01*
X11436610Y-4917714D01*
X11475249Y-4925400D01*
X11477800D01*
X11480301Y-4925897D01*
X11519698D01*
X11522200Y-4925400D01*
X11524750D01*
X11563390Y-4917714D01*
X11565746Y-4916738D01*
X11568248Y-4916240D01*
X11604646Y-4901164D01*
X11606767Y-4899747D01*
X11609123Y-4898771D01*
X11641880Y-4876883D01*
X11643684Y-4875080D01*
X11645804Y-4873663D01*
X11673662Y-4845805D01*
X11675079Y-4843684D01*
X11676883Y-4841881D01*
X11698770Y-4809123D01*
X11699746Y-4806767D01*
X11701164Y-4804646D01*
X11716240Y-4768249D01*
X11716738Y-4765747D01*
X11717714Y-4763390D01*
X11725400Y-4724751D01*
Y-4722200D01*
X11725897Y-4719698D01*
Y-4680302D01*
X11725400Y-4677800D01*
Y-4675249D01*
X11717714Y-4636610D01*
X11716738Y-4634253D01*
X11716240Y-4631752D01*
X11701164Y-4595354D01*
X11699746Y-4593233D01*
X11698770Y-4590877D01*
X11676883Y-4558120D01*
X11675079Y-4556316D01*
X11673662Y-4554195D01*
X11645804Y-4526338D01*
X11643684Y-4524921D01*
X11641880Y-4523117D01*
X11609123Y-4501230D01*
X11606767Y-4500253D01*
X11604646Y-4498836D01*
X11568248Y-4483760D01*
X11565746Y-4483262D01*
X11563390Y-4482286D01*
X11524751Y-4474600D01*
X11522200D01*
X11519698Y-4474103D01*
D02*
G37*
G36*
X469698D02*
X430301D01*
X427800Y-4474600D01*
X425249D01*
X386609Y-4482286D01*
X384253Y-4483262D01*
X381751Y-4483760D01*
X345354Y-4498836D01*
X343233Y-4500253D01*
X340876Y-4501230D01*
X308120Y-4523117D01*
X306316Y-4524921D01*
X304195Y-4526338D01*
X276337Y-4554195D01*
X274920Y-4556316D01*
X273117Y-4558120D01*
X251229Y-4590877D01*
X250253Y-4593233D01*
X248836Y-4595354D01*
X233760Y-4631752D01*
X233262Y-4634254D01*
X232286Y-4636610D01*
X224600Y-4675249D01*
Y-4677800D01*
X224102Y-4680302D01*
Y-4719698D01*
X224600Y-4722200D01*
Y-4724751D01*
X232286Y-4763390D01*
X233262Y-4765747D01*
X233760Y-4768249D01*
X248836Y-4804646D01*
X250253Y-4806767D01*
X251229Y-4809123D01*
X273117Y-4841880D01*
X274920Y-4843684D01*
X276337Y-4845805D01*
X304195Y-4873663D01*
X306316Y-4875079D01*
X308119Y-4876883D01*
X340876Y-4898771D01*
X343233Y-4899747D01*
X345354Y-4901164D01*
X381751Y-4916240D01*
X384253Y-4916738D01*
X386610Y-4917714D01*
X425249Y-4925400D01*
X427800D01*
X430301Y-4925897D01*
X469698D01*
X472200Y-4925400D01*
X474750D01*
X513390Y-4917714D01*
X515746Y-4916738D01*
X518248Y-4916240D01*
X554646Y-4901164D01*
X556767Y-4899747D01*
X559123Y-4898771D01*
X591880Y-4876883D01*
X593684Y-4875080D01*
X595804Y-4873663D01*
X623662Y-4845805D01*
X625079Y-4843684D01*
X626883Y-4841881D01*
X648770Y-4809123D01*
X649746Y-4806767D01*
X651164Y-4804646D01*
X666240Y-4768249D01*
X666738Y-4765747D01*
X667714Y-4763390D01*
X675400Y-4724751D01*
Y-4722200D01*
X675897Y-4719698D01*
Y-4680302D01*
X675400Y-4677800D01*
Y-4675249D01*
X667714Y-4636610D01*
X666738Y-4634253D01*
X666240Y-4631752D01*
X651164Y-4595354D01*
X649746Y-4593233D01*
X648770Y-4590877D01*
X626883Y-4558120D01*
X625079Y-4556316D01*
X623662Y-4554195D01*
X595804Y-4526338D01*
X593684Y-4524921D01*
X591880Y-4523117D01*
X559123Y-4501230D01*
X556767Y-4500253D01*
X554646Y-4498836D01*
X518248Y-4483760D01*
X515746Y-4483262D01*
X513390Y-4482286D01*
X474751Y-4474600D01*
X472200D01*
X469698Y-4474103D01*
D02*
G37*
G36*
X2567002Y-4830055D02*
X2448501D01*
X2427665Y-4834200D01*
X2410002Y-4846002D01*
X2398199Y-4863665D01*
X2394055Y-4884501D01*
X2398199Y-4905337D01*
X2410002Y-4923000D01*
X2427665Y-4934802D01*
X2448501Y-4938947D01*
X2567002D01*
X2587837Y-4934802D01*
X2605501Y-4923000D01*
X2617303Y-4905337D01*
X2621448Y-4884501D01*
X2617303Y-4863665D01*
X2605501Y-4846002D01*
X2587837Y-4834200D01*
X2567002Y-4830055D01*
D02*
G37*
G36*
X4110401Y-1404601D02*
X3989601D01*
Y-1615400D01*
X4110401D01*
Y-1404601D01*
D02*
G37*
G36*
X1255400Y-1767100D02*
X1054600D01*
Y-2157900D01*
X1255400D01*
Y-1767100D01*
D02*
G37*
%LPD*%
D10*
X1062486Y-3725025D02*
D03*
Y-3825025D02*
D03*
X1197513D02*
D03*
X1197487Y-3725025D02*
D03*
D11*
X1062512Y-3775013D02*
D03*
X1197513D02*
D03*
D12*
X1130025Y-3840011D02*
D03*
Y-3709989D02*
D03*
D13*
X2025000Y-950000D02*
D03*
X1925000D02*
D03*
X1800000D02*
D03*
X1700000D02*
D03*
D14*
X1825000Y-2442500D02*
D03*
D15*
X1875000D02*
D03*
X1925000D02*
D03*
X1975000D02*
D03*
D16*
X1960000Y-2307500D02*
D03*
X1900000D02*
D03*
X1840000D02*
D03*
D17*
X1530000Y-606250D02*
D03*
X1610000D02*
D03*
X2090000D02*
D03*
X2170000D02*
D03*
D18*
X1675000D02*
D03*
X1725000D02*
D03*
X1775000D02*
D03*
X1825000D02*
D03*
X2025000D02*
D03*
X1975000D02*
D03*
X1925000D02*
D03*
X1875000D02*
D03*
D19*
X4380001Y-1510001D02*
D03*
X4270001D02*
D03*
X4160001D02*
D03*
X4930000D02*
D03*
X4820000D02*
D03*
X4710000D02*
D03*
X4600000D02*
D03*
X4490000D02*
D03*
X4050001D02*
D03*
D20*
X5049697Y-1460001D02*
D03*
D21*
X3590002Y-1459998D02*
D03*
D22*
X3500000Y-500000D02*
D03*
X5049997D02*
D03*
D23*
X6899993Y-1795000D02*
D03*
X7340007D02*
D03*
X6194992D02*
D03*
X6635007D02*
D03*
D24*
X3520000Y-4785004D02*
D03*
Y-4974996D02*
D03*
X3720000Y-4880000D02*
D03*
X7115000Y-3345000D02*
D03*
X6915000Y-3439996D02*
D03*
Y-3250004D02*
D03*
X854999Y-3330004D02*
D03*
X654999Y-3425000D02*
D03*
Y-3235008D02*
D03*
X1155000Y-3230004D02*
D03*
Y-3419996D02*
D03*
X1354999Y-3325000D02*
D03*
X3520000Y-4440009D02*
D03*
Y-4630001D02*
D03*
X3719999Y-4535005D02*
D03*
D25*
X5805500Y-837248D02*
D03*
X5932500D02*
D03*
X6059500D02*
D03*
X6186500D02*
D03*
X6313500D02*
D03*
X6440500D02*
D03*
X6567500D02*
D03*
X6694500D02*
D03*
X5805500Y-262751D02*
D03*
X5932500D02*
D03*
X6059500D02*
D03*
X6186500D02*
D03*
X6313500D02*
D03*
X6440500D02*
D03*
X6567500D02*
D03*
X6694500D02*
D03*
D26*
X2325000Y-2561999D02*
D03*
Y-2324999D02*
D03*
D27*
X2250000Y-2940000D02*
D03*
X1954751D02*
D03*
X484751Y-4150000D02*
D03*
X780000D02*
D03*
D28*
X1325000Y-1440000D02*
D03*
X1495000D02*
D03*
D29*
X845000Y-3625000D02*
D03*
X665000D02*
D03*
D30*
X7260000Y-3340000D02*
D03*
X7370409D02*
D03*
D31*
X3060000Y-1390000D02*
D03*
Y-1260000D02*
D03*
X1330000Y-3780000D02*
D03*
Y-3650000D02*
D03*
X2807500Y-1390000D02*
D03*
Y-1260000D02*
D03*
D32*
X7900000Y-3560000D02*
D03*
X7975000D02*
D03*
X2092500Y-800000D02*
D03*
X2167500D02*
D03*
X1532500D02*
D03*
X1607500D02*
D03*
X2487500Y-1350000D02*
D03*
X2412500D02*
D03*
X1749999Y-1349999D02*
D03*
X1674999D02*
D03*
X1749999Y-1449999D02*
D03*
X1674999D02*
D03*
X1670000Y-1550000D02*
D03*
X1745000D02*
D03*
X1699999Y-1749999D02*
D03*
X1774999D02*
D03*
X6562500Y-100000D02*
D03*
X6637500D02*
D03*
X6915000Y-3140000D02*
D03*
X6990000D02*
D03*
X2080000Y-1880000D02*
D03*
X2005000D02*
D03*
D33*
X2810000Y-1105000D02*
D03*
Y-955000D02*
D03*
X3060000Y-1100000D02*
D03*
Y-950000D02*
D03*
D34*
X1160000Y-168495D02*
D03*
Y-691505D02*
D03*
D35*
X3125005Y-399073D02*
D03*
X2825006D02*
D03*
X2675019D02*
D03*
D36*
X2520003Y-327927D02*
D03*
Y-100927D02*
D03*
X3279996D02*
D03*
Y-327927D02*
D03*
D37*
X7425000Y-360000D02*
D03*
Y-560000D02*
D03*
D38*
X8000000Y-125000D02*
D03*
Y-795000D02*
D03*
D39*
X7759996Y-1929999D02*
D03*
Y-3170001D02*
D03*
D40*
X7570004Y-2175007D02*
D03*
Y-2225020D02*
D03*
Y-2275007D02*
D03*
Y-2375007D02*
D03*
Y-2325019D02*
D03*
Y-2975005D02*
D03*
Y-2925018D02*
D03*
Y-2875006D02*
D03*
Y-2825018D02*
D03*
Y-2775006D02*
D03*
Y-2725019D02*
D03*
Y-2675006D02*
D03*
Y-2625019D02*
D03*
Y-2575006D02*
D03*
Y-2525019D02*
D03*
Y-2475006D02*
D03*
Y-2425019D02*
D03*
Y-2125020D02*
D03*
D41*
X5920000Y-2220001D02*
D03*
X5793000D02*
D03*
X5666000D02*
D03*
X5539000D02*
D03*
X5412000D02*
D03*
X5285000D02*
D03*
X5158000D02*
D03*
X5031000D02*
D03*
X4904000D02*
D03*
X4777000D02*
D03*
X4650000D02*
D03*
X4523000D02*
D03*
X4396000D02*
D03*
X4269000D02*
D03*
Y-4020022D02*
D03*
X4396000D02*
D03*
X4523000D02*
D03*
X4650000D02*
D03*
X4777000D02*
D03*
X4904000D02*
D03*
X5031000D02*
D03*
X5158000D02*
D03*
X5285000D02*
D03*
X5412000D02*
D03*
X5539000D02*
D03*
X5666000D02*
D03*
X5793000D02*
D03*
X5920000D02*
D03*
D42*
X4119495Y-2548524D02*
D03*
Y-2675524D02*
D03*
Y-2802524D02*
D03*
Y-2929524D02*
D03*
Y-3056524D02*
D03*
Y-3183524D02*
D03*
Y-3310524D02*
D03*
Y-3437524D02*
D03*
Y-3564524D02*
D03*
Y-3691524D02*
D03*
D43*
X5151904Y-2969986D02*
D03*
Y-2830007D02*
D03*
Y-3110017D02*
D03*
X5291909D02*
D03*
Y-2970012D02*
D03*
Y-2830007D02*
D03*
X5011899D02*
D03*
Y-2970012D02*
D03*
Y-3110017D02*
D03*
D44*
X2190249Y-3375000D02*
D03*
D45*
Y-3325000D02*
D03*
Y-3275000D02*
D03*
Y-3225000D02*
D03*
Y-3175000D02*
D03*
X2025000D02*
D03*
Y-3225000D02*
D03*
Y-3275000D02*
D03*
Y-3325000D02*
D03*
Y-3375000D02*
D03*
D46*
X850000Y-550000D02*
D03*
X889980D02*
D03*
D47*
X7847301Y-3420000D02*
D03*
X7972699D02*
D03*
X2532699Y-1200000D02*
D03*
X2407300D02*
D03*
X4162699Y-1700000D02*
D03*
X4037301D02*
D03*
X6025000Y-1050000D02*
D03*
X5899601D02*
D03*
X6032699Y-1230000D02*
D03*
X5907301D02*
D03*
X6842699Y-1170000D02*
D03*
X6717301D02*
D03*
X6712301Y-1030000D02*
D03*
X6837699D02*
D03*
D48*
X3350000Y-499886D02*
D03*
Y-640000D02*
D03*
X1549999Y-1920056D02*
D03*
Y-1779942D02*
D03*
D49*
X1949999Y-1474999D02*
D03*
D50*
Y-1524999D02*
D03*
Y-1574999D02*
D03*
Y-1624999D02*
D03*
X2244610D02*
D03*
Y-1574999D02*
D03*
Y-1524999D02*
D03*
Y-1474999D02*
D03*
D51*
X2022305Y-1697305D02*
D03*
X2072305D02*
D03*
X2122305D02*
D03*
X2172305D02*
D03*
Y-1402694D02*
D03*
X2122305D02*
D03*
X2072305D02*
D03*
X2022305D02*
D03*
D52*
X2097305Y-1549999D02*
D03*
D53*
X7117608Y-350000D02*
D03*
X6982392D02*
D03*
Y-575000D02*
D03*
X7117608D02*
D03*
D54*
X5884942Y-1980000D02*
D03*
X6025057D02*
D03*
X5884942Y-1750000D02*
D03*
X6025056D02*
D03*
X2630000Y-1570000D02*
D03*
X2489886D02*
D03*
X1754943Y-2674999D02*
D03*
X1895057D02*
D03*
X2474942Y-3815001D02*
D03*
X2615057D02*
D03*
X3060114Y-3820000D02*
D03*
X2920000D02*
D03*
X3720057Y-1700000D02*
D03*
X3579943D02*
D03*
X6279943Y-1210000D02*
D03*
X6420057D02*
D03*
X6420057Y-1040000D02*
D03*
X6279943D02*
D03*
X825057Y-3875000D02*
D03*
X684942D02*
D03*
X870057Y-700000D02*
D03*
X729943D02*
D03*
X1700057Y-3460000D02*
D03*
X1559943D02*
D03*
X1560228Y-3670000D02*
D03*
X1700343D02*
D03*
X2399943Y-800000D02*
D03*
X2540057D02*
D03*
D55*
X5540000Y-1837301D02*
D03*
Y-1962699D02*
D03*
X1625000Y-2437699D02*
D03*
Y-2312300D02*
D03*
X5570000Y-435399D02*
D03*
Y-310000D02*
D03*
X1720000Y-3282699D02*
D03*
Y-3157301D02*
D03*
D56*
X1155000Y-1962500D02*
D03*
X485000D02*
D03*
D57*
X920000Y-2537500D02*
D03*
X720000D02*
D03*
D58*
X5740000Y-1820000D02*
D03*
Y-1895000D02*
D03*
X3340000Y-4437500D02*
D03*
Y-4362500D02*
D03*
Y-4707500D02*
D03*
Y-4632500D02*
D03*
X6575000Y-1037500D02*
D03*
Y-1112500D02*
D03*
X3160000Y-1677500D02*
D03*
Y-1602500D02*
D03*
X550000Y-3750000D02*
D03*
Y-3675000D02*
D03*
X1875000Y-3375000D02*
D03*
Y-3450000D02*
D03*
X2330000Y-3092500D02*
D03*
Y-3167500D02*
D03*
X2432500Y-3092500D02*
D03*
Y-3167500D02*
D03*
X1875434Y-3273479D02*
D03*
Y-3198479D02*
D03*
D59*
X3082248Y-4884501D02*
D03*
Y-4757501D02*
D03*
Y-4630501D02*
D03*
Y-4503501D02*
D03*
Y-4376501D02*
D03*
Y-4249501D02*
D03*
Y-4122501D02*
D03*
Y-3995501D02*
D03*
X2507751Y-4884501D02*
D03*
Y-4757501D02*
D03*
Y-4630501D02*
D03*
Y-4503501D02*
D03*
Y-4376501D02*
D03*
Y-4249501D02*
D03*
Y-4122501D02*
D03*
Y-3995501D02*
D03*
D60*
X1420000Y-1155000D02*
D03*
Y-1325000D02*
D03*
X1550000Y-1155000D02*
D03*
Y-1325000D02*
D03*
D61*
X588495Y-2975000D02*
D03*
X1111505D02*
D03*
D62*
X2280000Y-1910000D02*
X2990000D01*
X2122305Y-1752305D02*
X2280000Y-1910000D01*
X2122305Y-1752305D02*
Y-1697305D01*
X6900000Y-2000000D02*
Y-1789945D01*
X2170000Y-1732906D02*
X2307821D01*
X2025000Y-3175000D02*
X2075000D01*
X2007468D02*
X2025000D01*
X2307821Y-1732906D02*
X2334915Y-1760000D01*
X2340000D01*
X4622300Y-1377700D02*
X4690000Y-1310000D01*
X3220000Y-3230000D02*
X4340000Y-4350000D01*
X4550000D02*
X4650000Y-4250000D01*
X4340000Y-4350000D02*
X4550000D01*
X4500637Y-4200000D02*
X4523000Y-4177637D01*
X4330000Y-4200000D02*
X4500637D01*
X4523000Y-4177637D02*
Y-4020022D01*
X3058557Y-1981443D02*
X3160000Y-1880000D01*
X1991443Y-1981443D02*
X3058557D01*
X1910000Y-1900000D02*
X1991443Y-1981443D01*
X2990000Y-1910000D02*
X3070000Y-1830000D01*
X2980000Y-1440000D02*
X3070000Y-1530000D01*
Y-1830000D02*
Y-1530000D01*
X2980000Y-1440000D02*
Y-1030000D01*
X1762299Y-1339878D02*
X1792178Y-1310000D01*
X2057426D01*
X2072305Y-1324879D01*
Y-1402694D02*
Y-1324879D01*
X1762299Y-1340199D02*
Y-1339878D01*
X1752499Y-1349999D02*
X1762299Y-1340199D01*
X6370000Y-2650000D02*
X6510000Y-2510000D01*
X4890000Y-2650000D02*
X6370000D01*
X7670000Y-4390000D02*
X8205000Y-4925000D01*
X9775000D01*
X5663750Y-4388750D02*
X7388750D01*
X7390000Y-4390000D01*
X5662500Y-4387500D02*
X5663750Y-4388750D01*
X4868737Y-1821263D02*
X5180000Y-1510000D01*
X4668737Y-1821263D02*
X4868737D01*
X5180000Y-1510000D02*
Y-1390000D01*
X5030000Y-1240000D02*
X5180000Y-1390000D01*
X4630000Y-1240000D02*
X5030000D01*
X4490000Y-1380000D02*
X4630000Y-1240000D01*
X4490000Y-1510001D02*
Y-1380000D01*
Y-1510001D02*
X4490000Y-1510001D01*
X4398220Y-2091780D02*
X4668737Y-1821263D01*
X5757301Y-1230000D02*
X5907301D01*
X6274943Y-1215000D02*
X6279943Y-1210000D01*
X6140000Y-1215000D02*
X6274943D01*
X2244610Y-1474999D02*
X2244611Y-1475000D01*
X2340001D02*
X2412500Y-1402500D01*
X2244611Y-1475000D02*
X2340001D01*
X2244610Y-1574999D02*
Y-1549999D01*
Y-1524999D01*
X2460000Y-3420000D02*
X2530000Y-3350000D01*
X2150876Y-3325000D02*
X2265000D01*
X2725000Y-3645000D02*
X2820000Y-3550000D01*
X2725000Y-3964503D02*
Y-3645000D01*
X2567002Y-4122501D02*
X2725000Y-3964503D01*
X1777178Y-1425833D02*
X1804167D01*
X1827306Y-1402694D02*
X2022305D01*
X1804167Y-1425833D02*
X1827306Y-1402694D01*
X1762812Y-1440199D02*
X1777178Y-1425833D01*
X4278220Y-2210780D02*
Y-2061780D01*
X4710000Y-1630000D02*
Y-1510001D01*
X4278220Y-2061780D02*
X4710000Y-1630000D01*
X2075000Y-3175000D02*
X2110000Y-3210000D01*
Y-3560000D02*
Y-3210000D01*
X1888794Y-3781206D02*
X2110000Y-3560000D01*
X2250000Y-2962624D02*
Y-2940000D01*
X2190249Y-3022375D02*
X2250000Y-2962624D01*
X2190249Y-3175000D02*
Y-3022375D01*
X1954751Y-2940000D02*
X1980000Y-2965249D01*
Y-3090000D02*
X2006560Y-3116560D01*
X1980000Y-3090000D02*
Y-2965249D01*
X2006560Y-3174092D02*
Y-3116560D01*
Y-3174092D02*
X2007468Y-3175000D01*
X6170000Y-2070000D02*
Y-1980000D01*
X2529100Y-3168400D02*
X2530000Y-3169300D01*
X2330000Y-3230000D02*
X3220000D01*
X2432500Y-3167500D02*
X2433400Y-3168400D01*
X2529100D01*
X2920000Y-4000000D02*
Y-3820000D01*
Y-4000000D02*
X3077749D01*
X3082248Y-3995501D01*
X2360000Y-3929943D02*
X2432389Y-3857554D01*
X2360000Y-4288001D02*
X2448500Y-4376501D01*
X2360000Y-4288001D02*
Y-3929943D01*
X2460000Y-3420000D02*
X3220000D01*
X2360000D02*
X2460000D01*
X3060114Y-3820000D02*
X3065057D01*
X3340000Y-4094943D01*
Y-4100000D02*
Y-4094943D01*
X2261522Y-3275000D02*
X2306522Y-3230000D01*
X2190249Y-3275000D02*
X2261522D01*
X2306522Y-3230000D02*
X2330000D01*
X2720000Y-1690000D02*
X2890000Y-1520000D01*
X2279476Y-1624999D02*
X2344476Y-1690000D01*
X2720000D01*
X2168605Y-1633874D02*
Y-1621299D01*
X2170910Y-1640476D02*
X2172305Y-1641871D01*
Y-1697305D02*
Y-1641871D01*
X2170910Y-1640476D02*
Y-1636178D01*
X2097305Y-1549999D02*
X2168605Y-1621299D01*
Y-1633874D02*
X2170910Y-1636178D01*
X2282778Y-2288699D02*
X2319078Y-2324999D01*
X2160000Y-2130000D02*
X2282778Y-2252778D01*
X1950000Y-2130000D02*
X2160000D01*
X2319078Y-2324999D02*
X2325000D01*
X2282778Y-2288699D02*
Y-2252778D01*
X2067722Y-2202278D02*
X2070000Y-2200000D01*
X2005221Y-2202278D02*
X2067722D01*
X1900000Y-2180000D02*
X1950000Y-2130000D01*
X2090000Y-800000D02*
X2092500D01*
X2080200Y-790200D02*
Y-787700D01*
Y-790200D02*
X2090000Y-800000D01*
X1975000Y-682500D02*
Y-606250D01*
Y-682500D02*
X2080200Y-787700D01*
X1610000Y-800000D02*
X1619800Y-790200D01*
Y-787700D01*
X1607500Y-800000D02*
X1610000D01*
X1675000Y-732500D02*
Y-606250D01*
X1619800Y-787700D02*
X1675000Y-732500D01*
X1527500Y-805000D02*
X1532500Y-800000D01*
X3160000Y-1880000D02*
Y-1677500D01*
X4269000Y-2220001D02*
X4278220Y-2210780D01*
X4396000Y-2220001D02*
X4398220Y-2217780D01*
Y-2091780D01*
X2432389Y-3852611D02*
X2469999Y-3815001D01*
X2432389Y-3857554D02*
Y-3852611D01*
X2469999Y-3815001D02*
X2474942D01*
X1900000Y-2307500D02*
Y-2180000D01*
X785706Y-3837390D02*
X823316Y-3875000D01*
X550000Y-3750000D02*
X730000D01*
X785706Y-3805706D01*
Y-3837390D02*
Y-3805706D01*
X823316Y-3875000D02*
X825057D01*
X826526Y-3876469D01*
X1985626Y-3225000D02*
X2025000D01*
X1885234Y-3210000D02*
X1970626D01*
X1875434Y-3200200D02*
Y-3198479D01*
X1970626Y-3210000D02*
X1985626Y-3225000D01*
X1875434Y-3200200D02*
X1885234Y-3210000D01*
X6567500Y-262751D02*
Y-107499D01*
X6575000Y-100000D01*
X1620000Y-2670000D02*
X1749943D01*
X1754943Y-2674999D01*
X1960000Y-2247499D02*
X2005221Y-2202278D01*
X1495000Y-1440000D02*
X1495400D01*
X1522700Y-1352300D02*
X1550000Y-1325000D01*
X1495400Y-1440000D02*
X1522700Y-1412700D01*
X7274980Y-2225020D02*
X7570004D01*
X6300000Y-2730000D02*
X6770000D01*
X7274980Y-2225020D01*
X1752500Y-1557500D02*
X1835001Y-1474999D01*
X1749999Y-1349999D02*
X1752499D01*
X3212248Y-499886D02*
X3350000D01*
X3125005Y-412643D02*
X3212248Y-499886D01*
X3125005Y-412643D02*
Y-399073D01*
X2667610Y-1532390D02*
X2738248D01*
X2760637Y-1510000D02*
X2770000D01*
X2630000Y-1570000D02*
X2667610Y-1532390D01*
X2738248D02*
X2760637Y-1510000D01*
X2890000Y-1520000D02*
Y-1035000D01*
X835087Y-4225000D02*
X1105000D01*
X780000Y-4169913D02*
Y-4150000D01*
X1105000Y-4225000D02*
X1548794Y-3781206D01*
X1888794D01*
X6170000Y-1980000D02*
Y-1819992D01*
X6019999Y-2220001D02*
X6170000Y-2070000D01*
Y-1819992D02*
X6194992Y-1795000D01*
X5540000Y-1750862D02*
X5570000Y-1720862D01*
X5540000Y-1829943D02*
Y-1750862D01*
X966185Y-4150000D02*
X1130025Y-3986160D01*
X780000Y-4150000D02*
X966185D01*
X1130025Y-3986160D02*
Y-3840011D01*
X1835001Y-1474999D02*
X1949999D01*
X1420343Y-3535057D02*
X1555285Y-3670000D01*
X1420343Y-3535057D02*
Y-3530000D01*
X1197313Y-3825225D02*
X1197513Y-3825025D01*
X1132325Y-3825225D02*
X1197313D01*
X1130025Y-3827524D02*
X1132325Y-3825225D01*
X2189341Y-3175909D02*
X2190249Y-3175000D01*
X1130025Y-3840011D02*
Y-3827524D01*
X1767610Y-3632390D02*
X1950000Y-3450000D01*
X1875000D02*
X1950000D01*
X1700343Y-3670000D02*
X1737953Y-3632390D01*
X1767610D01*
X1950000Y-3450000D02*
X1971942Y-3428058D01*
X1993883Y-3406116D01*
X1710057Y-3450000D02*
X1875000D01*
X1700057Y-3460000D02*
X1710057Y-3450000D01*
X1555285Y-3670000D02*
X1560228D01*
X2007500Y-1880000D02*
X2017300Y-1870200D01*
Y-1842700D01*
X2071569Y-1788431D01*
X2005000Y-1880000D02*
X2007500D01*
X2071569Y-1788431D02*
Y-1698041D01*
X2072305Y-1697305D01*
X1910000Y-1900000D02*
Y-1840000D01*
X2017094Y-1732906D01*
X2021569D01*
X2022305Y-1732170D02*
Y-1697305D01*
X2021569Y-1732906D02*
X2022305Y-1732170D01*
X2810000Y-955000D02*
X2890000Y-1035000D01*
X2980000Y-1030000D02*
X3060000Y-950000D01*
X2807500Y-1260000D02*
Y-1107500D01*
X2810000Y-1105000D01*
X3060000Y-1100001D02*
X3060000Y-1100000D01*
X3060000Y-1260000D02*
Y-1100001D01*
X2412500Y-1402500D02*
Y-1350000D01*
X4096246Y-3541274D02*
X4119495Y-3564524D01*
X3991275Y-3541274D02*
X4096246D01*
X2700000Y-2750000D02*
X3200000D01*
X3991275Y-3541274D01*
X7411984Y-2040000D02*
X7497004Y-2125020D01*
X7570004D01*
X7410000Y-2040000D02*
X7411984D01*
X5755000Y-4270000D02*
X6505000D01*
X6765000Y-4010000D01*
X5954800Y-4090000D02*
X6060000D01*
X5920000Y-4055199D02*
X5954800Y-4090000D01*
X6765000Y-4010000D02*
Y-3370000D01*
X5920000Y-4055199D02*
Y-4020022D01*
X5291909Y-2970012D02*
X5450000D01*
X5920000Y-2220001D02*
X6019999D01*
X4950000Y-1650000D02*
X5002397Y-1597603D01*
Y-1507301D01*
X6140000Y-1040000D02*
X6279943D01*
X4303800Y-3236200D02*
X4890000Y-2650000D01*
X4303800Y-3985222D02*
Y-3236200D01*
X3900000Y-2550000D02*
X4118020D01*
X3745000Y-2285000D02*
X4150000Y-1880000D01*
X3745000Y-2570000D02*
Y-2285000D01*
Y-2570000D02*
X3850524Y-2675524D01*
X5285000Y-4215000D02*
Y-4020022D01*
X5250000Y-4250000D02*
X5285000Y-4215000D01*
X4650000Y-4250000D02*
Y-4020022D01*
X2565002Y-2910000D02*
X3110000D01*
X3891524Y-3691524D01*
X4119495D01*
X6510000Y-2820000D02*
X6820000D01*
X5842679Y-3850000D02*
X6040000D01*
X6820000Y-2820000D02*
X7280000Y-2360000D01*
Y-2330000D02*
X7334993Y-2275007D01*
X6040000Y-3850000D02*
X7408506Y-2481494D01*
Y-2411494D01*
X7280000Y-2360000D02*
Y-2330000D01*
X5827800Y-3985222D02*
Y-3864879D01*
X6830000Y-2930000D02*
X7340000Y-2420000D01*
Y-2370000D02*
X7384981Y-2325019D01*
X6620000Y-2930000D02*
X6830000D01*
X7340000Y-2420000D02*
Y-2370000D01*
X5827800Y-3864879D02*
X5842679Y-3850000D01*
X4600000Y-3625000D02*
X5705000D01*
X6510000Y-2820000D01*
X4865000Y-3745000D02*
X5805000D01*
X6620000Y-2930000D01*
X7408506Y-2411494D02*
X7440693Y-2379307D01*
X4270000Y-4470000D02*
X4810000D01*
X3220000Y-3420000D02*
X4270000Y-4470000D01*
X4810000D02*
X5031000Y-4249000D01*
X4220000Y-4600000D02*
X5070000D01*
X3170001Y-3550000D02*
X4220000Y-4600000D01*
X5070000D02*
X5412000Y-4258000D01*
X7334993Y-2275007D02*
X7570004D01*
X5536640Y-3493360D02*
X6300000Y-2730000D01*
X7384981Y-2325019D02*
X7570004D01*
X7440693Y-2379307D02*
X7565704D01*
X5793000Y-4020022D02*
X5827800Y-3985222D01*
X7565704Y-2379307D02*
X7570004Y-2375007D01*
X4430800Y-3794199D02*
X4600000Y-3625000D01*
X1255000Y-3500000D02*
Y-3302503D01*
X1182500Y-3230004D02*
X1255000Y-3302503D01*
X682500Y-3235008D02*
X755000Y-3307507D01*
X1155000Y-3230004D02*
X1182500D01*
X755000Y-3400000D02*
Y-3307507D01*
Y-3400000D02*
X829999Y-3475000D01*
X1130025Y-3709989D02*
Y-3575025D01*
X1197487Y-3725025D02*
Y-3557512D01*
X1255000Y-3500000D01*
X1195920Y-3775000D02*
X1330000D01*
X928531Y-3876469D02*
X1027287Y-3777713D01*
X826526Y-3876469D02*
X928531D01*
X829999Y-3475000D02*
X1030000D01*
X1130025Y-3575025D01*
X1059812Y-3777713D02*
X1062512Y-3775013D01*
X1027287Y-3777713D02*
X1059812D01*
X1752499Y-1449999D02*
X1762299Y-1440199D01*
X1752499Y-1449999D02*
Y-1449999D01*
X1762299Y-1440199D02*
X1762812D01*
X2820000Y-3550000D02*
X3170001D01*
X2870000Y-3680000D02*
X3110000D01*
X4140000Y-4710000D01*
X5320000D01*
X4269000Y-4020022D02*
X4303800Y-3985222D01*
X4910000Y-3490000D02*
X4913360Y-3493360D01*
X5536640D01*
X4904000Y-4020022D02*
X4910000Y-4014022D01*
Y-3850000D01*
X4777000Y-3833000D02*
X4865000Y-3745000D01*
X4777000Y-4020022D02*
Y-3833000D01*
X4622300Y-1487701D02*
Y-1377700D01*
X4600000Y-1510001D02*
X4622300Y-1487701D01*
X5002397Y-1507301D02*
X5049697Y-1460001D01*
X4430800Y-3985222D02*
Y-3794199D01*
X2615057Y-3815001D02*
X2620000Y-3810058D01*
X2330000Y-3230000D02*
Y-3167500D01*
X2265000Y-3325000D02*
X2360000Y-3420000D01*
X5750000Y-1050000D02*
X5899601D01*
X4155001Y-1505000D02*
Y-1355001D01*
X4150000Y-1350000D02*
X4155001Y-1355001D01*
Y-1505000D02*
X4160001Y-1510001D01*
X4118020Y-2550000D02*
X4119495Y-2548524D01*
X2600057Y-1570000D02*
X2605000D01*
X1960000Y-2307500D02*
Y-2247499D01*
X1620000Y-2670000D02*
Y-2442699D01*
X1625000Y-2437699D01*
X2244610Y-1624999D02*
X2279476D01*
X6700355Y-1018054D02*
X6712301Y-1030000D01*
X6694500Y-837248D02*
X6700355Y-843103D01*
Y-1018054D02*
Y-843103D01*
X4150000Y-1880000D02*
X4270001Y-1759999D01*
Y-1510001D01*
X5031000Y-4249000D02*
Y-4020022D01*
X5412000Y-4258000D02*
Y-4020022D01*
X5320000Y-4710000D02*
X5539000Y-4491000D01*
Y-4020022D01*
X6915000Y-3250004D02*
Y-3140000D01*
X6862695Y-3272304D02*
X6892700D01*
X6915000Y-3250004D02*
X6915000Y-3250004D01*
X6892700Y-3272304D02*
X6915000Y-3250004D01*
X6765000Y-3370000D02*
X6862695Y-3272304D01*
X5666000Y-4181000D02*
Y-4020022D01*
X5666000Y-4181000D02*
X5755000Y-4270000D01*
X4396000Y-4020022D02*
X4430800Y-3985222D01*
X3850524Y-2675524D02*
X4119495D01*
X2950499Y-4249501D02*
X3082248D01*
X3340000Y-4362500D02*
Y-4360000D01*
X3082248Y-4249501D02*
X3229501D01*
X3340000Y-4360000D01*
X3088103Y-4382356D02*
X3218637D01*
X3340000Y-4632500D02*
Y-4630000D01*
X3330200Y-4620200D02*
X3340000Y-4630000D01*
X3233516Y-4526016D02*
X3327700Y-4620200D01*
X3218637Y-4382356D02*
X3233516Y-4397235D01*
Y-4526016D02*
Y-4397235D01*
X3327700Y-4620200D02*
X3330200D01*
X3082248Y-4376501D02*
X3088103Y-4382356D01*
X3344398Y-4630200D02*
X3379800D01*
X3340000Y-4710000D02*
X3415004Y-4785004D01*
X3520000D01*
X3340000Y-4710000D02*
Y-4707500D01*
X2954996Y-4974996D02*
X3520000D01*
X2900000Y-4920000D02*
Y-4300000D01*
Y-4920000D02*
X2954996Y-4974996D01*
X3341254Y-4438754D02*
X3518745D01*
X3340000Y-4437500D02*
X3341254Y-4438754D01*
X3518745D02*
X3520000Y-4440009D01*
X3380000Y-4630000D02*
X3519999D01*
X3520000Y-4630001D01*
X3379800Y-4630200D02*
X3380000Y-4630000D01*
X2448500Y-4376501D02*
X2507751D01*
X2900000Y-4300000D02*
X2950499Y-4249501D01*
X2507751D02*
X2512342Y-4244910D01*
X2605090D01*
X2825000Y-4025000D01*
X2507751Y-4122501D02*
X2567002D01*
X2825000Y-4025000D02*
Y-3725000D01*
X2474942Y-3815001D02*
X2507751Y-3847809D01*
X2825000Y-3725000D02*
X2870000Y-3680000D01*
X3507499Y-4642501D02*
X3520000Y-4630001D01*
X6567500Y-837248D02*
X6573355Y-843103D01*
X1674999Y-1449999D02*
Y-1349999D01*
X1993883Y-3406116D02*
Y-3375909D01*
X1994792Y-3375000D01*
X2025000D01*
X1875000Y-3275000D02*
X2025000D01*
X2025000Y-3275000D01*
X1777499Y-1749999D02*
X1787299Y-1740199D01*
X1774999Y-1749999D02*
X1777499D01*
X1787299Y-1740199D02*
Y-1737699D01*
X1900000Y-1624999D01*
X1949999D01*
D63*
X5790000Y-2220001D02*
Y-2070000D01*
X2382500Y-3040000D02*
X2391500Y-3031000D01*
X3874998Y-1755002D02*
Y-1616086D01*
X2325000Y-2561999D02*
X3068001D01*
X3874998Y-1755002D01*
X2582810Y-767190D02*
X2650000Y-700000D01*
X2572867Y-767190D02*
X2582810D01*
X2540057Y-800000D02*
X2572867Y-767190D01*
X2477639Y-1557753D02*
X2489886Y-1570000D01*
X2477639Y-1557753D02*
Y-1452361D01*
X2380001Y-1549999D02*
X2477639Y-1452361D01*
X2650000Y-914492D02*
Y-700000D01*
X2650000Y-914492D02*
X2650000Y-914492D01*
Y-1242500D02*
Y-914492D01*
X7414981Y-2625019D02*
X7570004D01*
X7405007Y-2725019D02*
X7570004D01*
X7370409Y-2669591D02*
X7414981Y-2625019D01*
X7455019Y-2675006D02*
X7570004D01*
X7370409Y-2759616D02*
X7405007Y-2725019D01*
X7435403Y-2775006D02*
X7570004D01*
X7405007Y-2725019D02*
X7455019Y-2675006D01*
X7370409Y-2840000D02*
X7435403Y-2775006D01*
X3190000Y-2050000D02*
X3300000Y-1940000D01*
X1900000Y-2050000D02*
X3190000D01*
X1845366Y-2104634D02*
X1900000Y-2050000D01*
X1845366Y-2302134D02*
Y-2104634D01*
X6420057Y-1040000D02*
Y-922624D01*
Y-1210000D02*
Y-1040000D01*
Y-1210000D02*
X6420057Y-1210000D01*
X6420057Y-922624D02*
X6440500Y-902181D01*
Y-715500D01*
X5231248Y-1141252D02*
X6025000D01*
Y-1222301D02*
X6032699Y-1230000D01*
X6025000Y-1141252D02*
Y-1050000D01*
Y-1222301D02*
Y-1141252D01*
X2330000Y-3092500D02*
X2382500Y-3040000D01*
X5790000Y-2395000D02*
Y-2220001D01*
X2310000Y-1549999D02*
X2380001D01*
X2477639Y-1452361D02*
X2527639D01*
X2650000Y-1330000D01*
X2818930Y-394380D02*
X2825006Y-388305D01*
X2818930Y-531070D02*
Y-394380D01*
X3167500Y-1395000D02*
X3190000Y-1372500D01*
X3157500Y-1405000D02*
X3167500Y-1395000D01*
X3060000D02*
X3167500D01*
X2650000Y-1242500D02*
X2797500Y-1390000D01*
X2650000Y-1330000D02*
Y-1242500D01*
X2797500Y-1390000D02*
X2807500D01*
X3157500Y-1600000D02*
X3160000Y-1602500D01*
X2650000Y-700000D02*
X2690000Y-660000D01*
X2980000D01*
X3157500Y-1600000D02*
Y-1405000D01*
X2690000Y-660000D02*
X2818930Y-531070D01*
X3190000Y-1372500D02*
Y-870000D01*
X2980000Y-660000D02*
X3190000Y-870000D01*
X1722699Y-3282699D02*
X1815000Y-3375000D01*
X1875000D02*
Y-3372500D01*
Y-3375000D02*
Y-3372500D01*
X1815000Y-3375000D02*
X1874889D01*
X1875000Y-3374889D01*
X2432500Y-3092500D02*
X2692061D01*
X2432500D02*
Y-3090000D01*
X870057Y-700000D02*
X1091500D01*
X1099996Y-691505D02*
X1228500D01*
X1091500Y-700000D02*
X1099996Y-691505D01*
X2000600Y-2485200D02*
X2026199Y-2510799D01*
X1975000Y-2459600D02*
X2000600Y-2485200D01*
X1942300Y-2459800D02*
X1967700Y-2485200D01*
X1925000Y-2459600D02*
X1925200Y-2459800D01*
X1942300D01*
X1967700Y-2485200D02*
X2000600D01*
X1925000Y-2459600D02*
Y-2442500D01*
X1400005Y-360000D02*
X1582500D01*
X1300000Y-259995D02*
X1400005Y-360000D01*
X1582500D02*
X1690976Y-468476D01*
X1228500Y-168495D02*
X1300000Y-239995D01*
X1160000Y-168495D02*
X1228500D01*
X1300000Y-259995D02*
Y-239995D01*
X1690976Y-468476D02*
X1759452Y-400000D01*
X1622500Y-536952D02*
X1690976Y-468476D01*
X1759452Y-400000D02*
X1940548D01*
X1622500Y-593750D02*
Y-536952D01*
X1940548Y-400000D02*
X2077500Y-536952D01*
Y-593750D02*
Y-536952D01*
Y-593750D02*
X2090000Y-606250D01*
X1610000D02*
X1622500Y-593750D01*
X1880000Y-3367500D02*
X1912500D01*
X1949292Y-3330709D01*
X2019291D01*
X1875000Y-3372500D02*
X1880000Y-3367500D01*
X2019291Y-3330709D02*
X2025000Y-3325000D01*
X1395399Y-1704601D02*
X1475001Y-1624999D01*
X1395399Y-3290036D02*
Y-1704601D01*
X1475001Y-1624999D02*
X1699999D01*
X1228500Y-691505D02*
X1300000Y-763005D01*
Y-1230167D02*
Y-763005D01*
Y-1230167D02*
X1316377Y-1246544D01*
X7973828Y-3483828D02*
X7975000Y-3485000D01*
X7973828Y-3483828D02*
Y-3421129D01*
X7972699Y-3420000D02*
X7973828Y-3421129D01*
X7975000Y-3560000D02*
Y-3485000D01*
X1316377Y-1246544D02*
X2283456D01*
X2330000Y-1200000D01*
X2172305Y-1357695D02*
X2283456Y-1246544D01*
X2330000Y-1200000D02*
X2407300D01*
X2172305Y-1402694D02*
Y-1357695D01*
X3125005Y-595005D02*
Y-412643D01*
Y-595005D02*
X3300000Y-770000D01*
Y-1940000D02*
Y-770000D01*
X7740000Y-2550000D02*
X7972699Y-2782699D01*
Y-3420000D02*
Y-2782699D01*
X7730637Y-2550000D02*
X7740000D01*
X6188090Y-837248D02*
Y-711909D01*
X5790000Y-2395000D02*
X6695000D01*
X420000Y-4062624D02*
Y-2480000D01*
Y-4062624D02*
X482127Y-4124751D01*
X420000Y-2480000D02*
X625000Y-2275000D01*
X914279Y-2531780D02*
Y-2339279D01*
X625000Y-2275000D02*
X850000D01*
X914279Y-2531780D02*
X920000Y-2537500D01*
X850000Y-2275000D02*
X914279Y-2339279D01*
X1040005Y-2850000D02*
X1111505Y-2921500D01*
X875000Y-2850000D02*
X1040005D01*
X752500Y-2727500D02*
X875000Y-2850000D01*
X1111505Y-2975000D02*
Y-2921500D01*
X720000Y-2537500D02*
X752500Y-2570000D01*
Y-2727500D02*
Y-2570000D01*
X510000Y-3370000D02*
Y-3135502D01*
X516995Y-3128507D02*
Y-3046500D01*
X510000Y-3135502D02*
X516995Y-3128507D01*
Y-3046500D02*
X588495Y-2975000D01*
X562462Y-4072289D02*
X684942Y-3949809D01*
X484751Y-4150000D02*
Y-4124751D01*
X482127D02*
X484751D01*
X558750Y-3501250D02*
X665000Y-3607500D01*
X510000Y-3452501D02*
X558750Y-3501250D01*
X550000Y-3510000D02*
X558750Y-3501250D01*
X550000Y-3675000D02*
Y-3510000D01*
X665000Y-3625000D02*
Y-3607500D01*
X510000Y-3452501D02*
Y-3370000D01*
X560502Y-3420502D01*
X650501D02*
X654999Y-3425000D01*
X560502Y-3420502D02*
X650501D01*
X684942Y-3965121D02*
Y-3949809D01*
Y-3875000D01*
X539838Y-4072289D02*
X562462D01*
X484751Y-4127376D02*
X539838Y-4072289D01*
X950000Y-3980000D02*
X1062486Y-3867513D01*
X699822Y-3980000D02*
X950000D01*
X684942Y-3965121D02*
X699822Y-3980000D01*
X1712664Y-3290036D02*
X1720000Y-3282699D01*
X1382500Y-3325000D02*
X1395399Y-3312101D01*
Y-3290036D02*
X1712664D01*
X1395399Y-3312101D02*
Y-3290036D01*
X1330000Y-3347300D02*
X1352300Y-3325000D01*
X1382500D01*
X1330000Y-3650000D02*
Y-3347300D01*
X1899999Y-1524999D02*
X1949999D01*
X1549999Y-1774999D02*
X1699999Y-1624999D01*
X1549999Y-1779942D02*
Y-1774999D01*
X1699999Y-1624999D02*
X1799999D01*
X1849999Y-1574999D01*
X1899999Y-1524999D01*
X1849999Y-1574999D02*
X1949999D01*
X2391500Y-3049000D02*
X2432500Y-3090000D01*
X2391500Y-3049000D02*
Y-3031000D01*
X1825000Y-2442500D02*
Y-2382500D01*
X1840000Y-2367500D01*
Y-2307500D01*
X1845366Y-2302134D01*
X1625000Y-2312300D02*
X1835199D01*
X1840000Y-2307500D01*
X5114998Y-1110002D02*
X5570000Y-655000D01*
X5800000Y-425000D01*
X5570000Y-655000D02*
Y-435399D01*
X4060000Y-2430000D02*
X5755000D01*
X5790000Y-2395000D01*
X4030000Y-2400000D02*
X4060000Y-2430000D01*
X4030000Y-2400000D02*
Y-2150000D01*
X5790000Y-2070000D02*
X5879999Y-1980000D01*
X2391500Y-3031000D02*
Y-2628500D01*
X6770000Y-2550000D02*
Y-2470000D01*
X6695000Y-2395000D02*
X6770000Y-2470000D01*
X7570004Y-2575006D02*
Y-2525019D01*
X7705656D01*
X7730637Y-2550000D01*
X6219045Y-680954D02*
X6407750D01*
X854999Y-3330004D02*
X1037507D01*
X1127499Y-3419996D01*
X1155000D01*
X1062486Y-3867513D02*
Y-3825025D01*
X845000Y-3625921D02*
Y-3625000D01*
Y-3625921D02*
X882300Y-3663221D01*
X918221D01*
X980025Y-3725025D01*
X1062486D01*
X5740000Y-1897500D02*
X5745291Y-1902791D01*
X5822390Y-1942390D02*
X5847332D01*
X5782791Y-1902791D02*
X5822390Y-1942390D01*
X5745291Y-1902791D02*
X5782791D01*
X5847332Y-1942390D02*
X5884942Y-1980000D01*
X5879999Y-1980000D02*
X5884942D01*
X5884942Y-1980000D02*
Y-1750000D01*
X4374601Y-1805399D02*
Y-1515400D01*
X2325000Y-2561999D02*
X2391500Y-2628500D01*
X4030000Y-2150000D02*
X4374601Y-1805399D01*
Y-1515400D02*
X4380001Y-1510001D01*
X4349998Y-1385002D02*
X4371776Y-1406780D01*
Y-1501776D02*
X4380001Y-1510001D01*
X4371776Y-1501776D02*
Y-1406780D01*
X4349998Y-1385002D02*
X4624998Y-1110002D01*
X3874998Y-1616086D02*
Y-1522170D01*
X3958912Y-1700000D02*
X4037301D01*
X3874998Y-1616086D02*
X3958912Y-1700000D01*
X3874998Y-1522170D02*
Y-1375002D01*
X3726436Y-1665789D02*
X3731379D01*
X3874998Y-1522170D01*
X6185910Y-263341D02*
X6186500Y-262751D01*
X6185910Y-364090D02*
Y-263341D01*
X6125000Y-425000D02*
X6185910Y-364090D01*
X5800000Y-425000D02*
X6125000D01*
X6689910Y-267341D02*
X6694500Y-262751D01*
X6689910Y-360090D02*
Y-267341D01*
X6625000Y-425000D02*
X6689910Y-360090D01*
X6125000Y-425000D02*
X6625000D01*
X6407750Y-682750D02*
X6440500Y-715500D01*
X5199998Y-1110002D02*
X5231248Y-1141252D01*
X6025000Y-1050000D02*
Y-1047300D01*
X6050207Y-1022093D01*
X6052907D02*
X6186500Y-888500D01*
Y-837248D01*
X6050207Y-1022093D02*
X6052907D01*
X4624998Y-1110002D02*
X5114998D01*
X5199998D01*
X6188090Y-711909D02*
X6219045Y-680954D01*
X2077399Y-2561999D02*
X2325000D01*
X3874998Y-1375002D02*
X4000000Y-1250000D01*
X4214996D01*
X4349998Y-1385002D01*
X1895057Y-2674999D02*
X1900000D01*
X1937610Y-2637389D01*
Y-2632446D01*
X1975000Y-2459600D02*
Y-2442500D01*
X2026199Y-2510799D02*
X2077399Y-2561999D01*
X2026199Y-2543857D02*
Y-2510799D01*
X1937610Y-2632446D02*
X2026199Y-2543857D01*
D64*
X7370409Y-2840000D02*
Y-2759616D01*
Y-3340000D02*
Y-2840000D01*
Y-2759616D02*
Y-2669591D01*
X953500Y-550000D02*
X1015200Y-611700D01*
X900000Y-550000D02*
X953500D01*
X1015200Y-615205D02*
Y-611700D01*
Y-615205D02*
X1091500Y-691505D01*
X7255000Y-3345000D02*
X7260000Y-3340000D01*
X7115000Y-3345000D02*
X7255000D01*
X7415000Y-350000D02*
X7425000Y-360000D01*
X7117608Y-350000D02*
X7415000D01*
X7117608Y-575000D02*
X7132608Y-560000D01*
X7425000D01*
X7117608Y-575000D02*
X7125000D01*
D65*
X7187700Y-1872300D02*
X7285207D01*
X6760000Y-2190000D02*
X6870000D01*
X7187700Y-1872300D01*
X7490000Y-4550000D02*
Y-4250000D01*
X7590000Y-4150000D02*
X7780000D01*
X7490000Y-4250000D02*
X7590000Y-4150000D01*
X7880000Y-4230000D02*
X8280000Y-3830000D01*
X7640000Y-4230000D02*
X7880000D01*
X7580000Y-4290000D02*
X7640000Y-4230000D01*
X7580000Y-4675000D02*
Y-4290000D01*
X7292500Y-4962500D02*
X7580000Y-4675000D01*
X7200000Y-4840000D02*
X7490000Y-4550000D01*
X7780000Y-4150000D02*
X8075000Y-3855000D01*
X8280000Y-3830000D02*
Y-1890000D01*
X8040000Y-1650000D02*
X8280000Y-1890000D01*
X7960000Y-1750000D02*
X8140000Y-1930000D01*
X8080000Y-3855000D02*
X8140000Y-3795000D01*
Y-1930000D01*
X7900000Y-3679999D02*
X8075000Y-3855000D01*
X8080000D01*
X4052495Y-4840000D02*
X7200000D01*
X6635007Y-1772500D02*
X6757507Y-1650000D01*
X8040000D01*
X5800000D02*
X6395000D01*
X5666000Y-1784000D02*
X5800000Y-1650000D01*
X6395000D02*
X6490000Y-1745000D01*
X7379906Y-1750000D02*
X7960000D01*
X3747500Y-4535005D02*
X4052495Y-4840000D01*
X7339987Y-1789918D02*
X7379906Y-1750000D01*
X7285207Y-1872300D02*
X7339987Y-1817519D01*
X3719999Y-4535005D02*
X3747500D01*
X7339987Y-1817519D02*
Y-1789918D01*
X7900000Y-3679999D02*
Y-3560000D01*
X3830000Y-4962500D02*
X7292500D01*
X3720000Y-4880000D02*
X3747501D01*
X5666000Y-2086000D02*
Y-1830000D01*
X6635007Y-1795000D02*
Y-1772500D01*
X6519407Y-2109350D02*
X6690057Y-2280000D01*
X5540000Y-1970057D02*
X5550057D01*
X5666000Y-1830000D02*
X5676000Y-1820000D01*
X6485056Y-2075000D02*
X6519407Y-2109350D01*
X6485056Y-2075000D02*
Y-1749943D01*
X5666000Y-2220001D02*
Y-2086000D01*
X5676000Y-1820000D02*
X5740000D01*
X6690057Y-2280000D02*
X7100000D01*
X6544285Y-1799285D02*
X6630721D01*
X7204993Y-2175007D02*
X7570004D01*
X6490000Y-1745000D02*
X6544285Y-1799285D01*
X7100000Y-2280000D02*
X7204993Y-2175007D01*
X6630721Y-1799285D02*
X6635007Y-1795000D01*
X3747501Y-4880000D02*
X3830000Y-4962500D01*
X5550057Y-1970057D02*
X5666000Y-2086000D01*
Y-1830000D02*
Y-1784000D01*
X6519407Y-2109350D02*
X6519407D01*
X6485056Y-1749943D02*
X6490000Y-1745000D01*
X6575000Y-1115000D02*
Y-1112500D01*
X6584800Y-1124800D02*
X6587300D01*
X6632501Y-1170000D02*
X6717301D01*
X6625312Y-1162812D02*
X6625313D01*
X6587300Y-1124800D02*
X6625312Y-1162812D01*
X6625313D02*
X6632501Y-1170000D01*
X6575000Y-1115000D02*
X6584800Y-1124800D01*
X6570503Y-1018984D02*
Y-838344D01*
D66*
X4920000Y-2050000D02*
X5500000Y-1470000D01*
X4830000Y-2050000D02*
X4920000D01*
X4778712Y-2101288D02*
X4830000Y-2050000D01*
X5460000Y-1400000D02*
X8100000D01*
X4880000Y-1980000D02*
X5460000Y-1400000D01*
X4740000Y-1980000D02*
X4880000D01*
X5500000Y-1470000D02*
X6940000D01*
X5550000Y-1540000D02*
X8450000D01*
X4990000Y-2060000D02*
X5030000D01*
X5550000Y-1540000D01*
X5071000Y-2180000D02*
Y-2119000D01*
X5600000Y-1590000D01*
X5031000Y-2220001D02*
X5071000Y-2180000D01*
X4944000D02*
Y-2106000D01*
X4990000Y-2060000D01*
X4904000Y-2220001D02*
X4944000Y-2180000D01*
X5600000Y-1590000D02*
X8210000D01*
X4850000Y-1930000D02*
X5430000Y-1350000D01*
X7820000D01*
X4679363Y-1930000D02*
X4850000D01*
X8100000Y-1400000D02*
X9170000Y-330000D01*
X4778712Y-2218288D02*
Y-2101288D01*
X4777000Y-2220001D02*
X4778712Y-2218288D01*
X4684800Y-2035200D02*
X4740000Y-1980000D01*
X4570000Y-2039363D02*
X4679363Y-1930000D01*
X6842699Y-1170000D02*
X6940000D01*
X8450000Y-1540000D02*
X9560000Y-430000D01*
X7820000Y-1350000D02*
X8960000Y-210000D01*
X8210000Y-1590000D02*
X9230000Y-2610000D01*
X4684800Y-2185200D02*
Y-2035200D01*
X8960000Y-210000D02*
X10686010D01*
X11387499Y-911490D01*
X10188219Y-330000D02*
X10637499Y-779281D01*
X9170000Y-330000D02*
X10188219D01*
X9770000Y-430000D02*
X9890000Y-550000D01*
X9560000Y-430000D02*
X9770000D01*
X9890000Y-2120000D02*
Y-550000D01*
X9670000Y-4650000D02*
X10320000D01*
X9230000Y-4210000D02*
X9670000Y-4650000D01*
X9230000Y-4210000D02*
Y-2610000D01*
X10320000Y-4650000D02*
X10640000Y-4330000D01*
Y-3740000D01*
X10637499Y-1380000D02*
Y-779281D01*
X11387499Y-2118571D02*
Y-911490D01*
X4557800Y-2185200D02*
Y-2051562D01*
X4570000Y-2039363D01*
X4523000Y-2220001D02*
X4557800Y-2185200D01*
X4650000Y-2220001D02*
X4684800Y-2185200D01*
X5031000Y-2199000D02*
X5040000Y-2190000D01*
D67*
X2244610Y-1549999D02*
X2310000D01*
D68*
X1641036Y-1000000D02*
X1775915Y-865121D01*
X370000Y-4410000D02*
X1980000D01*
X2200501Y-4630501D01*
X2507751D01*
X1775915Y-705915D02*
X1800000Y-730000D01*
X1775000Y-705000D02*
X1775915Y-705915D01*
Y-865121D02*
Y-705915D01*
X1925000Y-950000D02*
Y-606250D01*
X1900000Y-480000D02*
X1925000Y-505000D01*
X1850000Y-480000D02*
X1900000D01*
X1825000Y-505000D02*
X1850000Y-480000D01*
X1925000Y-606250D02*
Y-505000D01*
X1825000Y-606250D02*
Y-505000D01*
X1800000Y-730000D02*
X1850000D01*
X1875000Y-705000D01*
X1775000Y-705000D02*
Y-606250D01*
X1875000Y-705000D02*
Y-606250D01*
X1925000Y-1035000D02*
Y-960000D01*
X1420000Y-1480000D02*
Y-1325000D01*
X560000Y-1570000D02*
X1330000D01*
X1420000Y-1480000D01*
X570000Y-1440000D02*
X1325000D01*
X250000Y-1760000D02*
X570000Y-1440000D01*
X1522700Y-1412700D02*
Y-1352300D01*
X250000Y-4290000D02*
Y-1760000D01*
X330000Y-4250000D02*
Y-1800000D01*
X560000Y-1570000D01*
X330000Y-4250000D02*
X410000Y-4330000D01*
X1420000Y-1080000D02*
X1500000Y-1000000D01*
X1641036D01*
X1805000Y-1155000D02*
X1925000Y-1035000D01*
X1550000Y-1155000D02*
X1805000D01*
X1420000D02*
Y-1080000D01*
X250000Y-4290000D02*
X370000Y-4410000D01*
X410000Y-4330000D02*
X2000000D01*
X2173501Y-4503501D01*
X2507751D01*
D69*
X6740000Y-510000D02*
X6900000Y-350000D01*
X6073498Y-510000D02*
X6740000D01*
X5805500Y-777997D02*
X6073498Y-510000D01*
X5805500Y-837248D02*
Y-777997D01*
X6900000Y-350000D02*
X6982392D01*
X6150000Y-600000D02*
X6957392D01*
X6982392Y-575000D01*
X6059500Y-690500D02*
X6150000Y-600000D01*
X6059500Y-837248D02*
Y-690500D01*
D70*
X1418000Y-548750D02*
D03*
X2282000D02*
D03*
D71*
X1418000Y-133750D02*
D03*
X2282000D02*
D03*
D72*
X1561000Y-498750D02*
D03*
X2139000D02*
D03*
D73*
X3969989Y-460003D02*
D03*
X4768006D02*
D03*
D74*
X4690000Y-1310000D02*
D03*
X7730000Y-2690000D02*
D03*
X7820000Y-2420000D02*
D03*
X7300000Y-4290000D02*
D03*
X7230000Y-4510000D02*
D03*
X7390000Y-4500000D02*
D03*
X7650000Y-4520000D02*
D03*
X7870000Y-4420000D02*
D03*
X7780000Y-4330000D02*
D03*
X4160000Y-4070000D02*
D03*
X4490000Y-4270000D02*
D03*
X4390000D02*
D03*
X4330000Y-4200000D02*
D03*
X4820000Y-3390000D02*
D03*
X5020000Y-3840000D02*
D03*
X5770000Y-4480000D02*
D03*
X5630000Y-4500000D02*
D03*
X5140000Y-4240000D02*
D03*
X5200000Y-4350000D02*
D03*
X2660000Y-4540000D02*
D03*
X2730000Y-4390000D02*
D03*
X2080000Y-2640000D02*
D03*
X1210000Y-2730000D02*
D03*
X1290170Y-2997008D02*
D03*
X2340000Y-1840000D02*
D03*
Y-1760000D02*
D03*
X2450000Y-1840000D02*
D03*
X2570000D02*
D03*
X2700000D02*
D03*
X2820000Y-1820000D02*
D03*
X2950000Y-1800000D02*
D03*
Y-1710000D02*
D03*
X2160000Y-1920000D02*
D03*
X2820000Y-2990000D02*
D03*
X2910000Y-4110000D02*
D03*
X3890000Y-2830000D02*
D03*
X3860000Y-3210000D02*
D03*
X5570000Y-2760000D02*
D03*
X4780000Y-2930000D02*
D03*
X5520000Y-3250000D02*
D03*
X5750000Y-2980000D02*
D03*
X4460000Y-3430000D02*
D03*
X4740000Y-2540000D02*
D03*
X4340000Y-2960000D02*
D03*
X5910000Y-2520000D02*
D03*
X5600000Y-2540000D02*
D03*
X5090000Y-2550000D02*
D03*
X6510000Y-2510000D02*
D03*
X6760000Y-2190000D02*
D03*
X7670000Y-4390000D02*
D03*
X8222000Y-3200000D02*
D03*
Y-2200000D02*
D03*
X7390000Y-4390000D02*
D03*
X6940000Y-1470000D02*
D03*
X7117781Y-1293411D02*
D03*
X6940000Y-1170000D02*
D03*
X5757301Y-1230000D02*
D03*
X7010000Y-1708000D02*
D03*
X6140000Y-1215000D02*
D03*
X2610000Y-3640000D02*
D03*
X7870000Y-2970000D02*
D03*
X7760000Y-2860000D02*
D03*
X10490000Y-1240000D02*
D03*
X10500000Y-1430000D02*
D03*
X10770000Y-1410000D02*
D03*
X11250000Y-1990000D02*
D03*
X11550000Y-2180000D02*
D03*
X11560000Y-2010000D02*
D03*
X10030000Y-1950000D02*
D03*
X10050000Y-2120000D02*
D03*
X10790000Y-3690000D02*
D03*
X10760000Y-3850000D02*
D03*
X10500000D02*
D03*
X9920000Y-4870000D02*
D03*
X9600000Y-4830000D02*
D03*
X9780000Y-4780000D02*
D03*
X7410000Y-4240000D02*
D03*
X1260000Y-2640000D02*
D03*
X1100000Y-2710000D02*
D03*
X1300000Y-2810000D02*
D03*
X2690000Y-2990000D02*
D03*
X2490000Y-3010000D02*
D03*
X2580000Y-2660000D02*
D03*
X2800000D02*
D03*
X2810000Y-4320000D02*
D03*
X2340000Y-4410000D02*
D03*
X2750000Y-4470000D02*
D03*
X4450000Y-1040000D02*
D03*
X5940000Y-2800000D02*
D03*
X5740000Y-3440000D02*
D03*
X6020000Y-3160000D02*
D03*
X6320000Y-2860000D02*
D03*
X6650000Y-3090000D02*
D03*
X6340000Y-3390000D02*
D03*
X6080000Y-3640000D02*
D03*
X4640000Y-3770000D02*
D03*
X5120000Y-3840000D02*
D03*
X5170000Y-3360000D02*
D03*
X4930000Y-3320000D02*
D03*
X4720000Y-3500000D02*
D03*
X6370000Y-2480000D02*
D03*
X7060000Y-2170000D02*
D03*
X6700000Y-2080000D02*
D03*
X6900000Y-2420000D02*
D03*
X6620000Y-2630000D02*
D03*
X6650000Y-2490000D02*
D03*
X6420000Y-2300000D02*
D03*
X980000Y-4730000D02*
D03*
X1430000Y-4720000D02*
D03*
X1900000Y-4770000D02*
D03*
X2060000Y-3950000D02*
D03*
X2340000Y-3600000D02*
D03*
X2830000Y-3330000D02*
D03*
X2530000Y-3169300D02*
D03*
X2700000Y-3100000D02*
D03*
X2920000Y-4000000D02*
D03*
X2420000Y-3310000D02*
D03*
X2530000Y-3350000D02*
D03*
X2950000Y-1610000D02*
D03*
X2820000Y-1720000D02*
D03*
X2700000Y-1760000D02*
D03*
X2570000D02*
D03*
X2620000Y-3940000D02*
D03*
X4760000Y-4200000D02*
D03*
X7220000Y-2920000D02*
D03*
X11510000Y-700000D02*
D03*
X11760000Y-1200000D02*
D03*
X11510000Y-1700000D02*
D03*
Y-2700000D02*
D03*
X11760000Y-3200000D02*
D03*
X11510000Y-3700000D02*
D03*
X11760000Y-4200000D02*
D03*
X11010000Y-700000D02*
D03*
X11260000Y-1200000D02*
D03*
X11010000Y-1700000D02*
D03*
X11260000Y-2200000D02*
D03*
X11010000Y-2700000D02*
D03*
X11260000Y-3200000D02*
D03*
X11010000Y-3700000D02*
D03*
X11260000Y-4200000D02*
D03*
X11010000Y-4700000D02*
D03*
X10760000Y-1200000D02*
D03*
X10510000Y-1700000D02*
D03*
X10760000Y-2200000D02*
D03*
X10510000Y-2700000D02*
D03*
X10760000Y-3200000D02*
D03*
X10510000Y-3700000D02*
D03*
X10760000Y-4200000D02*
D03*
X10510000Y-4700000D02*
D03*
X10010000Y-700000D02*
D03*
X10260000Y-1200000D02*
D03*
X10010000Y-1700000D02*
D03*
Y-2700000D02*
D03*
X10260000Y-3200000D02*
D03*
X10010000Y-3700000D02*
D03*
X10260000Y-4200000D02*
D03*
X9510000Y-700000D02*
D03*
Y-1700000D02*
D03*
Y-2700000D02*
D03*
Y-3700000D02*
D03*
Y-4700000D02*
D03*
X9010000Y-700000D02*
D03*
Y-1700000D02*
D03*
X9260000Y-2200000D02*
D03*
X9010000Y-2700000D02*
D03*
Y-3700000D02*
D03*
Y-4700000D02*
D03*
X8760000Y-3200000D02*
D03*
Y-4200000D02*
D03*
X8510000Y-4700000D02*
D03*
X8010000Y-2700000D02*
D03*
X8260000Y-4200000D02*
D03*
X7510000Y-700000D02*
D03*
X7760000Y-2200000D02*
D03*
X7510000Y-3700000D02*
D03*
X7010000Y-4700000D02*
D03*
X6510000Y-3700000D02*
D03*
X6760000Y-4200000D02*
D03*
X6510000Y-4700000D02*
D03*
X6260000Y-4200000D02*
D03*
X6010000Y-4700000D02*
D03*
X5510000D02*
D03*
X5010000Y-700000D02*
D03*
X5260000Y-3200000D02*
D03*
X4510000Y-700000D02*
D03*
Y-2700000D02*
D03*
X4760000Y-3200000D02*
D03*
X4010000Y-700000D02*
D03*
X3510000D02*
D03*
X3760000Y-1200000D02*
D03*
X3510000Y-2700000D02*
D03*
X3260000Y-2200000D02*
D03*
X2760000D02*
D03*
X2010000Y-2700000D02*
D03*
X2260000Y-4200000D02*
D03*
X1760000Y-2200000D02*
D03*
X1510000Y-2700000D02*
D03*
X1760000Y-4200000D02*
D03*
X1260000D02*
D03*
X510000Y-700000D02*
D03*
X760000Y-1200000D02*
D03*
X510000Y-2700000D02*
D03*
X2450000Y-1760000D02*
D03*
X1700000Y-2030000D02*
D03*
X1790000Y-1870000D02*
D03*
X2220000Y-1140000D02*
D03*
X2020000D02*
D03*
X2070000Y-2200000D02*
D03*
X1430000Y-900000D02*
D03*
X1700000Y-100000D02*
D03*
X2110000Y-990000D02*
D03*
X1750000Y-1060000D02*
D03*
X1620000Y-2670000D02*
D03*
X6180000Y-2520000D02*
D03*
X5650000Y-90000D02*
D03*
X5270000Y-540000D02*
D03*
X7680000Y-1030000D02*
D03*
X7000000Y-1040000D02*
D03*
X6840000Y-810000D02*
D03*
X1600000Y-1460000D02*
D03*
X4680000Y-4380000D02*
D03*
X4830000Y-4240000D02*
D03*
X6900000Y-2000000D02*
D03*
X270000Y-1220000D02*
D03*
X2770000Y-1510000D02*
D03*
X6170000Y-1980000D02*
D03*
X5570000Y-1720862D02*
D03*
X150000Y-1000000D02*
D03*
X1550000Y-5010000D02*
D03*
X1150000D02*
D03*
X2050000D02*
D03*
X1420343Y-3530000D02*
D03*
X1720000Y-3020000D02*
D03*
X2880000Y-3080000D02*
D03*
X3340000Y-4100000D02*
D03*
X3300000Y-4850000D02*
D03*
X1520000Y-4010000D02*
D03*
X5250000Y-4600000D02*
D03*
X150000Y-5000000D02*
D03*
Y-500000D02*
D03*
X7550000Y-5000000D02*
D03*
X8050000D02*
D03*
X9050000D02*
D03*
X9550000D02*
D03*
X10050000D02*
D03*
X10550000D02*
D03*
X11050000D02*
D03*
X11550000D02*
D03*
X11800000D02*
D03*
Y-4500000D02*
D03*
Y-4000000D02*
D03*
Y-3500000D02*
D03*
Y-3000000D02*
D03*
Y-1500000D02*
D03*
Y-1000000D02*
D03*
Y-500000D02*
D03*
X11550000Y-100000D02*
D03*
X11050000D02*
D03*
X8550000D02*
D03*
X7050000D02*
D03*
X6050000D02*
D03*
X4550000D02*
D03*
X4050000D02*
D03*
X3550000D02*
D03*
X550000D02*
D03*
X7410000Y-2040000D02*
D03*
X6060000Y-4090000D02*
D03*
X5450000Y-2970012D02*
D03*
X10640000Y-3740000D02*
D03*
X9890000Y-2120000D02*
D03*
X10637499Y-1380000D02*
D03*
X11387499Y-2118571D02*
D03*
X4950000Y-1650000D02*
D03*
X6140000Y-1040000D02*
D03*
X3900000Y-2550000D02*
D03*
X9775000Y-4925000D02*
D03*
X5662500Y-4387500D02*
D03*
X5250000Y-4250000D02*
D03*
X2567682Y-2912680D02*
D03*
X2702680Y-2752680D02*
D03*
X6770000Y-2550000D02*
D03*
X7730637D02*
D03*
X4910000Y-3490000D02*
D03*
Y-3850000D02*
D03*
X5750000Y-1050000D02*
D03*
X4150000Y-1350000D02*
D03*
%TF.MD5,628e7f4d46ae4f497603ce9cae2af8e2*%
M02*
